<svg xmlns="http://www.w3.org/2000/svg" xmlns:xlink="http://www.w3.org/1999/xlink" width="0" height="0" fill="#000">
  <symbol viewBox="0 0 48 48" id="time">
    <path d="M18.2 12c0 .2-.2.5-.4.5h-4.1c-.3 0-.5-.2-.5-.5 0-.2.2-.5.4-.5h4.1c.2 0 .5.2.5.5zm-.6 4.5H9.5c-.2 0-.4.2-.4.5s.2.5.5.5h8.2c.2 0 .4-.2.4-.5s-.3-.5-.6-.5zm24.8-6.3L40.6 12c3.6 3.8 5.9 8.9 5.9 14.5v.6c-.3 11.3-9.7 20.4-21.2 20.4h-.4-.2c-1.8 0-3.5-.3-5.2-.8l-.5-.1c-.3-.1-.4-.4-.3-.6.1-.3.4-.4.6-.3l.4.1c1.4.4 2.9.6 4.5.7V45c0-.3.2-.5.5-.5.2 0 .5.2.5.4v1.6h.3c3.3-.1 6.5-.9 9.2-2.4l-.9-1.3c-.2-.2-.1-.5.1-.7.2-.1.5-.1.6.1l.1.1.9 1.4c2.7-1.6 4.9-3.8 6.6-6.4l-1.6-.8c-.2-.1-.4-.4-.2-.7.1-.2.4-.3.6-.3h.1l1.7.8c1.5-2.6 2.4-5.7 2.6-8.9h-2.5c-.3 0-.5-.2-.5-.5 0-.2.2-.5.4-.5h2.6c0-3.3-.8-6.4-2.2-9.1H43l-2 1c-.2.1-.6 0-.7-.2-.1-.2 0-.5.1-.6h.1l2-1h.1c-1.7-2.9-4.1-5.4-7-7.1l-.9 1.8c-.1.2-.4.3-.7.2-.2-.1-.3-.4-.3-.6v-.1l.9-1.9c-2.8-1.5-6.1-2.4-9.6-2.4v1.5c0 .3-.2.5-.5.5-.2 0-.5-.2-.5-.4V6.5c-1.3.1-2.6.3-3.9.6-.3.1-.5-.1-.6-.4-.1-.3.1-.5.4-.6 1-.3 2.1-.4 3.1-.5V4.5h-2c-1.1 0-1.9-.8-2-1.9v-.1c0-1.1.8-1.9 1.9-2H29.2c1.1 0 2 .9 2 2s-.8 1.9-1.9 2h-2.2v1.1c4.9.5 9.3 2.5 12.6 5.7l1.8-1.8-.4-.4c-.6-.5-.6-1.4-.1-2l.1-.1 1.6-1.6c.6-.6 1.5-.6 2.1 0L46.4 7c.6.6.6 1.5 0 2.1L45 10.6c-.6.6-1.5.6-2.1 0l-.5-.4zM26.7 3.5h2.5c.6 0 1-.4 1-1 0-.5-.4-.9-.9-1h-8.2c-.6 0-1 .4-1 1 0 .5.4.9.9 1h2.6c.2 0 .5.2.5.4v1.6h2V4c.1-.2.3-.5.6-.5zm15.2 4.9l1.6 1.6c.2.2.5.2.7 0l1.6-1.6c.2-.2.2-.5 0-.7l-1.6-1.6c-.2-.2-.5-.2-.7 0l-1.6 1.6c-.2.1-.2.5 0 .7zM23.2 30.5c-1.4-1.4-1.4-3.6 0-5 .7-.7 3.6-2.5 8.8-5.5l2.8-1.6c.4-.3 1 .2.7.7-3.8 6.5-6.2 10.3-7.1 11.3l-.1.1c-1.5 1.4-3.7 1.4-5.1 0zm.7-.7c1 1 2.6 1 3.6 0 .6-.6 2.2-3.1 4.8-7.4l1.3-2.1-1.8 1.1c-4.3 2.5-6.8 4.1-7.7 4.8H24c-1.1 1-1.1 2.6-.1 3.6zm-6.3 11.7h-4.1c-.2 0-.4.2-.4.5s.2.5.5.5h4.1c.2 0 .4-.2.4-.5.1-.3-.2-.5-.5-.5zm0-5H9.5c-.2 0-.4.2-.4.5s.2.5.5.5h8.2c.2 0 .4-.2.4-.5s-.3-.5-.6-.5zm0-5H5.4c-.2 0-.4.3-.4.5 0 .3.2.5.5.5h12.2c.2 0 .4-.2.4-.5.1-.3-.2-.5-.5-.5zm0-5H1.4c-.2 0-.4.3-.4.5 0 .3.2.5.5.5H17.7c.2 0 .4-.2.4-.5.1-.3-.2-.5-.5-.5zm0-5H5.4c-.2 0-.4.3-.4.5 0 .3.2.5.5.5h12.2c.2 0 .4-.2.4-.5.1-.3-.2-.5-.5-.5z"/>
  </symbol>
  <symbol viewBox="0 0 48 48" id="cup">
    <path d="M28.8 42.5c1.1 0 2-.9 2-2s-.9-2-2-2-2 .9-2 2 .9 2 2 2zm0-3c.5 0 1 .4 1 1s-.4 1-1 1-1-.4-1-1 .4-1 1-1zm-9.9 3c1.1 0 2-.9 2-2s-.9-2-2-2-2 .9-2 2c.1 1.1.9 2 2 2zm0-3c.5 0 1 .4 1 1s-.4 1-1 1c-.5 0-1-.4-1-1s.5-1 1-1zm14.2-17.1l.1-.1c8.1-3.4 12.2-9.2 12.2-17.3 0-.3-.2-.5-.5-.5h-5.4V3c0-.3-.2-.5-.5-.5H8.5c-.2 0-.4.3-.4.5v1.5H3c-.3 0-.5.2-.5.5 0 7.9 4 13.7 11.8 17.1 1.8 1.8 4 3.4 6.6 4.9v4.5h-2.7c-2.2.1-4 1.8-4.2 4h-2.5C10.1 35.5 9 36.6 9 38v7c0 .3.2.5.5.5H38c.3 0 .5-.2.5-.5v-7c0-1.4-1.1-2.5-2.5-2.5h-2.5c-.2-2.2-2-3.9-4.2-4h-2.7V27c2.7-1.4 4.8-3 6.5-4.6zM39.6 8V5.5h4.9v.3c-.2 6.5-3.4 11.4-9.5 14.6 3.1-3.6 4.6-7.8 4.6-12.4zM3.5 5.8v-.3h4.6V8c0 4.5 1.4 8.5 4.3 12.1-5.7-3.2-8.7-8-8.9-14.3zm32.6 30.7h.1c.7.1 1.3.7 1.3 1.5v6.5H10.1V38c0-.8.7-1.5 1.5-1.5h24.5zm-6.8-4c1.7 0 3.2 1.3 3.4 3H15c.2-1.7 1.7-3 3.4-3h3.1c.2 0 .4-.2.4-.5v-4.5l1.8.9c.1.1.3.1.4 0l1.8-.9V32c0 .2.2.5.4.5h3zm-5.2-5.2l-.3.1-.3-.1c-3.3-1.7-6-3.5-8.2-5.5l.1-.2-.6-.3C11 17.5 9.1 13 9.1 8V3.5h29.5v4.9c-.1 5-2.1 9.4-6 13.1h-.1c-2.2 2.2-5 4.1-8.4 5.8zm-.3 15.2c1.1 0 2-.9 2-2s-.9-2-2-2-2 .9-2 2c.1 1.1 1 2 2 2zm0-3c.5 0 1 .4 1 1s-.4 1-1 1-1-.4-1-1 .5-1 1-1z"/>
  </symbol>
  <symbol viewBox="0 0 48 48" id="coins">
    <path d="M48 22v-5c0-1.4-1.9-2.5-5.2-3.3.1-.2.2-.4.2-.7V8c0-2.9-9.3-4.9-21.1-5h-.4C9.7 3 .2 5 0 7.9V13.1c.1 1.3 2 2.4 5.1 3.2 0 .2-.1.4-.1.5v5.3c0 .2.1.4.2.5-3.3.9-5.2 2-5.2 3.4v5.1c.1 1.3 2 2.4 5.1 3.2 0 .2-.1.5-.1.7v5.1c.2 2.8 9.2 4.8 20.6 4.9h.9c12 0 21.5-2 21.5-5v-5.1c-.1-1.3-2-2.4-5.2-3.2.1-.2.2-.4.2-.7v-5c0-.2-.1-.4-.2-.7 3.3-.8 5.2-2 5.2-3.3zm-5.8-7.5c3.1.8 4.8 1.7 4.8 2.5 0 2-9.3 4-20.5 4h-.4C15 20.9 6 19 6 17c0-.1.1-.3.2-.4 3.7.9 8.8 1.4 14.5 1.4h.9c9.7 0 17.9-1.4 20.6-3.5zM40 21v4c-.9.2-1.9.3-3 .5v-4c1.1-.2 2.1-.4 3-.5zm-4 .5v4c-1.3.1-2.6.3-4 .3v-4c1.4 0 2.7-.1 4-.3zm-5 .4v4c-1.3.1-2.6.1-4 .1v-4c1.4 0 2.7 0 4-.1zm-5 .1v4c-1.4 0-2.7 0-4-.1v-4c1.2.1 2.4.1 3.6.1h.4zm-9-.5c1.3.1 2.6.2 4 .3v4c-1.4-.1-2.7-.2-4-.3v-4zm-1-.1v4c-1.1-.1-2.1-.3-3-.5v-4c.9.2 1.9.4 3 .5zm-4-.6v4c-1.1-.2-2.2-.5-3-.8v-4c.9.3 1.9.5 3 .8zM6 22v-3.4c.5.4 1.2.7 2 1.1v4c-1.3-.6-2-1.1-2-1.7zm2-6.1v-4c.9.2 1.9.3 3 .5v4c-1.1-.1-2.1-.3-3-.5zm4 .6v-4c1.3.1 2.6.2 4 .3v4c-1.4 0-2.7-.2-4-.3zm5 .4v-4c1.3.1 2.6.1 4 .1v4c-1.4 0-2.7 0-4-.1zm5 .1v-4h.4c1.2 0 2.5 0 3.6-.1v4c-1.3.1-2.6.1-4 .1zm5-.2v-4c1.4-.1 2.7-.2 4-.3v4c-1.3.1-2.6.3-4 .3zm5-.4v-4c1.1-.1 2.1-.3 3-.4v4c-.9.1-1.9.3-3 .4zm4-.7v-4c1.1-.2 2.1-.5 3-.8v4c-.8.4-1.9.6-3 .8zm6-2.7c-.1.6-.8 1.1-2 1.6v-4c.8-.3 1.5-.7 2-1.1V13zM21.1 4h1.8C33.4 4.2 42 6.1 42 8c0 2-9 3.9-20.1 4h-.4C10.3 12 1 10 1 8s9-4 20.1-4zM3 14.6c-1.3-.5-2-1.1-2-1.6V9.6c.5.4 1.2.7 2 1.1v3.9zm1 .4v-4c.9.3 1.9.5 3 .8v4c-1.1-.3-2.2-.5-3-.8zm1.9 8.5c2.6 2.1 10.3 3.4 19.7 3.5h.9c6 0 11.5-.5 15.3-1.4.2.1.2.3.2.4 0 1.9-8.6 3.8-19.2 4H21c-11-.1-20-2-20-4 0-.8 1.8-1.7 4.9-2.5zM42 27.6v3.5c-.1.5-.8 1.1-2 1.6v-4c.8-.4 1.5-.7 2-1.1zM39 29v4c-.8.3-1.9.5-3 .8v-4c1.1-.3 2.1-.5 3-.8zm-4 1v4c-.9.2-1.9.3-3 .5v-4c1.1-.2 2.1-.4 3-.5zm-4 .5v4c-1.3.1-2.6.3-4 .3v-4c1.4 0 2.7-.1 4-.3zm-5 .4v4c-1.3.1-2.6.1-4 .1v-4c1.4 0 2.7 0 4-.1zm-9 0c.9 0 1.8.1 2.7.1H21v4c-1.4 0-2.7 0-4-.1v-4zm-5-.4c1.3.1 2.6.2 4 .3v4c-1.4-.1-2.7-.2-4-.3v-4zM8 30c.9.2 1.9.3 3 .5v4c-1.1-.1-2.1-.3-3-.4V30zm-5 2.6c-1.3-.5-2-1.1-2-1.6v-3.4c.5.4 1.2.7 2 1.1v3.9zm1 .4v-4c.9.3 1.9.5 3 .8v4c-1.1-.3-2.2-.5-3-.8zm4 8.6c-1.3-.5-2-1.1-2-1.6v-3.4c.5.4 1.2.7 2 1.1v3.9zm4 1.1c-1.1-.2-2.2-.5-3-.8v-4c.9.3 1.9.5 3 .8v4zm4 .7c-1.1-.1-2.1-.3-3-.5v-4c.9.2 1.9.3 3 .5v4zm5 .4c-1.4-.1-2.7-.2-4-.3v-4c1.3.1 2.6.2 4 .3v4zm1 .1v-4c1.2.1 2.4.1 3.6.1h.4v4c-1.4 0-2.7 0-4-.1zm9 0c-1.3.1-2.6.1-4 .1v-4c1.4 0 2.7 0 4-.1v4zm5-.4c-1.3.1-2.6.3-4 .3v-4c1.4-.1 2.7-.2 4-.3v4zm4-.6c-.9.2-1.9.3-3 .5v-4c1.1-.1 2.1-.3 3-.5v4zm4-.9c-.8.3-1.9.5-3 .8v-4c1.1-.2 2.1-.5 3-.8v4zm3-2c-.1.6-.8 1.1-2 1.6v-4c.8-.3 1.5-.7 2-1.1V40zm0-5c0 2-9.3 4-20.5 4h-.4C15 38.9 6 37 6 35c0-.1 0-.3.2-.4l.3.1c3.7.8 8.7 1.3 14.2 1.4h.9c9.8 0 18-1.4 20.6-3.5h.1c3 .7 4.7 1.6 4.7 2.4zm-3-11c-.8.3-1.9.5-3 .8v-4c1.1-.2 2.1-.5 3-.8v4zm3-2c-.1.6-.8 1.1-2 1.6v-4c.8-.3 1.5-.7 2-1.1V22z"/>
  </symbol>
  <symbol viewBox="0 0 48 48" id="expert">
    <path d="M25 38.6c0 .5-.4 1-1 1s-1-.4-1-1 .4-1 1-1 1 .4 1 1zm-1-4c-.6 0-1 .4-1 1s.4 1 1 1 1-.4 1-1-.4-1-1-1zm0 5.9c-.6 0-1 .4-1 1s.4 1 1 1 1-.4 1-1-.4-1-1-1zM42 44c0 .3-.2.5-.5.5h-35c-.3 0-.5-.2-.5-.5 0-2.8 1.1-5.2 3.1-7.3 1-1 2.4-1.9 4.3-2.7l.4-.2c.7-.3 3.9-1.5 4.5-1.8.6-.3 1-.5 1.2-.8.3-.2.5-.5.6-.7-4.7-.7-7.2-2.8-7.3-6.1V14.3c0-1.8.5-4.2 1.8-6.2 1.8-3 4.8-4.7 9.2-4.7s7.4 1.7 9.2 4.7c1.1 1.9 1.7 4.1 1.8 5.9V24.2c0 3.5-2.5 5.6-7.3 6.3.2.2.4.5.6.7.2.2.6.5 1.2.8.7.3 3.8 1.5 4.5 1.8l.4.2c1.9.8 3.3 1.7 4.3 2.7 2.4 2.1 3.5 4.5 3.5 7.3zM20.8 29.7c.1-.2.2-.5.2-.7-3.2-1.5-6-5.1-6-9.7v-5.9c0-.5.7-.7.9-.2.7 1.2 1.4 2 1.8 2.3.4.2 1.1.4 2.2.4h.1v-3.4c0-.5.6-.7.9-.3v.1c.7 1.5 1.4 2.4 1.9 2.8.4.3 1 .5 1.9.7h.2v-3.4c0-.5.6-.7.9-.3 1.1 1.2 2.1 2 2.8 2.3.8.3 2 .5 3.5.5h.3c.3 0 .5.2.5.5v4c0 4.6-2.8 8.2-6 9.7 0 .2.1.5.2.7 4.5-.6 6.7-2.3 6.8-5.2V14.5c0-1.7-.5-3.9-1.6-5.7C30.8 6 28 4.5 24 4.5c-4.1 0-6.8 1.5-8.4 4.2-1 1.7-1.5 3.7-1.6 5.4V24.3c0 2.9 2.2 4.7 6.8 5.4zM32 19.3v-3.5h-.2c-1.3 0-2.4-.1-3.3-.4l-.2-.1c-.7-.3-1.4-.8-2.2-1.6l-.1-.1v2.7c0 .3-.2.5-.5.5h-.1c-1.5-.2-2.6-.6-3.2-1.1-.4-.3-.7-.7-1.1-1.4H21v2c0 .3-.2.5-.5.5-1.5 0-2.6-.2-3.3-.6-.3-.2-.7-.6-1.1-1L16 15v4.3c0 5.4 4.3 9.2 7.8 9.4h.2c3.6 0 8-3.9 8-9.4zm-5.9 10h-.2c-.6.2-1.3.3-1.9.3-.7 0-1.4-.1-2.1-.3-.1.6-.4 1.2-.8 1.8.9 1 1.8 1.5 2.9 1.5s2-.5 2.9-1.5c-.4-.6-.7-1.2-.8-1.8zM21 37.4c-1.8-.7-3.3-1.8-4.2-3.3l-.2-.3c-1 .4-2 .8-2.3.9-2 .8-3.4 1.7-4.4 2.7-1.7 1.7-2.7 3.7-2.8 5.9v.2h6v-4.4c0-.3.2-.5.5-.5.2 0 .5.2.5.4v4.5h7v-6.1zm5.3-.8c1.8-.6 3.2-1.6 4.2-3.1-.4-.2-.8-.3-1.1-.4l-.2-.1c-.7-.3-1.2-.6-1.5-.9l-.1-.1c-1 1.1-2.2 1.7-3.5 1.7-1.3 0-2.5-.6-3.5-1.7h-.2c-.3.3-.8.6-1.5.9l-.3.1c-.3.1-.6.3-1.1.4.9 1.5 2.3 2.5 4.1 3.1.2.1.3.2.3.4v6.5h4V37c.1-.1.2-.3.4-.4zM41 43.5v-.2c-.2-2.2-1.1-4.2-2.8-5.9-1-1-2.4-1.8-4.4-2.7-.3-.1-1.3-.5-2.3-.9-.9 1.6-2.3 2.7-4.1 3.4l-.4.2v6.1h7v-4.4c0-.3.2-.5.5-.5.2 0 .5.2.5.4v4.5h6zM20 17.8c-.6 0-1 .4-1 1s.4 1 1 1 1-.4 1-1-.4-1-1-1zm-4.3-6c.3.1.5-.1.6-.3.2-.6.4-1.2.7-1.8.1-.2.1-.5-.2-.7-.2-.1-.5-.1-.7.2-.4.6-.6 1.3-.8 2 0 .3.2.6.4.6zm3-3.9c1.3-.9 3-1.4 5.3-1.4.3 0 .5-.2.5-.5s-.2-.5-.5-.5c-2.5 0-4.4.6-5.9 1.6-.2.2-.3.5-.1.7.2.2.5.2.7.1zm7.9 15.9c-.3 0-.5.1-.6.4-.3 1.1-.9 1.6-2 1.6s-1.7-.5-2-1.6c-.1-.3-.3-.4-.6-.4-.3.1-.4.3-.4.6.4 1.5 1.4 2.4 3 2.4s2.6-.8 3-2.4c.1-.3-.1-.6-.4-.6zm1.4-6c-.6 0-1 .4-1 1s.4 1 1 1 1-.4 1-1-.4-1-1-1z"/>
  </symbol>
  <symbol viewBox="0 0 48 48" id="15-years">
    <path d="M18.8 22h-2.4v-1.7h4.4v11.2h-2.1V22zm-4.2 18.1c.3-.4.5-.9.6-1.5.1-.5.2-1.2.2-2v-.3l.1-1.4h2.6v5.6h1.6v-6.9h-5.6l-.1 2.7c0 .7-.1 1.2-.1 1.6 0 .4-.2.7-.3.9-.2.3-.4.4-.7.4H12.6l-.1 1.4c.4.1.7.1.9.1.5-.1.9-.2 1.2-.6zM29 34.9h2.4v5.6H33v-5.6h2.4v-1.4H29v1.4zM44 9v34c0 1.3-1 2.4-2.3 2.5H6.5c-1.3 0-2.4-1-2.5-2.3V9c0-1.3 1-2.4 2.3-2.5H12v-2c0-1.1.8-1.9 1.8-2h.2c1.1 0 2 .9 2 2v2h16v-2c0-1.1.8-1.9 1.8-2h.2c1.1 0 2 .9 2 2v2h5.5c1.3 0 2.4 1 2.5 2.3V9zm-11 .5c0 .6.4 1 1 1s1-.4 1-1v-5c0-.6-.4-1-1-1s-1 .4-1 1v5zm-1 0c-.6.3-1 .8-1 1.5 0 .8.6 1.4 1.4 1.5h3.1c.8 0 1.5-.7 1.5-1.5 0-.7-.4-1.2-1-1.4v.1c-.1 1-.9 1.9-2 1.9-1.1-.1-2-1-2-2.1zm-19 0c0 .6.4 1 1 1s1-.4 1-1v-5c0-.6-.4-1-1-1s-1 .4-1 1v5zm-1 0c-.6.3-1 .8-1 1.5 0 .8.6 1.4 1.4 1.5h3.1c.8 0 1.5-.7 1.5-1.5 0-.7-.4-1.2-1-1.4v.1c-.1 1-.9 1.9-2 1.9-1.1-.1-2-1-2-2.1zm31 7H5V43c0 .8.6 1.4 1.4 1.5h35.1c.8 0 1.4-.6 1.5-1.4V16.5zM43 9c0-.8-.6-1.4-1.4-1.5H36v1c1.1.2 2 1.2 2 2.5s-1 2.4-2.3 2.5h-3.2c-1.4 0-2.5-1.1-2.5-2.5 0-1.2.9-2.2 2-2.5v-1H16v1c1.1.2 2 1.2 2 2.5s-1 2.4-2.3 2.5h-3.2c-1.4 0-2.5-1.1-2.5-2.5 0-1.2.9-2.2 2-2.5v-1H6.5c-.8 0-1.4.6-1.5 1.4v6.6h38V9zM28.5 29.4c-.4.3-1 .5-1.7.5-.6 0-1.2-.1-1.8-.3-.5-.2-.9-.4-1.3-.6l-.2-.2-.9 1.6c.5.4 1.1.7 1.9 1 .7.2 1.5.3 2.3.3 1 0 1.8-.2 2.4-.5s1.2-.8 1.5-1.3c.3-.5.5-1.2.5-1.8 0-1.1-.4-1.9-1.1-2.5-.7-.6-1.8-.9-3.2-.9H25.5l.2-2.6h4.8v-1.7H24l-.6 6.1h2.7c1.1 0 1.9.1 2.3.4.5.3.7.7.7 1.3 0 .5-.2.9-.6 1.2zm-6.6 9.5c-.3-.5-.5-1.2-.5-1.8 0-.7.2-1.3.5-1.8s.7-1 1.3-1.3c.5-.3 1.2-.5 1.8-.5.7 0 1.3.2 1.8.4.5.3.9.7 1.2 1.3.3.5.4 1.2.4 1.9v.5H23v.2c.1.4.4.8.7 1 .4.3.9.4 1.5.4.8 0 1.4-.3 1.9-.8l.9 1-.1.2c-.3.3-.6.5-1 .7-.5.2-1 .3-1.6.3-.8 0-1.4-.2-2-.5-.7-.3-1.1-.7-1.4-1.2zm1.1-2.4h3.9c-.1-.5-.3-.9-.6-1.2-.4-.3-.8-.5-1.3-.5s-1 .2-1.3.5c-.4.2-.6.7-.7 1.2z"/>
  </symbol>
  <symbol viewBox="0 0 48 48" id="24-7">
    <path d="M26.9 25.3h-1.5l4.3-12.2h1.5l-4.3 12.2zM19.5 35h9.1c.2 0 .4-.2.4-.5s-.2-.5-.5-.5h-9.1c-.2 0-.4.2-.4.5s.2.5.5.5zm-6.8-18.8c.6 0 1 .1 1.3.3.3.2.4.6.4 1 0 .3-.1.6-.2.9-.1.2-.3.5-.7.9l-.2.2-3.6 3.4V24h6.7v-1.4h-4.3l2.4-2.3c.6-.6 1-1 1.2-1.5s.3-.9.3-1.4c0-.8-.3-1.4-.9-1.9-.6-.5-1.4-.7-2.4-.7-.7 0-1.4.1-2 .4-.5.2-1 .5-1.3.9l-.1.2 1.2.9c.6-.6 1.3-1 2.2-1zM46 6.5v31c0 .2-.2.5-.4.5H31v3h4.5c.3 0 .5.2.5.5 0 .2-.2.5-.4.5H12.5c-.3 0-.5-.2-.5-.5 0-.2.2-.5.4-.5H17v-3H2.5c-.2 0-.5-.2-.5-.4V6.5c0-.2.2-.5.4-.5h43.1c.2 0 .5.2.5.5zM30 38H18v3h12v-3zm15-6H3v5h42v-5zm0-25H3v24h42V7zM22.1 24h1.6v-2.1h1.6v-1.4h-1.6v-1.8h-1.6v1.8h-3l4.2-5.6h-1.8L17 20.8V22h5v2zm9.1-6.1h1.6v-1.5h3.6L32.9 24h1.8l3.5-8v-1.1h-7.1v3z"/>
  </symbol>
  <symbol viewBox="0 0 48 48" id="hotels-2">
    <path d="M22.5 20h-4c-.3 0-.5.2-.5.5v2c0 .3.2.5.5.5h4c.3 0 .5-.2.5-.5v-2c0-.3-.2-.5-.5-.5zm-.5 2h-3v-1h3v1zm.5-6h-4c-.3 0-.5.2-.5.5v2c0 .3.2.5.5.5h4c.3 0 .5-.2.5-.5v-2c0-.3-.2-.5-.5-.5zm-.5 2h-3v-1h3v1zm12.5-3h2c.3 0 .5-.2.5-.5v-2c0-.3-.2-.5-.5-.5h-2c-.3 0-.5.2-.5.5v2c0 .3.2.5.5.5zm.5-2h1v1h-1v-1zm-.5 6h2c.3 0 .5-.2.5-.5v-2c0-.3-.2-.5-.5-.5h-2c-.3 0-.5.2-.5.5v2c0 .3.2.5.5.5zm.5-2h1v1h-1v-1zm-12.5 7h-4c-.3 0-.5.2-.5.5v2c0 .3.2.5.5.5h4c.3 0 .5-.2.5-.5v-2c0-.3-.2-.5-.5-.5zm-.5 2h-3v-1h3v1zm.5 6h-4c-.3 0-.5.2-.5.5v2c0 .3.2.5.5.5h4c.3 0 .5-.2.5-.5v-2c0-.3-.2-.5-.5-.5zm-.5 2h-3v-1h3v1zm.5-6h-4c-.3 0-.5.2-.5.5v2c0 .3.2.5.5.5h4c.3 0 .5-.2.5-.5v-2c0-.3-.2-.5-.5-.5zm-.5 2h-3v-1h3v1zm7.5-6h-4c-.3 0-.5.2-.5.5v2c0 .3.2.5.5.5h4c.3 0 .5-.2.5-.5v-2c0-.3-.2-.5-.5-.5zm-.5 2h-3v-1h3v1zm.5-6h-4c-.3 0-.5.2-.5.5v2c0 .3.2.5.5.5h4c.3 0 .5-.2.5-.5v-2c0-.3-.2-.5-.5-.5zm-.5 2h-3v-1h3v1zm.5-10h-4c-.3 0-.5.2-.5.5v2c0 .3.2.5.5.5h4c.3 0 .5-.2.5-.5v-2c0-.3-.2-.5-.5-.5zm-.5 2h-3v-1h3v1zm-6.5-2h-4c-.3 0-.5.2-.5.5v2c0 .3.2.5.5.5h4c.3 0 .5-.2.5-.5v-2c0-.3-.2-.5-.5-.5zm-.5 2h-3v-1h3v1zm7.5 18h-4c-.3 0-.5.2-.5.5v2c0 .3.2.5.5.5h4c.3 0 .5-.2.5-.5v-2c0-.3-.2-.5-.5-.5zm-.5 2h-3v-1h3v1zm.5-6h-4c-.3 0-.5.2-.5.5v2c0 .3.2.5.5.5h4c.3 0 .5-.2.5-.5v-2c0-.3-.2-.5-.5-.5zm-.5 2h-3v-1h3v1zm.5-22h-11c-.3 0-.5.2-.5.5v2c0 .3.2.5.5.5h11c.3 0 .5-.2.5-.5v-2c0-.3-.2-.5-.5-.5zm-.5 2H19V9h10v1zm-17.5 9h2c.3 0 .5-.2.5-.5v-2c0-.3-.2-.5-.5-.5h-2c-.3 0-.5.2-.5.5v2c0 .3.2.5.5.5zm.5-2h1v1h-1v-1zm22.5 18h2c.3 0 .5-.2.5-.5v-2c0-.3-.2-.5-.5-.5h-2c-.3 0-.5.2-.5.5v2c0 .3.2.5.5.5zm.5-2h1v1h-1v-1zM11.5 23h2c.3 0 .5-.2.5-.5v-2c0-.3-.2-.5-.5-.5h-2c-.3 0-.5.2-.5.5v2c0 .3.2.5.5.5zm.5-2h1v1h-1v-1zm35.6 8h-2.9l2.1-2.1.1-.1c.1-.2.1-.5-.1-.6-.2-.2-.5-.2-.7 0L44 28.3v-2.8c0-.3-.2-.5-.5-.5-.2 0-.5.2-.5.4v2.9l-2.1-2.1c-.2-.2-.5-.2-.7 0-.2.2-.2.4-.1.6l.1.1 2.1 2.1h-2.8c-.2 0-.5.2-.5.4v.1c0 .2.2.5.4.5h2.9l-2.1 2.1-.1.1c-.1.2-.1.5.1.6.2.2.5.2.7 0l2.1-2.1V42h-4V10h1.6c.2 0 .4-.2.4-.5s-.2-.5-.5-.5H33V6.5c0-.8-.7-1.5-1.5-1.5H16.4c-.8.1-1.4.7-1.4 1.5V9H7.4c-.2 0-.4.3-.4.5 0 .3.2.5.5.5H9v32H5V30.7l2.1 2.1c.2.2.5.2.7 0 .2-.1.2-.4.1-.6l-.1-.1L5.7 30h2.8c.3 0 .5-.2.5-.5 0-.2-.2-.5-.4-.5H5.7l2.1-2.1.1-.1c.1-.2.1-.5 0-.7-.2-.2-.5-.2-.7 0L5 28.3v-2.8c0-.3-.2-.5-.5-.5-.2 0-.5.2-.5.4v2.9l-2.1-2.1c-.2-.2-.5-.2-.7 0-.2.1-.2.4-.1.6l.1.1L3.3 29H.5c-.2 0-.5.2-.5.4v.1c0 .2.2.5.4.5h2.9l-2.1 2.1-.1.1c-.1.2-.1.5 0 .7.2.2.5.2.7 0L4 30.7V42H1.4c-.2 0-.4.3-.4.5 0 .3.2.5.5.5h45.1c.2 0 .4-.2.4-.5s-.2-.5-.5-.5H44V30.7l2.1 2.1c.2.2.5.2.7 0 .2-.2.2-.4.1-.6l-.1-.1-2.1-2.1h2.8c.3 0 .5-.2.5-.5 0-.2-.2-.5-.4-.5zM15 42h-5V10h5v32zm13 0h-8v-4.5c0-.3.2-.5.5-.5h7.1c.2 0 .4.2.4.5V42zm4 0h-3v-4.5c0-.8-.7-1.5-1.5-1.5h-7.1c-.8.1-1.4.7-1.4 1.5V42h-3V6.5c0-.3.2-.5.5-.5h15.1c.2 0 .4.3.4.5V42zm6 0h-5V10h5v32zM11.5 27h2c.3 0 .5-.2.5-.5v-2c0-.3-.2-.5-.5-.5h-2c-.3 0-.5.2-.5.5v2c0 .3.2.5.5.5zm.5-2h1v1h-1v-1zm-.5-10h2c.3 0 .5-.2.5-.5v-2c0-.3-.2-.5-.5-.5h-2c-.3 0-.5.2-.5.5v2c0 .3.2.5.5.5zm.5-2h1v1h-1v-1zm22.5 26h2c.3 0 .5-.2.5-.5v-2c0-.3-.2-.5-.5-.5h-2c-.3 0-.5.2-.5.5v2c0 .3.2.5.5.5zm.5-2h1v1h-1v-1zm-23.5 2h2c.3 0 .5-.2.5-.5v-2c0-.3-.2-.5-.5-.5h-2c-.3 0-.5.2-.5.5v2c0 .3.2.5.5.5zm.5-2h1v1h-1v-1zm22.5-14h2c.3 0 .5-.2.5-.5v-2c0-.3-.2-.5-.5-.5h-2c-.3 0-.5.2-.5.5v2c0 .3.2.5.5.5zm.5-2h1v1h-1v-1zm-.5 6h2c.3 0 .5-.2.5-.5v-2c0-.3-.2-.5-.5-.5h-2c-.3 0-.5.2-.5.5v2c0 .3.2.5.5.5zm.5-2h1v1h-1v-1zm-.5 6h2c.3 0 .5-.2.5-.5v-2c0-.3-.2-.5-.5-.5h-2c-.3 0-.5.2-.5.5v2c0 .3.2.5.5.5zm.5-2h1v1h-1v-1zm-5.5-13h-4c-.3 0-.5.2-.5.5v2c0 .3.2.5.5.5h4c.3 0 .5-.2.5-.5v-2c0-.3-.2-.5-.5-.5zm-.5 2h-3v-1h3v1zM11.5 35h2c.3 0 .5-.2.5-.5v-2c0-.3-.2-.5-.5-.5h-2c-.3 0-.5.2-.5.5v2c0 .3.2.5.5.5zm.5-2h1v1h-1v-1zm-.5-2h2c.3 0 .5-.2.5-.5v-2c0-.3-.2-.5-.5-.5h-2c-.3 0-.5.2-.5.5v2c0 .3.2.5.5.5zm.5-2h1v1h-1v-1z"/>
  </symbol>
  <symbol viewBox="0 0 48 48" id="search">
    <path d="M18 5C10.8 5 5 10.8 5 18s5.8 13 13 13 13-5.8 13-13S25.2 5 18 5zm0 25c-6.6 0-12-5.4-12-12S11.4 6 18 6s12 5.4 12 12-5.4 12-12 12zm.5-22.5c0 .3-.2.5-.5.5-2.9 0-5.6 1.3-7.5 3.4-.2.2-.5.2-.7 0-.2-.2-.2-.5 0-.7 2-2.3 5-3.7 8.2-3.7.3 0 .5.2.5.5zm26.4 32.7l-.4-.4c.3-.9.1-1.9-.6-2.6L35.7 29c-.7-.7-1.7-.9-2.6-.6l-1.8-1.8c1.6-2.5 2.6-5.5 2.6-8.7 0-8.8-7.2-16-16-16S2 9.2 2 18s7.2 16 16 16c3.7 0 7.2-1.3 9.9-3.4l1.6 1.6c-.3.9-.1 1.9.6 2.6l8.2 8.2c.7.7 1.7.9 2.6.6l.4.4.1.1c1 .9 2.5.8 3.4-.1l.2-.2.1-.1c.8-1 .8-2.5-.2-3.5zM18 33C9.7 33 3 26.3 3 18S9.7 3 18 3s15 6.7 15 15-6.7 15-15 15zm12.1-1.8l-1.4-1.3c.8-.7 1.5-1.5 2.2-2.4l1.5 1.5-.1.1-2.2 2.1zm11 11l-.1.1c-.6.5-1.5.4-2-.1l-5.7-5.7 1.6-1.6.1-.1c.1-.2.1-.5-.1-.6-.2-.2-.5-.2-.7 0l-1.6 1.6-1.3-1.3 1.6-1.6.1-.1c.1-.2.1-.5-.1-.6-.2-.2-.5-.2-.7 0l-1.6 1.6c-.3-.6-.3-1.3.2-1.8l2.2-2.2c.5-.5 1.2-.6 1.8-.2l-.6.6-.1.1c-.1.2-.1.5.1.6.2.2.5.2.7 0l.6-.6 1.3 1.3-.6.6-.1.1c-.1.2-.1.5.1.6.2.2.5.2.7 0l.6-.6 5.7 5.7c.6.6.6 1.5 0 2.1l-2.1 2.1zm3.1.9l-.2.2-.1.1c-.6.5-1.5.4-2-.1l-.2-.3.1-.1 2.2-2.2.1-.1.2.2.1.1c.4.7.4 1.6-.2 2.2zM24.3 9c.2.2.3.5.1.7-.1.2-.4.3-.6.1-1.1-.8-2.4-1.4-3.8-1.6-.3-.1-.4-.3-.4-.6 0-.2.2-.4.4-.4h.2c1.5.3 2.9.9 4.1 1.8z"/>
  </symbol>
</svg>
