<svg xmlns="http://www.w3.org/2000/svg" xmlns:xlink="http://www.w3.org/1999/xlink" width="0" height="0" fill="#000" preserveAspectRatio="xMidYMid meet">
<symbol viewBox="0 0 16 16" id="web">
        <path d="M8 0C3.6 0 0 3.6 0 8s3.6 8 8 8 8-3.6 8-8-3.6-8-8-8zm.5 5.3c.8 0 1.6-.1 2.4-.2-.1.8-.2 1.6-.2 2.4H8.5V5.3zm0-1.1V1.1c1.1.1 2.1.4 3 1-.2.6-.4 1.3-.5 1.9-.8.1-1.6.2-2.5.2zm-1 0c-.9 0-1.7-.1-2.6-.2-.1-.6-.3-1.3-.5-1.9.9-.5 1.9-.9 3-1v3.1zm0 1.1v2.2H5.3c0-.8-.1-1.6-.2-2.4.8.1 1.6.2 2.4.2zM4.3 7.5H1.1c.1-1.1.4-2.1 1-3 .6.1 1.3.3 1.9.4.1.9.2 1.7.3 2.6zm0 1c0 .8-.1 1.7-.3 2.6-.6.1-1.3.3-1.9.5-.5-.9-.9-1.9-1-3h3.2zm1 0h2.1v2.2c-.8 0-1.6.1-2.4.2.2-.8.3-1.6.3-2.4zm2.2 3.3v3.1c-1.1-.1-2.1-.4-3-1 .2-.6.4-1.3.5-1.9.8-.1 1.6-.2 2.5-.2zm1 0c.9 0 1.7.1 2.6.2.1.6.3 1.3.5 1.9-.9.5-1.9.9-3 1v-3.1zm0-1.1V8.5h2.1c0 .8.1 1.6.2 2.4-.7-.1-1.5-.2-2.3-.2zm3.2-2.2h3.2c-.1 1.1-.4 2.1-1 3-.6-.2-1.3-.4-1.9-.5-.1-.8-.2-1.6-.3-2.5zm0-1c0-.8.1-1.7.3-2.6.6-.1 1.3-.3 1.9-.5.5.9.9 1.9 1 3h-3.2zm1.6-4c-.3.1-.7.2-1 .3.1-.3.2-.7.3-1l.7.7zm-9.8-.8c.1.3.2.7.3 1-.3-.1-.7-.2-1-.3l.7-.7zm-.8 9.8c.3-.1.7-.2 1-.3-.1.3-.2.7-.3 1l-.7-.7zm9.8.8c-.1-.3-.2-.7-.3-1 .3.1.7.2 1 .3l-.7.7z"/>
    </symbol>
    <symbol viewBox="0 0 16 16" id="address">
        <path d="M13.3 7.2c-.1.4-.3.7-.4 1.1-.1.2-.3.3-.5.3h-.2c-.2-.2-.3-.5-.2-.8.1-.3.3-.6.4-1 .1-.3.4-.4.6-.3.3.1.4.4.3.7zM8 3c1.2 0 2.2.9 2.2 2S9.2 7 8 7c-1.2 0-2.2-.9-2.2-2s1-2 2.2-2zm0 1c-.7 0-1.2.4-1.2 1S7.3 6 8 6s1.2-.4 1.2-1S8.7 4 8 4zm2.4 8.1c.5-.6 1-1.2 1.4-1.8.2-.2.1-.5-.1-.7-.2-.2-.5-.1-.7.1-1.2 1.7-2.5 3-3 3.3-.9-.5-4.7-4.5-4.7-8 0-2.2 2.1-4 4.7-4s4.7 1.8 4.7 4c0 .3.2.5.5.5s.5-.2.5-.5c0-2.8-2.6-5-5.7-5S2.3 2.2 2.3 5c0 2.5 1.7 5.3 3.3 7.1-.4 0-.8.1-1.2.1-.3 0-.5.3-.4.5 0 .3.2.4.5.4h.1c.6-.1 1.2-.1 1.8-.1h.2c.6.6 1.2 1 1.5 1 .3 0 .9-.4 1.5-1h.2c3.3.2 4.8.7 5.2 1-.5.4-2.8 1-6.9 1-4.1 0-6.4-.6-6.9-1 .1-.1.5-.3 1.3-.5.3-.1.4-.3.4-.6-.1-.3-.3-.4-.6-.4-1.1.3-2.3.7-2.3 1.5 0 1.9 7.2 2 8 2s8-.1 8-2c0-1.3-3.3-1.8-5.6-1.9z"/>
    </symbol>
    <symbol viewBox="0 0 16 16" id="viber">
        <path fill="#7143b9" d="M4.85 13.333c.004-.381.011-.762.015-1.143 0-.089.011-.078-.075-.115-.479-.189-.924-.425-1.317-.758-.415-.351-.741-.765-.98-1.25-.229-.465-.356-.961-.427-1.471-.026-.2-.041-.399-.041-.599 0-.189-.03-.377-.034-.566-.004-.133-.007-.27-.004-.403.004-.274-.022-.547-.011-.821.022-.621.134-1.227.381-1.804.352-.821.928-1.442 1.714-1.878.591-.325 1.22-.532 1.886-.64.412-.067.823-.104 1.239-.115.494-.014.988-.011 1.486-.003.636.007 1.265.067 1.882.214.588.137 1.141.355 1.65.677.617.388 1.089.902 1.407 1.557.198.403.318.828.397 1.268.056.325.079.651.075.98-.003.347-.011.695-.033 1.039-.015.237-.015.473-.026.71-.041.654-.176 1.287-.468 1.878-.359.725-.902 1.272-1.613 1.668-.588.325-1.216.529-1.875.64-.516.085-1.04.126-1.564.126-.322 0-.644-.004-.966 0-.165 0-.329.004-.494-.015-.052-.004-.09.011-.123.052-.258.296-.516.592-.778.887-.322.366-.644.732-.962 1.094-.034.037-.071.074-.112.1-.101.067-.206.03-.232-.089-.007-.026-.004-.059-.004-.085-.004-.377.003-.758.007-1.135z"/>
        <path fill="#FFF" d="M4.337 5.146c.011-.451.221-.791.599-1.035.157-.104.329-.185.516-.222.195-.041.382-.015.546.107.109.078.198.174.288.27.299.325.554.677.76 1.069.034.067.064.137.087.211.064.211.015.396-.127.558-.053.059-.113.111-.176.159-.06.041-.12.085-.176.137-.131.122-.169.27-.128.44.015.07.041.137.067.2.153.333.359.632.625.891.158.151.326.284.513.399.18.111.359.214.561.285.188.066.33.026.454-.13.052-.067.097-.137.157-.2.112-.118.24-.207.4-.244.176-.04.345-.011.505.06.153.063.288.159.423.251.269.185.531.381.786.584.067.055.127.118.183.189.131.17.157.359.101.558-.052.192-.15.359-.277.51-.221.266-.49.466-.823.573-.09.03-.18.048-.273.055-.12.011-.232-.03-.344-.063-.109-.03-.21-.081-.311-.126-.505-.222-.992-.484-1.452-.788-.692-.455-1.31-.987-1.849-1.612-.4-.466-.748-.969-1.044-1.509a8.59 8.59 0 0 1-.501-1.063c-.056-.159-.09-.362-.09-.514zm7.208 1.505c-.004.122.011.211 0 .296-.026.211-.213.322-.412.24-.12-.048-.157-.152-.168-.266-.011-.14-.023-.281-.045-.421-.075-.433-.195-.85-.43-1.228-.176-.281-.404-.51-.689-.691-.329-.211-.696-.333-1.078-.418-.164-.037-.333-.067-.501-.081a.445.445 0 0 1-.116-.026c-.116-.041-.176-.126-.169-.248.015-.214.138-.299.307-.299.64-.011 1.224.155 1.759.499.314.203.595.444.827.736.449.565.711 1.208.715 1.907zm-.969-.066c-.004.063.007.144-.011.226-.026.137-.123.214-.269.218-.153.004-.251-.063-.284-.2-.016-.052-.016-.107-.024-.163a2.5838 2.5838 0 0 0-.183-.725c-.135-.332-.378-.558-.711-.698-.232-.097-.472-.167-.719-.204-.067-.011-.131-.026-.191-.055a.2097.2097 0 0 1-.075-.059c-.082-.1-.079-.207-.034-.318.038-.1.117-.156.225-.167.09-.011.18.004.27.019.251.037.494.1.726.207.296.141.55.336.767.581.183.211.322.444.412.706.063.203.097.406.101.632zm-.932-.071c0 .074 0 .148-.026.218-.038.108-.116.171-.229.185-.116.015-.209-.025-.273-.122-.034-.048-.049-.099-.056-.155-.015-.092-.026-.188-.064-.273-.078-.189-.228-.3-.423-.352-.037-.011-.078-.018-.116-.026l-.094-.022c-.138-.041-.21-.126-.21-.244 0-.141.079-.255.21-.292.127-.037.258-.03.385.004.304.085.529.273.705.525.116.163.191.347.191.554z"/>
    </symbol>
    <symbol viewBox="0 0 24 24" id="phone">
        <path d="M16.425 19.966c-.208 0-.416-.025-.617-.077-3.088-.785-5.641-2.171-7.587-4.118-1.947-1.945-3.332-4.498-4.118-7.586a2.513 2.513 0 01.654-2.386l1.342-1.341c.567-.567 1.556-.566 2.122 0l2.122 2.122c.283.283.439.66.439 1.06 0 .401-.156.778-.439 1.061L9.207 9.836a15.94 15.94 0 002.197 2.754 15.905 15.905 0 002.752 2.195l1.136-1.136c.57-.568 1.553-.565 2.121.001l2.122 2.121a1.501 1.501 0 010 2.121l-1.342 1.343c-.472.472-1.1.731-1.768.731zM7.16 5.018a.501.501 0 00-.354.146L5.465 6.506a1.51 1.51 0 00-.394 1.432c.741 2.912 2.039 5.309 3.856 7.126 1.818 1.818 4.215 3.116 7.126 3.856a1.52 1.52 0 001.432-.393l1.342-1.343a.5.5 0 000-.707l-2.122-2.121a.514.514 0 00-.707 0l-1.414 1.414a.501.501 0 01-.609.076 16.978 16.978 0 01-3.279-2.55 16.96 16.96 0 01-2.551-3.28.5.5 0 01.076-.61l1.414-1.413a.497.497 0 000-.707L7.513 5.165a.492.492 0 00-.353-.147z"/>
    </symbol>
    <symbol viewBox="0 0 24 24" id="phone2">
    <path class="st0" d="M11 2h-1c-.6 0-1 .4-1 1s.4 1 1 1h1c.6 0 1-.4 1-1s-.4-1-1-1zm-1 1v-.5.5z"/><path class="st0" d="M20 4.5v15c0 2.5-2 4.5-4.5 4.5h-7C6 24 4 22 4 19.5v-11c0-.3.2-.5.5-.5s.5.2.5.5v11C5 21.4 6.6 23 8.5 23h7c1.9 0 3.5-1.6 3.5-3.5v-15C19 2.6 17.4 1 15.5 1h-7C6.6 1 5 2.6 5 4.5v2c0 .3-.2.5-.5.5S4 6.8 4 6.5v-2C4 2 6 0 8.5 0h7C18 0 20 2 20 4.5zM12 20c.6 0 1 .4 1 1s-.4 1-1 1-1-.4-1-1 .4-1 1-1zm0 1v-.5.5zm3-18.5c0-.3-.2-.5-.5-.5s-.5.2-.5.5.2.5.5.5.5-.2.5-.5z"/><path class="st0" d="M19.5 19h-2c-.3 0-.5-.2-.5-.5s.2-.5.5-.5h2c.3 0 .5.2.5.5s-.2.5-.5.5zm-4 0h-11c-.3 0-.5-.2-.5-.5s.2-.5.5-.5h11c.3 0 .5.2.5.5s-.2.5-.5.5zm4-14h-15c-.3 0-.5-.2-.5-.5s.2-.5.5-.5h15c.3 0 .5.2.5.5s-.2.5-.5.5z"/>
    </symbol>>
    <symbol viewBox="0 0 16 16" id="phone3">
        <path d="M13 4v1c0 .3-.2.5-.5.5S12 5.3 12 5V4c0-.3.2-.5.5-.5s.5.2.5.5zm0-3.5V2c0 .3-.2.5-.5.5S12 2.3 12 2V1H4v8h8V7c0-.3.2-.5.5-.5s.5.2.5.5v8.5c0 .3-.2.5-.5.5h-9c-.3 0-.5-.2-.5-.5V.5c0-.3.2-.5.5-.5h9c.3 0 .5.2.5.5zM4 10v1h.5c.3 0 .5.2.5.5s-.2.5-.5.5H4v1h.5c.3 0 .5.2.5.5s-.2.5-.5.5H4v1h8v-1h-.5c-.3 0-.5-.2-.5-.5s.2-.5.5-.5h.5v-1h-.5c-.3 0-.5-.2-.5-.5s.2-.5.5-.5h.5v-1H4zm2.5 4h3c.3 0 .5-.2.5-.5s-.2-.5-.5-.5h-3c-.3 0-.5.2-.5.5s.2.5.5.5zm0-2h3c.3 0 .5-.2.5-.5s-.2-.5-.5-.5h-3c-.3 0-.5.2-.5.5s.2.5.5.5z" />
    </symbol>
    <symbol viewBox="0 0 24 24" id="email">
        <path d="M12 4s-.001 0 0 0c-2.138 0-4.147.833-5.658 2.344S4 9.864 4 12.001s.833 4.146 2.344 5.656S9.863 20 11.999 20h.002a7.989 7.989 0 004.251-1.223.5.5 0 10-.531-.847 6.992 6.992 0 01-3.72 1.07h-.002c-1.869 0-3.626-.728-4.948-2.05S5 13.87 5 12.001c0-1.87.728-3.628 2.05-4.95A6.953 6.953 0 0111.999 5H12c3.858 0 6.999 3.14 7 6.999 0 .692-.313 2-1.5 2s-1.5-1.308-1.5-2v-2.5a.5.5 0 00-.5-.5.493.493 0 00-.481.405A3.974 3.974 0 0012 7.999c-2.206 0-4 1.794-4 4s1.794 4 4 4c1.529 0 2.844-.871 3.517-2.134.416.665 1.075 1.134 1.983 1.134 1.642 0 2.5-1.509 2.5-3C19.999 7.588 16.41 4 12 4zm0 10.999c-1.654 0-3-1.346-3-3s1.346-3 3-3 3 1.346 3 3-1.346 3-3 3z"/>
    </symbol>
            <symbol viewBox="0 0 16 16" id="email2">
        <path d="M6.3 12.5c0 .3-.2.5-.5.5h-1c-.3 0-.5-.2-.5-.5s.2-.5.5-.5h1.1c.2 0 .4.2.4.5zm9.2-9.1v-.1-.1l-.1-.1-.1-.1h-.1H1 .9.8.7s-.1 0-.1.1v9.3c-.1.4.1.6.4.6h1.6c.3 0 .5-.2.5-.5s-.2-.5-.5-.5H1.5V4.5l6.2 4.4c.1.1.2.1.3.1s.2 0 .3-.1l2.2-1.6c.2-.2.3-.5.1-.7-.2-.2-.5-.3-.7-.1L8 7.9 2.6 4h10.9l-1.4 1c-.2.2-.3.5-.1.7.1.1.3.2.4.2.1 0 .2 0 .3-.1l1.9-1.3V12H8c-.3 0-.5.2-.5.5s.2.5.5.5h7c.3 0 .5-.2.5-.5V3.4c0 .1 0 .1 0 0z"/>
    </symbol
</svg>