<svg xmlns="http://www.w3.org/2000/svg" xmlns:xlink="http://www.w3.org/1999/xlink" width="0" height="0" fill="#000">
    <symbol viewBox="0 0 24 24" id="culture">
        <path d="M23.5 18H22v-4.5c0-.28-.22-.5-.5-.5H20V8.5c0-.28-.22-.5-.5-.5H17V4.5c0-.28-.22-.5-.5-.5H15V.5c0-.28-.22-.5-.5-.5h-5c-.28 0-.5.22-.5.5V4H7.5c-.28 0-.5.22-.5.5V8H4.5c-.28 0-.5.22-.5.5V13H2.5c-.28 0-.5.22-.5.5V18H.5c-.28 0-.5.22-.5.5v5c0 .28.22.5.5.5h18c.28 0 .5-.22.5-.5s-.22-.5-.5-.5h-1.57l-.39-2.5a.505.505 0 00-.57-.42c-.27.04-.46.3-.42.57l.37 2.35H8.08l2.84-18h2.15l2.16 13.68c.04.27.3.46.57.42.15-.02.27-.12.35-.24.09.08.21.14.35.14H23v4h-2.5c-.28 0-.5.22-.5.5s.22.5.5.5h3c.28 0 .5-.22.5-.5v-5c0-.28-.22-.5-.5-.5zm-16-9h1.78l-.64 4.03A.32.32 0 008.5 13H5V9h2.5zm.34 9.14A.476.476 0 007.5 18h-1c-.28 0-.5.22-.5.5s.22.5.5.5h1c.08 0 .15-.02.21-.05L7.07 23H1v-4h3.5c.28 0 .5-.22.5-.5s-.22-.5-.5-.5H3v-4h5.49l-.65 4.14zM9.44 8H8V5h1.92l-.48 3zm1.06-4H10V1h4v3h-3.5zm4 1H16v3h-1.44l-.47-3h.41zm1.66 13.14L14.72 9H19v4h-1.5c-.28 0-.5.22-.5.5s.22.5.5.5H21v4h-4.5c-.13 0-.25.05-.34.14z"/>
    </symbol>
    <symbol viewBox="0 0 24 24" id="currency">
        <path d="M12 18c3.31 0 6-2.69 6-6s-2.69-6-6-6-6 2.69-6 6 2.69 6 6 6zm0-11c2.76 0 5 2.24 5 5s-2.24 5-5 5-5-2.24-5-5 2.24-5 5-5zm11-.5v-1c0-.28-.22-.5-.5-.5h-21c-.28 0-.5.22-.5.5v13c0    .28.22.5.5.5h21c.28 0 .5-.22.5-.5v-10c0-.28.22-.5.5-.5s.5.22.5.5v10c0 .83-.67 1.5-1.5 1.5h-21C.67 20 0 19.33 0 18.5v-13C0 4.67.67 4 1.5 4h21c.83 0 1.5.67 1.5 1.5v1c0    .28-.22.5-.5.5s-.5-.22-.5-.5zm-1 3c0 .28-.22.5-.5.5s-.5-.22-.5-.5V8h-.5c-.28 0-.5-.22-.5-.5V7h-2.5c-.28 0-.5-.22-.5-.5s.22-.5.5-.5h3c.28 0 .5.22.5.5V7h.5c.28 0 .5.22.5.5v2zm-5    8c0-.28.22-.5.5-.5H20v-.5c0-.28.22-.5.5-.5h.5v-1.5c0-.28.22-.5.5-.5s.5.22.5.5v2c0 .28-.22.5-.5.5H21v.5c0 .28-.22.5-.5.5h-3c-.28 0-.5-.22-.5-.5zm-14 0V17h-.5c-.28    0-.5-.22-.5-.5v-2c0-.28.22-.5.5-.5s.5.22.5.5V16h.5c.28 0 .5.22.5.5v.5h2.5c.28 0 .5.22.5.5s-.22.5-.5.5h-3c-.28 0-.5-.22-.5-.5zm-1-8v-2c0-.28.22-.5.5-.5H3v-.5c0-.28.22-.5.5-.5h3c.28 0    .5.22.5.5s-.22.5-.5.5H4v.5c0 .28-.22.5-.5.5H3v1.5c0 .28-.22.5-.5.5S2 9.78 2 9.5z"/>
    </symbol>
    <symbol viewBox="0 0 24 24" id="dost">
        <path d="M21.5 8c.28 0 .5-.22.5-.5V6h1.5c.28 0 .5-.22.5-.5v-1c0-.21-.13-.4-.34-.47L19.8 2.68a.51.51 0 00-.64.31c-.09.26.05.55.31.64L23 4.86V5H1v-.14l11-3.83 5.41 1.88c.27.09.55-.04.64-.31a.506.506 0 00-.31-.64L12.16.02a.469.469 0 00-.33 0l-11.5 4c-.2.08-.33.27-.33.48v1c0 .28.22.5.5.5H2v1.5c0 .28.22.5.5.5H4v1.5c0 .28.22.5.5.5s.5-.22.5-.5V8h2v11H5v-7.5c0-.28-.22-.5-.5-.5s-.5.22-.5.5V19H2.5c-.28 0-.5.22-.5.5V21H.5c-.28 0-.5.22-.5.5v2c0 .28.22.5.5.5h18c.28 0 .5-.22.5-.5s-.22-.5-.5-.5H1v-1h22v1h-2.5c-.28 0-.5.22-.5.5s.22.5.5.5h3c.28 0 .5-.22.5-.5v-2c0-.28-.22-.5-.5-.5H22v-1.5c0-.28-.22-.5-.5-.5H20V8h1.5zm-17-1H3V6h18v1H4.5zM14 19V8h2v11h-2zM11 8h2v11h-2V8zM8 8h2v11H8V8zm13 13H3v-1h18v1zm-2-2h-2V8h2v11z"/>
    </symbol>
    <symbol viewBox="0 0 24 24" id="embrassy">
        <path d="M7.5 23H7v-5.5c0-.21-.14-.41-.34-.47L4 16.14V13h16v1.5c0 .28.22.5.5.5s.5-.22.5-.5v-2c0-.28-.22-.5-.5-.5H19V8h1.5c.28 0 .5-.22.5-.5s-.22-.5-.5-.5H19c0-3.86-3.14-7-7-7S5 3.14 5 7H3.5c-.28 0-.5.22-.5.5s.22.5.5.5H5v4H3.5c-.28 0-.5.22-.5.5v3.31l-2.34-.78a.508.508 0 00-.45.06c-.13.1-.21.25-.21.41v8c0 .28.22.5.5.5h7c.28 0 .5-.22.5-.5s-.22-.5-.5-.5zM6 8h8.5c.28 0 .5-.22.5-.5s-.22-.5-.5-.5H6c0-3.31 2.69-6 6-6s6 2.69 6 6h-1.5c-.28 0-.5.22-.5.5s.22.5.5.5H18v4H6V8zM4 23v-3.5c0-.28-.22-.5-.5-.5s-.5.22-.5.5V23H1v-6.81l5 1.67V23H4zm19.79-7.91a.515.515 0 00-.45-.07l-6 2c-.2.07-.34.27-.34.48V23h-3v-7.5c0-.28-.22-.5-.5-.5h-3c-.28 0-.5.22-.5.5V23h-.5c-.28 0-.5.22-.5.5s.22.5.5.5h14c.28 0 .5-.22.5-.5v-8c0-.16-.08-.31-.21-.41zM11 23v-7h2v7h-2zm12 0h-2v-3.5c0-.28-.22-.5-.5-.5s-.5.22-.5.5V23h-2v-5.14l5-1.67V23zM11 9.5v1c0 .28-.22.5-.5.5s-.5-.22-.5-.5v-1c0-.28.22-.5.5-.5s.5.22.5.5zm6 0v1c0 .28-.22.5-.5.5s-.5-.22-.5-.5v-1c0-.28.22-.5.5-.5s.5.22.5.5zm-3 0v1c0 .28-.22.5-.5.5s-.5-.22-.5-.5v-1c0-.28.22-.5.5-.5s.5.22.5.5zm-6 0v1c0 .28-.22.5-.5.5s-.5-.22-.5-.5v-1c0-.28.22-.5.5-.5s.5.22.5.5z"/>
    </symbol>
    <symbol viewBox="0 0 24 24" id="food">
        <path d="M21.33 2.34a.448.448 0 00-.61 0l-4.47 4.33c-.17.16-.17.43 0 .59s.44.16.61 0l4.47-4.33c.17-.17.17-.43 0-.59zm1.21 1.16a.448.448 0 00-.61 0l-4.47 4.33c-.17.16-.17.43 0 .59.17.16.44.16.61 0l4.47-4.33c.17-.17.17-.43 0-.59 0 0 0-.01 0 0zm-4.21 7.3l5.55-5.37c.17-.16.17-.43 0-.59a.448.448 0 00-.61 0l-5.55 5.37c-.69.66-1.73.83-2.6.43a.445.445 0 00-.51.1l-1.89 2.06-8.15 8.88c-.49.57-1.36.64-1.94.17-.31-.25-.49-.63-.5-1.02 0-.39.18-.77.49-1.02l.01-.01 5.09-4.38c.18-.15.19-.42.04-.59a.449.449 0 00-.61-.04l-5.09 4.37c-.5.41-.79 1.02-.79 1.65 0 .58.23 1.12.66 1.53.44.45 1.01.66 1.58.66.66 0 1.28-.28 1.71-.76l6.21-6.77 6.21 6.77c.43.48 1.05.76 1.71.76.57 0 1.15-.21 1.58-.64.88-.85.87-2.22 0-3.07a.689.689 0 00-.13-.11l-7.14-6.14 1.4-1.52c1.13.39 2.41.11 3.27-.72zm1.9 9.01c.59.47.66 1.32.17 1.88-.03.03-.05.06-.08.09-.54.52-1.41.52-1.95 0-.03-.03-.06-.06-.08-.09L12 14.84l1.07-1.17c.01 0 7.16 6.14 7.16 6.14zm-.2-18.69a.448.448 0 00-.61 0l-5.54 5.37c-.86.83-1.14 2.06-.74 3.17l-1.71 1.47-1.64-1.41c.85-1.62.53-3.6-.81-4.88-1.34-1.3-2.88-2.21-4.36-2.57-1.54-.37-2.86-.12-3.72.71-.86.83-1.12 2.11-.73 3.6.38 1.43 1.32 2.92 2.65 4.22a4.438 4.438 0 005.04.78l1.62 1.77c.16.17.43.19.61.04l3.84-3.3c.14-.12.19-.32.1-.49-.42-.85-.24-1.85.45-2.52l5.55-5.37c.17-.16.17-.43 0-.59zM9.85 12.49l-1.57-1.71a.454.454 0 00-.55-.08 3.56 3.56 0 01-4.3-.49C2.2 9.02 1.34 7.66 1.01 6.38c-.31-1.2-.13-2.19.5-2.81.63-.61 1.66-.79 2.9-.49 1.33.32 2.73 1.16 3.96 2.35 1.15 1.1 1.36 2.83.51 4.16-.11.17-.08.4.08.53l1.82 1.57-.93.8z"/>
    </symbol>
    <symbol viewBox="0 0 24 24" id="hotels">
        <path d="M22.5,22H22V6.5C22,5.6728516,21.3271484,5,20.5,5H18V2.5C18,1.6728516,17.3271484,1,16.5,1h-9	C6.6728516,1,6,1.6728516,6,2.5V5H3.5C2.6728516,5,2,5.6728516,2,6.5V22c-0.5512695,0-1,0.4482422-1,1s0.4487305,1,1,1h16	c0.5517578,0,1-0.4482422,1-1s-0.4482422-1-1-1V6h2.5C20.7753906,6,21,6.2241211,21,6.5V22h-0.5c-0.276123,0-0.5,0.2238159-0.5,0.5	c0,0.276123,0.223877,0.5,0.5,0.5h2c0.276123,0,0.5-0.223877,0.5-0.5C23,22.2238159,22.776123,22,22.5,22z M3,6.5	C3,6.2241211,3.2241211,6,3.5,6H6v16H3V6.5z M14,22h-4v-4h4V22z M15,22v-4.5c0-0.2763672-0.2236328-0.5-0.5-0.5h-5	C9.2236328,17,9,17.2236328,9,17.5V22H7V2.5C7,2.2241211,7.2241211,2,7.5,2h9C16.7753906,2,17,2.2241211,17,2.5V22H15z M15.5,8h-7	C8.2236328,8,8,8.2236328,8,8.5v2C8,10.7763672,8.2236328,11,8.5,11h7c0.2763672,0,0.5-0.2236328,0.5-0.5v-2	C16,8.2236328,15.7763672,8,15.5,8z M15,10H9V9h6V10z M15.5,12h-7C8.2236328,12,8,12.2236328,8,12.5v2	C8,14.7763672,8.2236328,15,8.5,15h7c0.2763672,0,0.5-0.2236328,0.5-0.5v-2C16,12.2236328,15.7763672,12,15.5,12z M15,14H9v-1h6V14z M15.5,4h-7C8.2236328,4,8,4.2236328,8,4.5v2C8,6.7763672,8.2236328,7,8.5,7h7C15.7763672,7,16,6.7763672,16,6.5v-2	C16,4.2236328,15.7763672,4,15.5,4z M15,6H9V5h6V6z M19,12.5c0-0.2763672,0.2236328-0.5,0.5-0.5s0.5,0.2236328,0.5,0.5v3	c0,0.2763672-0.2236328,0.5-0.5,0.5S19,15.7763672,19,15.5V12.5z M19,10.5v-2C19,8.2236328,19.2236328,8,19.5,8S20,8.2236328,20,8.5	v2c0,0.2763672-0.2236328,0.5-0.5,0.5S19,10.7763672,19,10.5z M5,17.5v2C5,19.7763672,4.7763672,20,4.5,20S4,19.7763672,4,19.5v-2	C4,17.2236328,4.2236328,17,4.5,17S5,17.2236328,5,17.5z M5,12.5v3C5,15.7763672,4.7763672,16,4.5,16S4,15.7763672,4,15.5v-3	C4,12.2236328,4.2236328,12,4.5,12S5,12.2236328,5,12.5z M5,8.5v2C5,10.7763672,4.7763672,11,4.5,11S4,10.7763672,4,10.5v-2	C4,8.2236328,4.2236328,8,4.5,8S5,8.2236328,5,8.5z M20,19.5c0,0.2763672-0.2236328,0.5-0.5,0.5S19,19.7763672,19,19.5v-2	c0-0.2763672,0.2236328-0.5,0.5-0.5s0.5,0.2236328,0.5,0.5V19.5z"/>
    </symbol>
    <symbol viewBox="0 0 24 24" id="plane">
        <path d="M22.7773438,12.984375l-8.2230225-5.4823608C14.3397217,3.5506592,13.3673706,1,12,1 c-1.3678589,0-2.34021,2.5506592-2.5548096,6.5020142L1.2226563,12.984375C1.0834961,13.0771484,1,13.2333984,1,13.4003906 v2.7998047c0,0.1611328,0.0771484,0.3115234,0.2075195,0.4052734c0.0864258,0.0625,0.1889648,0.0947266,0.2924805,0.0947266 c0.0532227,0,0.1064453-0.0087891,0.1582031-0.0253906l8.0878906-2.6958008 c0.1481323,1.2995605,0.3372803,2.6621094,0.553772,3.9239502c-0.0037842,0.0028076-0.0085449,0.0032959-0.0122681,0.0062256 l-3.5,2.7998047c-0.1186523,0.0947266-0.1875,0.2382813-0.1875,0.390625V22.5c0,0.1660156,0.0825195,0.3212891,0.2197266,0.4140625 C6.9038086,22.9707031,7.0014648,23,7.1000977,23c0.0629883,0,0.1259766-0.0117188,0.1855469-0.0361328l3.5-1.4003906 c0.1204834-0.0482178,0.2085571-0.1399536,0.2610474-0.2481689C11.3527222,22.3471069,11.6777344,23,12,23 s0.6472168-0.6532593,0.9532471-1.6855469c0.0522461,0.1086426,0.140564,0.2006836,0.2615967,0.2490234l3.5,1.4003906 C16.7744141,22.9882813,16.8378906,23,16.9003906,23c0.0986328,0,0.1962891-0.0292969,0.2802734-0.0859375 c0.1376953-0.0927734,0.2197266-0.2480469,0.2197266-0.4140625v-1.4003906c0-0.1523438-0.0693359-0.2958984-0.1875-0.390625 l-3.5-2.7998047c-0.0040283-0.0031738-0.0090332-0.0036621-0.0131226-0.0066528 c0.2164307-1.2617798,0.4056396-2.6240845,0.5537109-3.9235229l8.0883179,2.6958008 c0.0517578,0.0166016,0.1054688,0.0253906,0.1582031,0.0253906c0.1035156,0,0.2060547-0.0322266,0.2919922-0.0947266 C22.9228516,16.5117188,23,16.3613281,23,16.2001953v-2.7998047C23,13.2333984,22.9160156,13.0771484,22.7773438,12.984375z M2,15.5068359v-1.8388672l7.406189-4.9380493C9.4039917,8.8865356,9.3999023,9.0401001,9.3999023,9.2001953 c0,0.9093018,0.0870361,2.2580566,0.2373657,3.760376L2,15.5068359z M10.4145508,20.6357422l-2.8144531,1.1259766v-0.421875 l2.9036255-2.3223877c0.1188354,0.6072998,0.2440186,1.171875,0.3734131,1.6773682 C10.7435303,20.604126,10.5734253,20.5714722,10.4145508,20.6357422z M12,21.1132813 c-0.5961914-2.2490234-1.6000977-7.5517578-1.6000977-11.9130859C10.3999023,4.0717773,11.5292969,2,12,2 s1.5996094,2.0717773,1.5996094,7.2001953C13.5996094,13.5615234,12.5957031,18.8642578,12,21.1132813z M16.4003906,21.3398438 v0.421875l-2.8144531-1.1259766c-0.1602783-0.0650635-0.3303223-0.0316162-0.463623,0.0599976 c0.1295166-0.5059204,0.2547607-1.0709839,0.3737183-1.678894L16.4003906,21.3398438z M22,15.5068359l-7.6377563-2.5462646 c0.1503296-1.5023193,0.2373657-2.8510742,0.2373657-3.760376c0-0.1601563-0.0040894-0.3137207-0.0062866-0.4703369L22,13.6679688 V15.5068359z"/>
    </symbol>
    <symbol viewBox="0 0 24 24" id="suggestion">
        <path d="M23 4.5v12c0 .83-.67 1.5-1.5 1.5h-11c-.28 0-.5-.22-.5-.5s.22-.5.5-.5h11c.28 0 .5-.22.5-.5v-12c0-.28-.22-.5-.5-.5h-19c-.28 0-.5.22-.5.5v12c0 .28.22.5.5.5h2c.28 0 .5.22.5.5v2l3.2-2.4c.22-.17.53-.12.7.1s.12.53-.1.7l-4 3c-.09.07-.19.1-.3.1-.08 0-.15-.02-.22-.05A.512.512 0 014 20.5V18H2.5c-.83 0-1.5-.67-1.5-1.5v-12C1 3.67 1.67 3 2.5 3h19c.83 0 1.5.67 1.5 1.5zM5.5 11h13c.28 0 .5-.22.5-.5s-.22-.5-.5-.5h-13c-.28 0-.5.22-.5.5s.22.5.5.5zm0 3h10c.28 0 .5-.22.5-.5s-.22-.5-.5-.5h-10c-.28 0-.5.22-.5.5s.22.5.5.5zm0-6h13c.28 0 .5-.22.5-.5s-.22-.5-.5-.5h-13c-.28 0-.5.22-.5.5s.22.5.5.5z"/>
    </symbol>
    <symbol viewBox="0 0 24 24" id="visa">
        <path d="M24 6.5v11a2.5 2.5 0 01-2.5 2.5h-1c-.28 0-.5-.22-.5-.5s.22-.5.5-.5h1c.83 0 1.5-.67 1.5-1.5v-11c0-.83-.67-1.5-1.5-1.5h-19C1.67 5 1 5.67 1 6.5v11c0 .83.67 1.5 1.5 1.5h16c.28 0 .5.22.5.5s-.22.5-.5.5h-16A2.5 2.5 0 010 17.5v-11A2.5 2.5 0 012.5 4h19A2.5 2.5 0 0124 6.5zm-3 6c0-.28-.22-.5-.5-.5h-7c-.28 0-.5.22-.5.5s.22.5.5.5h7c.28 0 .5-.22.5-.5zM6.99 13A3 3 0 014 10c0-1.65 1.35-3 3-3s3 1.35 3 3a3 3 0 01-2.99 3c2.19 0 3.86 1.1 4.94 3.28.12.25.02.55-.22.67-.08.03-.15.05-.23.05-.18 0-.36-.1-.45-.28C10.14 14.89 8.81 14 7 14s-3.14.89-4.05 2.72c-.12.25-.42.35-.67.22s-.35-.42-.22-.67C3.14 14.1 4.8 13 6.99 13zM7 12c1.1 0 2-.9 2-2s-.9-2-2-2-2 .9-2 2 .9 2 2 2zm6.5-3h7c.28 0 .5-.22.5-.5s-.22-.5-.5-.5h-7c-.28 0-.5.22-.5.5s.22.5.5.5zm0 2h7c.28 0 .5-.22.5-.5s-.22-.5-.5-.5h-7c-.28 0-.5.22-.5.5s.22.5.5.5zm0 3c-.28 0-.5.22-.5.5s.22.5.5.5h4c.28 0 .5-.22.5-.5s-.22-.5-.5-.5h-4z"/>
    </symbol>
    <symbol viewBox="0 0 24 24" id="weather">
        <path d="M12,19c-3.8598633,0-7-3.140625-7-7c0-3.8598633,3.1401367-7,7-7c3.859375,0,7,3.1401367,7,7	C19,15.859375,15.859375,19,12,19z M12,6c-3.3085938,0-6,2.6914063-6,6s2.6914063,6,6,6s6-2.6914063,6-6S15.3085938,6,12,6z M12,24	c-0.2763672,0-0.5-0.2236328-0.5-0.5v-3c0-0.2763672,0.2236328-0.5,0.5-0.5s0.5,0.2236328,0.5,0.5v3	C12.5,23.7763672,12.2763672,24,12,24z M17.75,22.4599609c-0.171875,0-0.3408203-0.0898438-0.4326172-0.25l-1.5-2.5986328	C15.6787109,19.3720703,15.7607422,19.0664063,16,18.9287109c0.2382813-0.1396484,0.5449219-0.0566406,0.6826172,0.1826172	l1.5,2.5986328C18.3212891,21.9492188,18.2392578,22.2548828,18,22.3925781	C17.9208984,22.4384766,17.8349609,22.4599609,17.75,22.4599609z M6.2495117,22.4599609	c-0.0849609,0-0.1708984-0.0214844-0.2495117-0.0673828c-0.2392578-0.1376953-0.3212891-0.4433594-0.1831055-0.6826172	l1.5-2.5986328C7.4550781,18.8720703,7.7607422,18.7890625,8,18.9287109	c0.2392578,0.1376953,0.3212891,0.4433594,0.1831055,0.6826172l-1.5,2.5986328	C6.590332,22.3701172,6.4223633,22.4599609,6.2495117,22.4599609z M2.0405273,18.25	c-0.1728516,0-0.3408203-0.0898438-0.4335938-0.25c-0.1381836-0.2392578-0.0561523-0.5449219,0.1831055-0.6826172l2.5991211-1.5	C4.6269531,15.6777344,4.934082,15.7607422,5.0722656,16s0.0561523,0.5449219-0.1831055,0.6826172l-2.5991211,1.5	C2.2114258,18.2285156,2.1254883,18.25,2.0405273,18.25z M21.9599609,18.25c-0.0849609,0-0.1708984-0.0214844-0.25-0.0673828	l-2.5986328-1.5C18.8720703,16.5449219,18.7900391,16.2392578,18.9287109,16	c0.1376953-0.2382813,0.4443359-0.3212891,0.6826172-0.1826172l2.5986328,1.5	C22.4492188,17.4550781,22.53125,17.7607422,22.3925781,18C22.3007813,18.1601563,22.1318359,18.25,21.9599609,18.25z M23.5,12.5h-3	c-0.2763672,0-0.5-0.2236328-0.5-0.5s0.2236328-0.5,0.5-0.5h3c0.2763672,0,0.5,0.2236328,0.5,0.5S23.7763672,12.5,23.5,12.5z M3.5,12.5h-3C0.2236328,12.5,0,12.2763672,0,12s0.2236328-0.5,0.5-0.5h3C3.7763672,11.5,4,11.7236328,4,12S3.7763672,12.5,3.5,12.5	z M4.6386719,8.25c-0.0849609,0-0.1708984-0.0214844-0.2495117-0.0668945l-2.5991211-1.5	C1.5507813,6.5449219,1.46875,6.2392578,1.6069336,6C1.7456055,5.7612305,2.050293,5.6791992,2.2900391,5.8168945l2.5991211,1.5	C5.128418,7.4550781,5.2104492,7.7607422,5.0722656,8C4.9794922,8.1601563,4.8115234,8.25,4.6386719,8.25z M19.3613281,8.25	c-0.171875,0-0.3408203-0.0898438-0.4326172-0.25c-0.1386719-0.2392578-0.0566406-0.5449219,0.1826172-0.6831055l2.5986328-1.5	C21.9492188,5.6782227,22.2548828,5.7602539,22.3925781,6c0.1386719,0.2392578,0.0566406,0.5449219-0.1826172,0.6831055	l-2.5986328,1.5C19.5322266,8.2285156,19.4462891,8.25,19.3613281,8.25z M16.25,5.1391602	c-0.0849609,0-0.1708984-0.0214844-0.25-0.0668945c-0.2392578-0.1381836-0.3212891-0.4438477-0.1826172-0.6831055l1.5-2.5991211	C17.4541016,1.5507813,17.7587891,1.4682617,18,1.6069336c0.2392578,0.1381836,0.3212891,0.4438477,0.1826172,0.6831055	l-1.5,2.5991211C16.5908203,5.0493164,16.4228516,5.1391602,16.25,5.1391602z M7.7504883,5.1391602	c-0.1728516,0-0.3408203-0.0898438-0.4335938-0.25l-1.5-2.5991211C5.6787109,2.0507813,5.7607422,1.7451172,6,1.6069336	c0.237793-0.1386719,0.5449219-0.0561523,0.6831055,0.1831055l1.5,2.5991211C8.3212891,4.628418,8.2392578,4.934082,8,5.0722656	C7.9213867,5.1176758,7.8354492,5.1391602,7.7504883,5.1391602z M12,4c-0.2763672,0-0.5-0.2236328-0.5-0.5v-3	C11.5,0.2236328,11.7236328,0,12,0s0.5,0.2236328,0.5,0.5v3C12.5,3.7763672,12.2763672,4,12,4z"/>
    </symbol>
    <symbol viewBox="0 0 24 24" id="cloud">
        <path fill="#d3ddea" d="M19.72 11.33a7.005 7.005 0 00-4.6-5.9c-4.08-.29-5.93 1.4-6.48 3.23.99.49 1.67 1.1 1.76 1.74-.7-.39-1.48-.6-2.29-.6-2.56 0-4.63 2.06-4.63 4.59 0 2.54 2.07 4.59 4.63    4.59h11.51c2.14 0 3.87-1.72 3.87-3.83.01-2.07-1.67-3.77-3.77-3.82z"/>
        <path fill="#97b0cc" d="M3.49 14.41c0-2.54 2.07-4.59 4.63-4.59.8 0 1.59.21    2.29.6-.09-.65-.77-1.25-1.76-1.74.55-1.83 2.4-3.52 6.48-3.23h.02a7.12 7.12 0   00-3.34-.38h-.03c-.21.03-.42.06-.63.11-.02.01-.05.01-.07.02-.19.04-.38.1-.57.16l-.1.03c-.17.06-.34.12-.51.2-.04.01-.08.02-.12.04-.16.07-.31.15-.46.23-.05.03-.1.05-.15.08-.14.08-.28.17-.42.26-.05.04-.1.07-.15.1-.13.1-.25.19-.38.3l-.15.12c-.12.1-.24.21-.35.33-.05.04-.09.08-.14.13-.11.12-.22.25-.33.38-.04.04-.08.08-.11.13-.12.15-.23.31-.34.47l-.06.09c-.13.2-.24. 4-.35.61-.3-.05-.59-.05-.89-.04-.19  0-.37.03-.55.05-.16.02-.31.04-.46.08-.17.04-.33.1-.5.15-.16.05-.31.1-.46.16-.15.07-.29.16-.44.24-.14.08-.28.16-.41.25-.14.1-.26.21-.39.32-.12.1-.24.2-.35.31-.12.12-.22.26-.33.4-.1. 12-.19.24-.28.37-.09.14-.17.3-.25.45-.07.14-.15.29-.21.44-.06.15-.1.31-.15.47-.05.17-.1.33-.13.51-.01.05-.03.1-.04.15-.02.13-.01.26-.02.38-.01.16-.03.33-.02.49 0    .19.03.38.06.57.02.15.04.3.07.44.04.18.1.34.16.51.05.15.1.29.16.43.07.16.16.3.24.45.08.14.15.28.25.4.1.14.21.26.33.39.1.12.2.24.31.34.12.12.26.22.4.33.12.1.24.19.38.28.14.09.29.16.   44.24.15.08.3.15.45.22.15.06.3.1.46.14.17.05.35.1.53.13.05.01.09.03.14.04.25.03.5.05.75.05h2.49c-2.57 0-4.64-2.06-4.64-4.59z"/>
    </symbol>
    <symbol viewBox="0 0 24 24" id="sun-cloud">
        <path fill="#ffeb7a" d="M20.38 11.17c0-.91 1.64-2.02 1.42-2.85-.23-.86-2.21-1-2.65-1.76-.45-.78.41-2.56-.21-3.19-.62-.62-2.41.24-3.18-.2C15 2.73 14.86.75 14 .52c-.83-.22-1.94 1.42-2.85 1.42S9.14.3 8.31.52c-.86.23-1 2.21-1.76 2.65-.77.45-2.55-.42-3.18.2-.62.63.25 2.41-.2 3.18-.44.76-2.42.9-2.65 1.76-.22.84 1.42 1.95 1.42 2.85S.3 13.18.52 14.01c.23.86 2.21 1 2.65 1.76.44.77-.42 2.55.2 3.18.62.62 2.41-.24 3.17.2.76.44.9 2.42 1.76 2.65.84.22 1.94-1.42 2.85-1.42s2.01 1.64 2.85 1.42c.86-.23 1-2.21 1.76-2.65.77-.44 2.55.42 3.18-.2.62-.62-.24-2.41.2-3.18.44-.76 2.42-.9 2.65-1.76.23-.83-1.41-1.94-1.41-2.84z"/>
        <path fill="#f28f44" d="M18.27 11.17c.05 3.93-3.1 7.16-7.03 7.21-3.93.05-7.16-3.11-7.2-7.04v-.17c.05-3.93 3.27-7.09 7.2-7.04 3.87.04 6.99 3.17 7.03 7.04z"/>
        <path fill="#ffd073" d="M18.27 11.17c0 3.61-2.69 6.64-6.27 7.07-3.9-.47-6.69-4.02-6.22-7.92.4-3.26 2.96-5.83 6.22-6.23 3.58.43 6.27 3.47 6.27 7.08z"/>
        <path fill="#d3ddea" d="M23.5 21a2.5 2.5 0 01-2.5 2.5h-9.05a3.32 3.32 0 01-3.33-3.32 3.32 3.32 0 013.82-3.29 4.568 4.568 0 018.63 1.62c1.35.02 2.43 1.13 2.43 2.49z"/>
        <path fill="#97b0cc" d="M18.1 14.65a4.57 4.57 0 00-5.67 2.23c-1.82-.26-3.5 1-3.77 2.81s.99 3.51 2.81 3.77c.16.02.31.03.47.03h1.61c-1.65 0-3-1.34-2.99-3 0-1.66 1.34-3 3-3 .52 0 1.03.13 1.48.39-.06-.42-.5-.82-1.14-1.14.35-1.18 1.55-2.29 4.2-2.09z"/>
    </symbol>
    <symbol viewBox="0 0 24 24" id="sun">
        <path fill="#ffeb7a" d="M21.95 12c0-.98 1.77-2.17 1.53-3.07-.25-.93-2.39-1.08-2.86-1.9-.48-.83.45-2.76-.22-3.43-.67-.67-2.6.26-3.43-.22-.82-.47-.97-2.61-1.9-2.86-.9-.24-2.1 1.53-3.07 1.53-.98 0-2.17-1.77-3.07-1.53-.93.25-1.08 2.39-1.9 2.86-.83.48-2.76-.45-3.43.22-.67.67.26 2.6-.22 3.43-.47.82-2.61.97-2.86 1.9-.24.9 1.53 2.1 1.53 3.07S.28 14.17.52 15.07c.25.93 2.39 1.08 2.86 1.9.48.83-.46 2.75.22 3.43.67.67 2.6-.26 3.43.22.82.47.97 2.61 1.9 2.86.9.24 2.1-1.53 3.07-1.53s2.17 1.77 3.07 1.53c.93-.25 1.08-2.39 1.9-2.86.83-.48 2.75.45 3.43-.22.67-.67-.26-2.6.22-3.43.47-.82 2.61-.97 2.86-1.9.24-.9-1.53-2.09-1.53-3.07z"/>
        <path fill="#f28f44" d="M19.68 12c0 4.24-3.44 7.68-7.68 7.68S4.32 16.24 4.32 12 7.76 4.32 12 4.32s7.68 3.44 7.68 7.68z"/>
        <path fill="#ffd073" d="M19.68 12c0 3.88-2.88 7.09-6.61 7.61a7.68 7.68 0 010-15.21c3.79.53 6.61 3.77 6.61 7.6z"/>
    </symbol>
    <symbol viewBox="0 0 16 16" id="beach">
        <path d="M9.5 6c.4 0 .7-.1 1-.4.3.2.6.4 1 .4h3c.8 0 1.5-.7 1.5-1.5v-1c0-.2-.1-.4-.3-.5L8.2 0h-.4L.3 3c-.2.1-.3.3-.3.5v1C0 5.3.7 6 1.5 6h3c.4 0 .7-.1 1-.4.3.3.6.4 1 .4h1v5h-6c-.3 0-.5.2-.5.5V13H.5c-.3 0-.5.2-.5.5s.2.5.5.5h1.2l-.6 1.3c-.1.2 0 .5.2.7.2.1.5 0 .7-.2l.8-1.8h10.4l.9 1.7c.1.2.3.3.4.3.1 0 .2 0 .2-.1.2-.1.3-.4.2-.7l-.6-1.2h1.2c.3 0 .5-.2.5-.5s-.2-.5-.5-.5h-3.8l4.1-4.1c.2-.2.2-.5 0-.7l-1-1c-.2-.2-.5-.2-.7 0L10.3 11H8.5V6h1zm1 6c.1 0 .3-.1.4-.1l3.6-3.6.3.3-4.5 4.4H2v-1h8.5zM9.4 3H6.6L8 1.3 9.4 3zm5.1 2h-3c-.3 0-.5-.2-.5-.5V4h4v.5c0 .3-.2.5-.5.5zm-3.8-2L9.6 1.7 12.9 3h-2.2zM6.4 1.7L5.3 3H3.1l3.3-1.3zM4.5 5h-3c-.3 0-.5-.2-.5-.5V4h4v.5c0 .3-.2.5-.5.5zm2 0c-.3 0-.5-.2-.5-.5V4h4v.5c0 .3-.2.5-.5.5h-3z" fill="#387c89"/>
    </symbol>
    <symbol viewBox="0 0 16 16" id="hotels2">
        <path d="M15.5 15H15V3.5c0-.3-.2-.5-.5-.5H11V.5c0-.3-.2-.5-.5-.5h-9c-.3 0-.5.2-.5.5V15H.5c-.3 0-.5.2-.5.5s.2.5.5.5h15c.3 0 .5-.2.5-.5s-.2-.5-.5-.5zM14 4v11h-3V4h3zM2 1h8v14H8v-3.5c0-.3-.2-.5-.5-.5h-3c-.3 0-.5.2-.5.5V15H2V1zm5 14H5v-3h2v3zm-3.5-5c-.3 0-.5-.2-.5-.5s.2-.5.5-.5h5c.3 0 .5.2.5.5s-.2.5-.5.5h-5zM3 7.5c0-.3.2-.5.5-.5h5c.3 0 .5.2.5.5s-.2.5-.5.5h-5c-.3 0-.5-.2-.5-.5zm0-2c0-.3.2-.5.5-.5h5c.3 0 .5.2.5.5s-.2.5-.5.5h-5c-.3 0-.5-.2-.5-.5zm9 7v-1c0-.3.2-.5.5-.5s.5.2.5.5v1c0 .3-.2.5-.5.5s-.5-.2-.5-.5zm0-6v-1c0-.3.2-.5.5-.5s.5.2.5.5v1c0 .3-.2.5-.5.5s-.5-.2-.5-.5zm0 3v-1c0-.3.2-.5.5-.5s.5.2.5.5v1c0 .3-.2.5-.5.5s-.5-.2-.5-.5zm-9-6c0-.3.2-.5.5-.5h5c.3 0 .5.2.5.5s-.2.5-.5.5h-5c-.3 0-.5-.2-.5-.5z" fill="#387c89"/>
    </symbol>
    <symbol viewBox="0 0 16 16" id="sea-line">
        <path d="M.1.7C0 .5.1.2.3 0c.2-.1.5 0 .7.2 1 2 1.7 2.3 2 2.3S4 2.2 5.1.3c0-.2.2-.3.4-.3s.4.1.4.3C6.7 1.7 7.4 2.5 8 2.5c.6 0 1.3-.8 2-2.2.2-.3.7-.3.9 0 .7 1.5 1.4 2.2 2 2.2s1.3-.8 2-2.2c.1-.2.4-.4.7-.2.4.1.5.4.4.6-.9 1.9-1.9 2.8-3 2.8-.9 0-1.7-.6-2.5-1.9-1.6 2.6-3.5 2.6-5 0C3.7 4.4 1.9 4.2.1.7zm15.6 11.8c-.2-.1-.5 0-.7.2-.7 1.5-1.4 2.2-2 2.2s-1.3-.8-2-2.2c-.2-.3-.7-.3-.9 0C9.3 14.2 8.6 15 8 15c-.6 0-1.3-.8-2.1-2.2-.1-.2-.3-.3-.4-.3-.2 0-.4.1-.5.3C4 14.7 3.3 15 3 15s-1-.3-2.1-2.2c-.1-.2-.4-.3-.7-.2-.2.1-.3.4-.1.6 1.8 3.4 3.6 3.7 5.4.8 1.6 2.6 3.5 2.6 5 0 .8 1.3 1.6 1.9 2.5 1.9 1.1 0 2-.9 3-2.8.1-.1 0-.4-.3-.6zm0-6.2c-.2-.1-.5 0-.7.2-.7 1.5-1.4 2.2-2 2.2s-1.3-.7-2-2.2c-.2-.3-.7-.3-.9 0C9.3 8 8.6 8.8 8 8.8c-.6 0-1.3-.8-2.1-2.3 0-.1-.2-.2-.4-.2s-.4.1-.5.3C4 8.5 3.3 8.8 3 8.8S2 8.5.9 6.5c-.1-.2-.4-.3-.6-.2-.3.1-.4.4-.2.7 1.8 3.4 3.6 3.7 5.4.8 1.6 2.6 3.5 2.6 5 0 .8 1.3 1.6 1.9 2.5 1.9 1.1 0 2-.9 3-2.8.1-.2 0-.5-.3-.6z" fill="#387c89"/>
    </symbol>
    <symbol viewBox="0 0 24 24" id="transport">
        <path class="st0" d="M20.2 1H3.8C2.8 1 2 1.9 2 3v17.5c0 .3.2.5.5.5H3v1.5c0 .3.2.5.5.5h4c.3 0 .5-.2.5-.5V21h8v1.5c0 .3.2.5.5.5h4c.3 0 .5-.2.5-.5V21h.5c.3 0 .5-.2.5-.5v-6c0-.3-.2-.5-.5-.5s-.5.2-.5.5V20H3v-5h16.5c.3 0 .5-.2.5-.5s-.2-.5-.5-.5H3V3c0-.5.3-1 .8-1h16.5c.4 0 .7.4.7 1v2H4.5c-.3 0-.5.2-.5.5s.2.5.5.5h6.4L7.6 8.3l.3-.5c.2-.3.1-.6-.1-.7-.3-.2-.6-.1-.7.1L5.6 9.7l-1.5 2.5c-.1.2-.1.5.2.7 0 .1.1.1.2.1.2 0 .3-.1.4-.2l1.4-2.4L12.7 6H21v6.5c0 .3.2.5.5.5s.5-.2.5-.5V3c0-1.1-.8-2-1.8-2zM7 22H4v-1h3v1zm13 0h-3v-1h3v1zm-.5-6h-5c-.3 0-.5.2-.5.5v2c0 .3.2.5.5.5h5c.3 0 .5-.2.5-.5v-2c0-.3-.2-.5-.5-.5zm-.5 2h-4v-1h4v1z"/><path class="st0" d="M4.5 16c-.3 0-.5.2-.5.5v2c0 .3.2.5.5.5h5c.3 0 .5-.2.5-.5v-2c0-.3-.2-.5-.5-.5h-5zM9 18H5v-1h4v1z"/>
    </symbol>
    <symbol viewBox="0 0 24 24" id="suggestion2">
        <path d="M23 4.5v12c0 .8-.7 1.5-1.5 1.5h-11c-.3 0-.5-.2-.5-.5s.2-.5.5-.5h11c.3 0 .5-.2.5-.5v-12c0-.3-.2-.5-.5-.5h-19c-.3 0-.5.2-.5.5v12c0 .3.2.5.5.5h2c.3 0 .5.2.5.5v2l3.2-2.4c.2-.2.5-.1.7.1.2.2.1.5-.1.7l-4 3c-.1.1-.2.1-.3.1-.1 0-.2 0-.2-.1-.2 0-.3-.2-.3-.4V18H2.5c-.8 0-1.5-.7-1.5-1.5v-12C1 3.7 1.7 3 2.5 3h19c.8 0 1.5.7 1.5 1.5zM5.5 14h10c.3 0 .5-.2.5-.5s-.2-.5-.5-.5h-10c-.3 0-.5.2-.5.5s.2.5.5.5zm0-6h13c.3 0 .5-.2.5-.5s-.2-.5-.5-.5h-13c-.3 0-.5.2-.5.5s.2.5.5.5zm0 3h13c.3 0 .5-.2.5-.5s-.2-.5-.5-.5h-13c-.3 0-.5.2-.5.5s.2.5.5.5z" fill="#387c89"/>
    </symbol>
    <symbol viewBox="0 0 24 24" id="reviews">
        <path d="M4.5,21c-0.064,0-0.129-0.013-0.191-0.038C4.122,20.885,4,20.702,4,20.5V18H3.5C2.122,18,1,16.879,1,15.5v-11	C1,3.122,2.122,2,3.5,2h15C19.879,2,21,3.122,21,4.5v9.316c0,0.276-0.224,0.5-0.5,0.5s-0.5-0.224-0.5-0.5V4.5	C20,3.673,19.327,3,18.5,3h-15C2.673,3,2,3.673,2,4.5v11C2,16.327,2.673,17,3.5,17h1C4.776,17,5,17.224,5,17.5v1.793l2.146-2.146	C7.24,17.053,7.367,17,7.5,17h11c0.827,0,1.5-0.673,1.5-1.5v-0.21c0-0.276,0.224-0.5,0.5-0.5s0.5,0.224,0.5,0.5v0.21	c0,1.379-1.121,2.5-2.5,2.5H7.707l-2.854,2.854C4.758,20.949,4.63,21,4.5,21z M19.691,22.962C19.878,22.885,20,22.702,20,22.5V20	h0.5c1.379,0,2.5-1.121,2.5-2.5v-11C23,6.224,22.776,6,22.5,6S22,6.224,22,6.5v11c0,0.827-0.673,1.5-1.5,1.5h-1	c-0.276,0-0.5,0.224-0.5,0.5v1.793l-2.146-2.146C16.76,19.053,16.633,19,16.5,19h-7C9.224,19,9,19.224,9,19.5S9.224,20,9.5,20h6.793	l2.854,2.854C19.242,22.949,19.37,23,19.5,23C19.564,23,19.63,22.987,19.691,22.962z M16,12.5v-3C16,8.122,14.879,7,13.5,7h-1.52	c-0.168-2.007-1.353-2.734-2.359-2.985C9.473,3.977,9.314,4.011,9.192,4.106S9,4.346,9,4.5C9,5.658,8.727,6.834,8.186,8H6.5	C6.224,8,6,8.224,6,8.5v5C6,13.776,6.224,14,6.5,14h1.586c0.131,0,0.26,0.054,0.354,0.146l0.414,0.414	C9.137,14.844,9.514,15,9.914,15H13.5C14.879,15,16,13.879,16,12.5z M7,9h1.5c0.189,0,0.362-0.107,0.447-0.276	C9.528,7.562,9.872,6.383,9.97,5.209C10.507,5.507,11,6.12,11,7.5C11,7.776,11.224,8,11.5,8h2C14.327,8,15,8.673,15,9.5v3	c0,0.827-0.673,1.5-1.5,1.5H9.914c-0.131,0-0.26-0.054-0.354-0.146l-0.414-0.414C8.863,13.156,8.486,13,8.086,13H7V9z"/>
    </symbol>
</svg>
