<svg xmlns="http://www.w3.org/2000/svg" xmlns:xlink="http://www.w3.org/1999/xlink" width="0" height="0" fill="#000">
    <symbol viewBox="0 0 32 32" id="photo-upload">
        <path d="M23.742,8.034c-1.776,0-3.221,1.474-3.221,3.286s1.445,3.286,3.221,3.286c1.776,0,3.221-1.474,3.221-3.286	C26.963,9.508,25.519,8.034,23.742,8.034z M23.742,13.331c-1.087,0-1.971-0.902-1.971-2.011s0.884-2.011,1.971-2.011	c1.087,0,1.971,0.902,1.971,2.011C25.713,12.429,24.829,13.331,23.742,13.331z M23.764,28.444c-0.016-0.039-0.035-0.076-0.058-0.11	c-0.022-0.035-0.049-0.068-0.077-0.097s-0.061-0.056-0.095-0.079c-0.034-0.023-0.07-0.043-0.108-0.059	c-0.038-0.016-0.077-0.029-0.117-0.036c-0.081-0.017-0.163-0.017-0.244,0c-0.04,0.008-0.079,0.02-0.117,0.036	c-0.038,0.016-0.074,0.036-0.108,0.059c-0.034,0.023-0.066,0.05-0.095,0.079s-0.055,0.062-0.077,0.097	c-0.022,0.034-0.042,0.071-0.058,0.11c-0.016,0.038-0.028,0.078-0.036,0.119c-0.008,0.041-0.013,0.083-0.013,0.124	c0,0.041,0.004,0.084,0.013,0.124c0.007,0.041,0.02,0.081,0.036,0.119c0.016,0.039,0.035,0.076,0.058,0.11	c0.022,0.035,0.049,0.068,0.077,0.097c0.014,0.015,0.029,0.029,0.045,0.042c0.016,0.013,0.033,0.026,0.05,0.037	c0.034,0.023,0.07,0.043,0.108,0.059c0.038,0.016,0.077,0.029,0.117,0.036c0.04,0.008,0.081,0.013,0.122,0.013	c0.041,0,0.082-0.004,0.122-0.013c0.04-0.008,0.079-0.02,0.117-0.036c0.038-0.016,0.074-0.036,0.108-0.059	c0.017-0.012,0.034-0.024,0.05-0.037c0.016-0.013,0.031-0.027,0.045-0.042c0.029-0.029,0.055-0.062,0.077-0.097	c0.022-0.034,0.042-0.071,0.058-0.11c0.016-0.038,0.028-0.078,0.036-0.119c0.008-0.041,0.012-0.083,0.012-0.124	s-0.004-0.084-0.012-0.124C23.792,28.522,23.78,28.482,23.764,28.444z M13.928,3.214c-0.016-0.038-0.035-0.075-0.057-0.11	c-0.023-0.034-0.049-0.068-0.078-0.097c-0.029-0.029-0.061-0.056-0.095-0.079c-0.034-0.023-0.07-0.043-0.108-0.059	c-0.038-0.016-0.077-0.028-0.117-0.036c-0.081-0.017-0.163-0.017-0.244,0c-0.04,0.008-0.079,0.02-0.118,0.036	c-0.038,0.016-0.074,0.036-0.108,0.059c-0.034,0.023-0.066,0.05-0.095,0.079c-0.029,0.029-0.055,0.062-0.078,0.097	c-0.023,0.035-0.041,0.072-0.057,0.11s-0.028,0.078-0.036,0.119c-0.008,0.041-0.012,0.083-0.012,0.125	c0,0.041,0.004,0.083,0.012,0.124c0.007,0.041,0.02,0.081,0.036,0.119s0.034,0.075,0.057,0.11c0.023,0.034,0.049,0.068,0.078,0.097	c0.029,0.029,0.061,0.056,0.095,0.079c0.034,0.023,0.07,0.043,0.108,0.059c0.038,0.016,0.078,0.028,0.118,0.036	c0.04,0.008,0.081,0.013,0.122,0.013s0.082-0.004,0.122-0.013c0.04-0.008,0.079-0.02,0.117-0.036	c0.038-0.016,0.074-0.036,0.108-0.059c0.034-0.023,0.066-0.05,0.095-0.079c0.029-0.029,0.055-0.062,0.078-0.097	c0.023-0.035,0.042-0.072,0.057-0.11s0.028-0.078,0.036-0.119c0.008-0.041,0.012-0.083,0.012-0.124c0-0.042-0.004-0.084-0.012-0.125	C13.956,3.292,13.944,3.252,13.928,3.214z M28.508,2.823C28.133,1.207,26.708,0,25.011,0H5.401C2.423,0,0,2.472,0,5.51v20.004	c0,1.987,1.557,3.608,3.492,3.664C3.867,30.793,5.292,32,6.989,32h21.416C30.388,32,32,30.355,32,28.333v-4.811V6.487	C32,4.5,30.443,2.878,28.508,2.823z M30.75,28.334c0,1.319-1.052,2.391-2.344,2.391H6.989c-1.001,0-1.856-0.643-2.192-1.545	c-0.098-0.263-0.152-0.548-0.152-0.846v-0.429v-2.954l7.17-12.402c0.218-0.378,0.608-0.598,1.035-0.591	c0.43,0.008,0.809,0.242,1.014,0.627l3.087,5.783l4.488,8.406c0.113,0.212,0.328,0.333,0.549,0.333c0.101,0,0.203-0.025,0.298-0.078	c0.303-0.168,0.415-0.556,0.25-0.865l-1.456-2.728c0.639,0.03,1.268-0.181,1.769-0.605l2.811-2.378	c0.451-0.381,1.116-0.365,1.548,0.039l0.147,0.137l1.25,1.169l2.145,2.006V28.334z M30.75,22.073l-2.145-2.006l-1.25-0.971	c-0.814-0.347-1.783-0.227-2.493,0.374l-2.811,2.378c-0.309,0.262-0.713,0.367-1.107,0.29c-0.395-0.077-0.731-0.328-0.923-0.688	l-1.972-3.694l-1.101-2.063v0l-1.986-3.72c-0.424-0.793-1.205-1.276-2.091-1.292c-0.885-0.014-1.683,0.44-2.133,1.218l-6.094,10.54	V6.487c0-1.319,1.052-2.391,2.344-2.391h3.862c0.345,0,0.625-0.285,0.625-0.638s-0.28-0.638-0.625-0.638H6.989	c-1.982,0-3.594,1.645-3.594,3.667v18.29v3.118c-1.2-0.104-2.145-1.132-2.145-2.382V5.51c0-2.335,1.862-4.234,4.151-4.234h19.61	c1.001,0,1.856,0.643,2.192,1.545H15.851c-0.345,0-0.625,0.285-0.625,0.638s0.28,0.638,0.625,0.638h11.504l1.25,0.009	c1.2,0.104,2.145,1.132,2.145,2.382V22.073z"/>
    </symbol>
    <symbol viewBox="0 0 32 32" id="video-upload">
        <path d="M19.271,18.917c-0.5,0-0.972,0.278-1.417,0.833v-3.354h-1.396v10.271h1.396v-0.75	c0.458,0.57,0.93,0.854,1.417,0.854c0.569,0,0.937-0.291,1.104-0.875c0.097-0.292,0.146-0.798,0.146-1.521v-3.042	c0-0.736-0.049-1.25-0.146-1.541C20.208,19.208,19.84,18.917,19.271,18.917z M19.146,24.479c0,0.681-0.201,1.021-0.604,1.021	c-0.236,0-0.465-0.111-0.687-0.333V20.5c0.222-0.221,0.451-0.333,0.687-0.333c0.403,0,0.604,0.347,0.604,1.042V24.479z M23.687,18.917c-0.708,0-1.264,0.265-1.667,0.792c-0.278,0.374-0.417,0.973-0.417,1.791v2.688c0,0.819,0.146,1.416,0.438,1.791	c0.403,0.528,0.965,0.792,1.688,0.792c0.736,0,1.292-0.278,1.667-0.833c0.167-0.25,0.271-0.527,0.313-0.833	c0.028-0.194,0.041-0.493,0.041-0.896v-0.187h-1.417c0,0.153,0,0.302,0,0.447s-0.004,0.26-0.01,0.344	c-0.007,0.083-0.01,0.132-0.01,0.146c-0.083,0.361-0.292,0.541-0.625,0.541c-0.472,0-0.708-0.354-0.708-1.062v-1.354h2.771V21.5	c0-0.805-0.146-1.402-0.437-1.791C24.938,19.181,24.396,18.917,23.687,18.917z M24.354,21.938h-1.375v-0.709	c0-0.708,0.229-1.062,0.687-1.062c0.459,0,0.688,0.354,0.688,1.062L24.354,21.938L24.354,21.938z M13.875,24.854	C13.569,25.285,13.278,25.5,13,25.5c-0.195,0-0.299-0.104-0.312-0.313c-0.014-0.027-0.021-0.208-0.021-0.541v-5.625h-1.375v6.042	c0,0.528,0.042,0.903,0.125,1.125c0.125,0.39,0.417,0.584,0.875,0.584c0.514,0,1.042-0.313,1.583-0.938v0.833h1.396v-7.646h-1.396	L13.875,24.854L13.875,24.854L13.875,24.854z M15.688,11.167c0.444,0,0.667-0.355,0.667-1.063v-3.25	c0-0.722-0.222-1.083-0.667-1.083c-0.445,0-0.667,0.361-0.667,1.083v3.25C15.021,10.812,15.243,11.167,15.688,11.167z M6.25,17.854	h1.625v8.813h1.542v-8.813h1.667v-1.458H6.25V17.854z M26,0H6C4.347,0,2.934,0.587,1.76,1.76C0.587,2.935,0,4.347,0,6v20	c0,1.653,0.587,3.066,1.76,4.239C2.934,31.412,4.347,32,6,32h20c1.652,0,3.066-0.587,4.239-1.761C31.413,29.066,32,27.653,32,26V6	c0-1.653-0.587-3.066-1.76-4.24C29.066,0.587,27.653,0,26,0z M18.896,4.625h1.396v5.666c0,0.334,0.007,0.514,0.021,0.542	c0.014,0.223,0.125,0.334,0.333,0.334c0.278,0,0.569-0.215,0.875-0.646V4.625h1.396v7.708h-1.396V11.5	c-0.57,0.625-1.104,0.938-1.604,0.938c-0.445,0-0.743-0.187-0.896-0.562c-0.083-0.25-0.125-0.632-0.125-1.146L18.896,4.625	L18.896,4.625z M13.625,7.125c0-0.805,0.146-1.41,0.438-1.812c0.375-0.527,0.917-0.792,1.625-0.792c0.68,0,1.222,0.265,1.625,0.792	c0.292,0.403,0.437,1.007,0.437,1.812v2.708c0,0.833-0.146,1.438-0.437,1.812c-0.403,0.528-0.945,0.792-1.625,0.792	c-0.708,0-1.25-0.264-1.625-0.792c-0.292-0.402-0.438-1.006-0.438-1.812L13.625,7.125L13.625,7.125z M9.875,1.979l1.104,4.062	l1.062-4.062h1.563l-1.875,6.167v4.187h-1.542V8.146c-0.153-0.764-0.472-1.861-0.958-3.292C9.132,4.535,8.972,4.056,8.75,3.417	c-0.222-0.638-0.389-1.117-0.5-1.437L9.875,1.979L9.875,1.979z M27.042,27.125c-0.139,0.598-0.434,1.104-0.886,1.521	c-0.451,0.417-0.976,0.66-1.573,0.729c-1.903,0.208-4.764,0.313-8.583,0.313c-3.82,0-6.681-0.104-8.583-0.313	c-0.597-0.069-1.122-0.313-1.573-0.729c-0.451-0.417-0.747-0.923-0.885-1.521c-0.278-1.166-0.417-2.972-0.417-5.417	c0-2.402,0.139-4.208,0.417-5.417c0.139-0.61,0.434-1.121,0.885-1.531c0.451-0.41,0.983-0.649,1.594-0.719	c1.889-0.208,4.743-0.313,8.563-0.313c3.833,0,6.694,0.104,8.583,0.313c0.597,0.07,1.125,0.309,1.583,0.719	c0.459,0.41,0.757,0.92,0.896,1.531c0.264,1.153,0.396,2.958,0.396,5.417C27.458,24.153,27.319,25.958,27.042,27.125z"/>
    </symbol>
</svg>

