<svg xmlns="http://www.w3.org/2000/svg" xmlns:xlink="http://www.w3.org/1999/xlink" width="0" height="0" fill="#000" preserveAspectRatio="xMidYMid meet">
    <symbol viewBox="0 0 24 24" id="airplane">
        <path d="M12 20c-1.149 0-2-7.91-2-10 0-2.768.524-6 2-6 1.477 0 2 3.232 2 6 0 2.09-.851 10-2 10zm-.016-15.002C11.756 5.087 11 6.491 11 10c0 2.78.578 6.118 1 7.919.422-1.801 1-5.139 1-7.919 0-3.509-.756-4.913-1.016-5.002zM15.5 20a.5.5 0 0 1-.186-.036l-2.5-1a.5.5 0 0 1 .371-.927l1.815.725v-.022l-2.313-1.85a.501.501 0 0 1-.078-.703.503.503 0 0 1 .703-.078l2.5 2A.5.5 0 0 1 16 18.5v1a.499.499 0 0 1-.5.5zm-7 0a.501.501 0 0 1-.5-.5v-1a.5.5 0 0 1 .188-.391l2.5-2a.501.501 0 0 1 .625.781L9 18.762l1.814-.726a.498.498 0 1 1 .371.927l-2.5 1A.474.474 0 0 1 8.5 20zm11-4.5a.537.537 0 0 1-.158-.025l-6-2a.501.501 0 0 1 .317-.949L19 14.307v-1.039l-5.777-3.852a.5.5 0 1 1 .554-.832l6 4A.501.501 0 0 1 20 13v2a.496.496 0 0 1-.208.405.492.492 0 0 1-.292.095zm-15 0a.492.492 0 0 1-.292-.095A.496.496 0 0 1 4 15v-2c0-.167.083-.323.223-.416l6-4a.499.499 0 1 1 .554.832L5 13.268v1.039l5.342-1.781a.501.501 0 0 1 .316.949l-6 2a.537.537 0 0 1-.158.025z"/>
    </symbol>
    <symbol viewBox="0 0 24 24" id="place">
        <path d="M12 20c-1.435 0-6-5.952-6-10 0-3.897 3.091-6 6-6 2.908 0 6 2.103 6 6 0 4.048-4.564 10-6 10zm0-15c-2.424 0-5 1.752-5 5 0 3.755 4.083 8.681 5 8.993.917-.313 5-5.238 5-8.993 0-3.248-2.576-5-5-5zm0 8c-1.654 0-3-1.346-3-3s1.346-3 3-3 3 1.346 3 3-1.346 3-3 3zm0-5c-1.103 0-2 .897-2 2s.897 2 2 2 2-.897 2-2-.897-2-2-2z"/>
    </symbol>
    <symbol viewBox="0 0 24 24" id="date">
        <path d="M19 19H5V6h14v13zM6 18h12v-7H6v7zm0-8h12V7H6v3zm9.5-2a.5.5 0 0 1-.5-.5v-3a.5.5 0 0 1 1 0v3a.5.5 0 0 1-.5.5zm-7 0a.5.5 0 0 1-.5-.5v-3a.5.5 0 0 1 1 0v3a.5.5 0 0 1-.5.5z"/>
    </symbol>
    <symbol viewBox="0 0 24 24" id="date-hot">
        <path d="M21.75 1.5h-1.5v3h-4.5v-3h-7.5v3h-4.5v-3h-1.5c-.8280029 0-1.5.6719971-1.5 1.5v19.5c0 .8280029.6719971 1.5 1.5 1.5h19.5c.8280029 0 1.5-.6719971 1.5-1.5V3c0-.8280029-.6719971-1.5-1.5-1.5zm0 19.5c0 .8280029-.6719971 1.5-1.5 1.5H3.75c-.8280029 0-1.5-.6719971-1.5-1.5V7.5h19.5V21zm-15-9h-3V9h3v3zm4.5 0h-3V9h3v3zm4.5 0h-3V9h3v3zm4.5 0h-3V9h3v3zm-13.5 4.5h-3v-3h3v3zm4.5 0h-3v-3h3v3zm4.5 0h-3v-3h3v3zm4.5 0h-3v-3h3v3zM6.75 21h-3v-3h3v3zm4.5 0h-3v-3h3v3zm4.5 0h-3v-3h3v3zM5.25 3V0h1.5v3h-1.5zm12 0V0h1.5v3h-1.5z"/>
    </symbol>
    <symbol viewBox="0 0 16 16" id="date2">
         <path d="M14.5 2H13v-.5c0-.2763672-.2236328-.5-.5-.5s-.5.2236328-.5.5V2H4v-.5c0-.2763672-.2236328-.5-.5-.5s-.5.2236328-.5.5V2H1.5C.6728516 2 0 2.6728516 0 3.5v10c0 .8271484.6728516 1.5 1.5 1.5h13c.8271484 0 1.5-.6728516 1.5-1.5 0-.2763672-.2236328-.5-.5-.5s-.5.2236328-.5.5c0 .2753906-.2246094.5-.5.5h-13c-.2758789 0-.5-.2246094-.5-.5v-10c0-.2758789.2241211-.5.5-.5H3v.5c0 .2763672.2236328.5.5.5s.5-.2236328.5-.5V3h8v.5c0 .2763672.2236328.5.5.5s.5-.2236328.5-.5V3h1.5c.2753906 0 .5.2241211.5.5V6H2.5c-.2763672 0-.5.2236328-.5.5s.2236328.5.5.5H15v4.5c0 .2763672.2236328.5.5.5s.5-.2236328.5-.5v-8c0-.8271484-.6728516-1.5-1.5-1.5z"/>
    </symbol>
    <symbol viewBox="0 0 24 24" id="user">
        <path d="M12 13c-2.206 0-4-2.019-4-4.5S9.794 4 12 4s4 2.019 4 4.5-1.794 4.5-4 4.5zm0-8c-1.654 0-3 1.57-3 3.5s1.346 3.5 3 3.5 3-1.57 3-3.5S13.654 5 12 5zm6.5 15h-13a.5.5 0 0 1-.5-.5V18c0-.063.012-.125.035-.184C6.294 14.62 8.638 13 12 13c3.363 0 5.706 1.62 6.965 4.816A.51.51 0 0 1 19 18v1.5a.5.5 0 0 1-.5.5zM6 19h12v-.904C16.885 15.34 14.922 14 12 14c-2.921 0-4.885 1.34-6 4.096V19z"/>
    </symbol>
    <symbol viewBox="0 0 16 16" id="user2">
        <path d="M8,8C6.3457031,8,5,6.6542969,5,5s1.3457031-3,3-3s3,1.3457031,3,3S9.6542969,8,8,8z M8,3C6.8969727,3,6,3.8969727,6,5	s0.8969727,2,2,2c1.1025391,0,2-0.8969727,2-2S9.1025391,3,8,3z M14,14.5v-1C14,11.0185547,11.9814453,9,9.5,9h-3	C4.0185547,9,2,11.0185547,2,13.5v1C2,14.7763672,2.2236328,15,2.5,15h7c0.2763672,0,0.5-0.2236328,0.5-0.5S9.7763672,14,9.5,14H3	v-0.5C3,11.5703125,4.5703125,10,6.5,10h3c1.9296875,0,3.5,1.5703125,3.5,3.5V14h-1.5c-0.2763672,0-0.5,0.2236328-0.5,0.5	s0.2236328,0.5,0.5,0.5h2C13.7763672,15,14,14.7763672,14,14.5z"/>
    </symbol>
    <symbol viewBox="0 0 24 24" id="search">
        <path d="M8.933 17.866C4.007 17.866 0 13.858 0 8.933 0 4.007 4.007 0 8.933 0c4.925 0 8.933 4.007 8.933 8.933 0 4.925-4.008 8.933-8.933 8.933zM8.933 1C4.559 1 1 4.559 1 8.933s3.559 7.933 7.933 7.933 7.933-3.559 7.933-7.933S13.308 1 8.933 1zM24 23.5v-3.066a.504.504 0 00-.146-.354l-3.066-3.067a.5.5 0 00-.707.707L23 20.641V23h-2.359l-2.774-2.773v-2.86a.504.504 0 00-.146-.354l-2.3-2.3a.5.5 0 00-.707.707l2.153 2.153v2.86c0 .133.053.26.146.354l3.067 3.066a.5.5 0 00.354.147H23.5a.5.5 0 00.5-.5z"/>
    </symbol>
    <symbol viewBox="0 0 24 24" id="target">
        <path d="M19.416,11.416h-0.698c-0.281-3.257-2.876-5.852-6.133-6.133V4.584C12.584,4.261,12.323,4,12,4	c-0.323,0-0.584,0.261-0.584,0.584v0.698c-3.257,0.281-5.852,2.876-6.133,6.133H4.584C4.261,11.416,4,11.677,4,12	s0.261,0.584,0.584,0.584h0.698c0.281,3.257,2.876,5.852,6.133,6.133v0.698C11.416,19.739,11.677,20,12,20s0.584-0.261,0.584-0.584	v-0.698c3.257-0.281,5.852-2.876,6.133-6.133h0.698C19.739,12.584,20,12.323,20,12C20,11.677,19.736,11.416,19.416,11.416z M16.886,12.584h0.698c-0.271,2.634-2.366,4.729-5,5v-0.698c0-0.323-0.261-0.584-0.584-0.584c-0.323,0-0.584,0.261-0.584,0.584	v0.698c-2.634-0.271-4.729-2.366-5-5h0.698c0.323,0,0.584-0.261,0.584-0.584c0-0.323-0.261-0.584-0.584-0.584H6.415	c0.271-2.634,2.366-4.729,5-5v0.698c0,0.323,0.261,0.584,0.584,0.584s0.584-0.261,0.584-0.584V6.415c2.634,0.271,4.729,2.366,5,5	h-0.698c-0.323,0-0.584,0.261-0.584,0.584S16.563,12.584,16.886,12.584z M14,12c0,1.105-0.895,2-2,2s-2-0.895-2-2s0.895-2,2-2	S14,10.895,14,12z"/>
    </symbol>
    <symbol viewBox="0 0 24 24" id="phone">
        <path d="M16.425 19.966c-.208 0-.416-.025-.617-.077-3.088-.785-5.641-2.171-7.587-4.118-1.947-1.945-3.332-4.498-4.118-7.586a2.513 2.513 0 01.654-2.386l1.342-1.341c.567-.567 1.556-.566 2.122 0l2.122 2.122c.283.283.439.66.439 1.06 0 .401-.156.778-.439 1.061L9.207 9.836a15.94 15.94 0 002.197 2.754 15.905 15.905 0 002.752 2.195l1.136-1.136c.57-.568 1.553-.565 2.121.001l2.122 2.121a1.501 1.501 0 010 2.121l-1.342 1.343c-.472.472-1.1.731-1.768.731zM7.16 5.018a.501.501 0 00-.354.146L5.465 6.506a1.51 1.51 0 00-.394 1.432c.741 2.912 2.039 5.309 3.856 7.126 1.818 1.818 4.215 3.116 7.126 3.856a1.52 1.52 0 001.432-.393l1.342-1.343a.5.5 0 000-.707l-2.122-2.121a.514.514 0 00-.707 0l-1.414 1.414a.501.501 0 01-.609.076 16.978 16.978 0 01-3.279-2.55 16.96 16.96 0 01-2.551-3.28.5.5 0 01.076-.61l1.414-1.413a.497.497 0 000-.707L7.513 5.165a.492.492 0 00-.353-.147z"/>
    </symbol>
    <symbol viewBox="0 0 24 24" id="phone2">
    <path class="st0" d="M11 2h-1c-.6 0-1 .4-1 1s.4 1 1 1h1c.6 0 1-.4 1-1s-.4-1-1-1zm-1 1v-.5.5z"/><path class="st0" d="M20 4.5v15c0 2.5-2 4.5-4.5 4.5h-7C6 24 4 22 4 19.5v-11c0-.3.2-.5.5-.5s.5.2.5.5v11C5 21.4 6.6 23 8.5 23h7c1.9 0 3.5-1.6 3.5-3.5v-15C19 2.6 17.4 1 15.5 1h-7C6.6 1 5 2.6 5 4.5v2c0 .3-.2.5-.5.5S4 6.8 4 6.5v-2C4 2 6 0 8.5 0h7C18 0 20 2 20 4.5zM12 20c.6 0 1 .4 1 1s-.4 1-1 1-1-.4-1-1 .4-1 1-1zm0 1v-.5.5zm3-18.5c0-.3-.2-.5-.5-.5s-.5.2-.5.5.2.5.5.5.5-.2.5-.5z"/><path class="st0" d="M19.5 19h-2c-.3 0-.5-.2-.5-.5s.2-.5.5-.5h2c.3 0 .5.2.5.5s-.2.5-.5.5zm-4 0h-11c-.3 0-.5-.2-.5-.5s.2-.5.5-.5h11c.3 0 .5.2.5.5s-.2.5-.5.5zm4-14h-15c-.3 0-.5-.2-.5-.5s.2-.5.5-.5h15c.3 0 .5.2.5.5s-.2.5-.5.5z"/>
    </symbol>
    <symbol viewBox="0 0 24 24" id="email">
        <path d="M12 4s-.001 0 0 0c-2.138 0-4.147.833-5.658 2.344S4 9.864 4 12.001s.833 4.146 2.344 5.656S9.863 20 11.999 20h.002a7.989 7.989 0 004.251-1.223.5.5 0 10-.531-.847 6.992 6.992 0 01-3.72 1.07h-.002c-1.869 0-3.626-.728-4.948-2.05S5 13.87 5 12.001c0-1.87.728-3.628 2.05-4.95A6.953 6.953 0 0111.999 5H12c3.858 0 6.999 3.14 7 6.999 0 .692-.313 2-1.5 2s-1.5-1.308-1.5-2v-2.5a.5.5 0 00-.5-.5.493.493 0 00-.481.405A3.974 3.974 0 0012 7.999c-2.206 0-4 1.794-4 4s1.794 4 4 4c1.529 0 2.844-.871 3.517-2.134.416.665 1.075 1.134 1.983 1.134 1.642 0 2.5-1.509 2.5-3C19.999 7.588 16.41 4 12 4zm0 10.999c-1.654 0-3-1.346-3-3s1.346-3 3-3 3 1.346 3 3-1.346 3-3 3z"/>
    </symbol>
    <symbol viewBox="0 0 20 16" id="rating">
        <path d="M8.762.84l1.802 3.652c.125.254.368.43.648.471l4.03.586a.86.86 0 0 1 .477 1.467l-2.916 2.843a.86.86 0 0 0-.247.762l.688 4.014a.86.86 0 0 1-1.249.907l-3.604-1.895a.86.86 0 0 0-.801 0l-3.605 1.895a.86.86 0 0 1-1.249-.907l.689-4.014a.861.861 0 0 0-.248-.762L.261 7.016a.86.86 0 0 1 .477-1.467l4.03-.586a.858.858 0 0 0 .648-.47L7.22.839a.86.86 0 0 1 1.543 0L8.762.84z"/>
    </symbol>
    <symbol viewBox="0 0 24 24" id="back">
        <path d="M19 11H7.414l3.293-3.293a.999.999 0 10-1.414-1.414l-5 5a1.001 1.001 0 000 1.414l5 5a.997.997 0 001.414 0 .999.999 0 000-1.414L7.414 13H19a1 1 0 000-2z"/>
    </symbol>
    <symbol viewBox="0 0 16 16" id="plane">
        <path d="M11.5 16a.55.55 0 01-.07-.005L8 15.505l-3.429.49A.503.503 0 014 15.5v-1a.5.5 0 01.314-.464l2.146-.859-.389-3.507-5.413 1.805A.5.5 0 010 11V9a.5.5 0 01.248-.432l5.753-3.355C6.019 2.892 6.279 0 8 0c1.793 0 2 3.139 2 5.5a.5.5 0 01-1 0C9 1.217 8.167 1 8 1s-1 .217-1 4.5a.5.5 0 01-.248.432L1 9.287v1.02l5.342-1.781a.502.502 0 01.655.419l.5 4.5a.5.5 0 01-.312.52L5 14.839v.085l2.929-.419a.562.562 0 01.142 0l2.929.419v-.085l-2.186-.875a.501.501 0 01-.312-.52l.5-4.5a.508.508 0 01.228-.365.497.497 0 01.428-.053L15 10.307v-1.02L10.754 6.81a.5.5 0 01.504-.864l4.494 2.622c.153.09.248.254.248.432v2a.496.496 0 01-.208.405.508.508 0 01-.45.069L9.929 9.67l-.39 3.507 2.146.859c.191.075.315.26.315.464v1a.5.5 0 01-.5.5z"/>
    </symbol>
    <symbol viewBox="0 0 16 16" id="train">
        <path d="M5,11c0,0.552-0.449,1-1,1s-1-0.448-1-1s0.449-1,1-1S5,10.448,5,11z M12,10c-0.552,0-1,0.448-1,1	s0.448,1,1,1s1-0.448,1-1S12.552,10,12,10z M14.992,4.538C14.993,4.573,15,4.603,15,4.639V6.5C15,6.776,14.776,7,14.5,7	S14,6.776,14,6.5V5H8.5v3h6C14.776,8,15,8.224,15,8.5v3c0,1.315-1.022,2.383-2.312,2.481l1.164,1.164	c0.004,0.004,0.008,0.008,0.011,0.012c0.001,0,0.001,0,0.001,0c0,0.001,0.001,0.001,0.001,0.001	c0.042,0.046,0.075,0.097,0.097,0.151c0.022,0.054,0.036,0.113,0.038,0.176c0,0,0,0,0,0.001c0,0,0,0,0,0.001	c0,0.009,0,0.017,0,0.025c0,0.001,0,0.001,0,0.001c0,0.001,0,0.001,0,0.001c-0.002,0.063-0.016,0.121-0.038,0.176	c-0.021,0.055-0.055,0.105-0.097,0.151c0,0-0.001,0-0.001,0.001c0,0,0,0-0.001,0c-0.006,0.008-0.013,0.015-0.021,0.021	c0,0.001,0,0.001,0,0.001c-0.001,0-0.001,0.001-0.001,0.001c-0.046,0.042-0.097,0.075-0.151,0.097	c-0.055,0.022-0.113,0.036-0.176,0.038c0,0,0,0-0.001,0c0,0,0,0-0.001,0c-0.004,0-0.009,0-0.013,0c-0.001,0-0.001,0-0.002,0H2.501	c-0.003,0.004-0.009,0-0.014,0h0c0,0,0,0-0.001,0c0,0,0,0-0.001,0c-0.062-0.002-0.121-0.016-0.175-0.038	c-0.055-0.021-0.106-0.055-0.151-0.097l0-0.001c0,0,0,0-0.001-0.001c-0.007-0.006-0.014-0.013-0.021-0.021h0	c0-0.001,0-0.001-0.001-0.001c-0.042-0.046-0.075-0.097-0.097-0.151S2.002,15.577,2,15.515c0,0,0,0,0-0.001c0,0,0,0,0-0.001	c0-0.009,0-0.017,0-0.025c0-0.001,0-0.001,0-0.001c0-0.001,0-0.001,0-0.001c0.002-0.063,0.015-0.122,0.038-0.176	c0.022-0.055,0.055-0.105,0.097-0.151c0,0,0,0,0.001-0.001h0c0.004-0.004,0.008-0.008,0.012-0.012l1.164-1.164	C2.023,13.883,1,12.815,1,11.5V4.639c0-0.036,0.007-0.066,0.008-0.101C1.007,4.525,1,4.514,1,4.5c0-0.03,0.012-0.057,0.017-0.085	C1.105,2.839,2.088,2,3.895,2h0.796l-0.5-1H2.5C2.224,1,2,0.776,2,0.5S2.224,0,2.5,0h1.989C4.496,0,4.502,0,4.51,0h6.98	c0.007,0,0.015,0,0.021,0H13.5C13.776,0,14,0.224,14,0.5S13.776,1,13.5,1h-1.691l-0.5,1h0.797c1.806,0,2.789,0.839,2.877,2.415	C14.988,4.443,15,4.47,15,4.5C15,4.514,14.993,4.525,14.992,4.538z M5.809,2h4.382l0.5-1H5.309L5.809,2z M2.069,4h11.862	c-0.157-0.617-0.627-1-1.826-1h-8.21C2.696,3,2.226,3.383,2.069,4z M12.293,15l-1-1H4.707l-1,1H12.293z M14,11.5V9H2v2.5	C2,12.327,2.673,13,3.5,13h9C13.327,13,14,12.327,14,11.5z M7.5,5H2v3h5.5V5z"/>
    </symbol>
    <symbol viewBox="0 0 16 16" id="bus">
        <path d="M14.5,0h-13C0.673,0,0,0.673,0,1.5v12C0,13.776,0.224,14,0.5,14H1v1.5C1,15.776,1.224,16,1.5,16h3	C4.776,16,5,15.776,5,15.5V14h6v1.5c0,0.276,0.224,0.5,0.5,0.5h3c0.276,0,0.5-0.224,0.5-0.5V14h0.5c0.276,0,0.5-0.224,0.5-0.5v-5	C16,8.224,15.776,8,15.5,8S15,8.224,15,8.5V13H1v-3h12.5c0.276,0,0.5-0.224,0.5-0.5S13.776,9,13.5,9H1V1.5C1,1.224,1.224,1,1.5,1h13	C14.775,1,15,1.224,15,1.5V2H2.5C2.224,2,2,2.224,2,2.5S2.224,3,2.5,3H15v3.5C15,6.776,15.224,7,15.5,7S16,6.776,16,6.5v-5	C16,0.673,15.327,0,14.5,0z M4,15H2v-1h2V15z M14,15h-2v-1h2V15z M14,11.5c0,0.276-0.224,0.5-0.5,0.5h-2c-0.276,0-0.5-0.224-0.5-0.5	s0.224-0.5,0.5-0.5h2C13.776,11,14,11.224,14,11.5z M4.5,11C4.776,11,5,11.224,5,11.5S4.776,12,4.5,12h-2C2.224,12,2,11.776,2,11.5	S2.224,11,2.5,11H4.5z"/>
    </symbol>
    <symbol viewBox="0 0 16 16" id="ship">
        <path d="M15.5,15c-0.537,0-1.153-0.229-1.826-0.656C15.212,11.78,16,9.477,16,7.5c0-0.176-0.092-0.338-0.243-0.429 c-0.771-0.463-1.733-0.965-2.86-1.5l-0.71-2.484c-0.177-0.617-0.737-1.045-1.373-1.076l-0.591-1.182C9.967,0.318,9.453,0,8.882,0 H7.118C6.546,0,6.032,0.318,5.777,0.83L5.185,2.011C4.549,2.042,3.989,2.47,3.812,3.088l-0.71,2.484 c-1.127,0.535-2.088,1.037-2.86,1.5C0.092,7.162,0,7.324,0,7.5c0,1.974,0.786,4.273,2.319,6.831C1.592,14.766,0.976,15,0.5,15 C0.224,15,0,15.224,0,15.5S0.224,16,0.5,16c0.709,0,1.529-0.296,2.5-0.904C3.971,15.704,4.791,16,5.5,16 c0.706,0,1.523-0.294,2.489-0.897c1.783,1.188,3.229,1.19,5.011,0.007C13.891,15.7,14.73,16,15.5,16c0.276,0,0.5-0.224,0.5-0.5 S15.776,15,15.5,15z M14.77,9.333c-1.339-0.639-3.443-1.536-6.27-2.67v-1.92c2.794,1.138,4.979,2.16,6.494,3.04 C14.974,8.275,14.896,8.793,14.77,9.333z M7.118,1h1.764c0.19,0,0.361,0.106,0.447,0.277L9.691,2H6.309l0.362-0.724 C6.756,1.106,6.928,1,7.118,1z M4.774,3.362C4.834,3.149,5.032,3,5.254,3h5.492c0.222,0,0.419,0.149,0.48,0.362L11.7,5.018 c-1.048-0.47-2.216-0.963-3.505-1.479c0,0-0.001,0-0.001,0C8.191,3.538,8.188,3.537,8.186,3.536c-0.119-0.048-0.252-0.048-0.371,0 C7.812,3.537,7.809,3.538,7.806,3.539c0,0-0.001,0-0.001,0C6.516,4.055,5.349,4.548,4.301,5.018L4.774,3.362z M7.5,4.743v1.92 c-2.826,1.134-4.932,2.031-6.27,2.67c-0.126-0.539-0.204-1.058-0.224-1.55C2.521,6.902,4.707,5.881,7.5,4.743z M8.294,14.096 c-0.17-0.123-0.397-0.127-0.572-0.012C6.812,14.691,6.063,15,5.5,15c-0.544,0-1.265-0.295-2.134-0.862 c-0.847-1.368-1.463-2.647-1.856-3.83C2.758,9.702,4.769,8.841,7.5,7.74v3.76C7.5,11.776,7.724,12,8,12s0.5-0.224,0.5-0.5V7.74 c2.731,1.101,4.742,1.962,5.99,2.568c-0.393,1.186-1.011,2.466-1.86,3.838C11.837,14.708,11.119,15,10.5,15 C9.86,15,9.118,14.695,8.294,14.096z"/>
    </symbol>
    <symbol viewBox="0 0 16 16" id="auto">
        <path d="M13.904,6.055l-0.729-2.921C13.007,2.466,12.408,2,11.72,2H4.28C3.59,2,2.992,2.467,2.825,3.136L2.096,6.055	C1.464,6.232,1,6.813,1,7.5v3v2C1,12.776,1.224,13,1.5,13h3C4.776,13,5,12.776,5,12.5V11h6v1.5c0,0.276,0.224,0.5,0.5,0.5h3	c0.276,0,0.5-0.224,0.5-0.5v-2v-3C15,6.813,14.536,6.232,13.904,6.055z M3.795,3.378C3.851,3.156,4.05,3,4.28,3h7.44	c0.229,0,0.43,0.156,0.485,0.378L12.859,6H3.14L3.795,3.378z M12.293,7l-0.854,0.854C11.345,7.948,11.22,8,11.086,8H4.914	c-0.131,0-0.26-0.053-0.354-0.146L3.707,7H12.293z M2.328,7.035l1.525,1.525C4.137,8.844,4.514,9,4.914,9h6.172	c0.4,0,0.777-0.156,1.061-0.439l1.525-1.525C13.862,7.106,14,7.285,14,7.5V8h-0.5C13.224,8,13,8.224,13,8.5S13.224,9,13.5,9H14v1H2	V9h0.5C2.776,9,3,8.776,3,8.5S2.776,8,2.5,8H2V7.5C2,7.285,2.138,7.106,2.328,7.035z M4,12H2v-1h2V12z M12,12v-1h2v1H12z"/>
    </symbol>
    <symbol viewBox="0 0 16 16" id="no-transport">
        <path d="M8,0C3.589,0,0,3.589,0,8s3.589,8,8,8s8-3.589,8-8S12.411,0,8,0z M1,8c0-3.86,3.14-7,7-7	c1.75,0,3.348,0.65,4.577,1.716l-0.611,0.611c-0.009-0.024-0.017-0.048-0.03-0.07C11.9,3.19,11.85,3.135,11.79,3.093	c-0.058-0.041-0.124-0.07-0.195-0.084C11.56,3.002,11.524,3.001,11.488,3H4.5C4.285,3,4.094,3.138,4.026,3.342L3.14,6H2.5	C2.224,6,2,6.224,2,6.5v3C2,9.776,2.224,10,2.5,10H3v1.5c0,0.215,0.137,0.395,0.328,0.465l-0.612,0.612C1.65,11.348,1,9.75,1,8z M11.807,6h-1.1l0.825-0.825L11.807,6z M7.707,9l2-2H13v2H7.707z M12,10v1h-1v-1H12z M4.293,11H4v-1h1v0.293L4.293,11z M3,9V7h5.293	l-2,2H3z M9.293,6H4.194L4.86,4h6.279l0.038,0.115L9.293,6z M8,15c-1.75,0-3.348-0.65-4.577-1.716L4.707,12H5.5	C5.776,12,6,11.776,6,11.5v-0.793L6.707,10H10v1.5c0,0.276,0.224,0.5,0.5,0.5h2c0.276,0,0.5-0.224,0.5-0.5V10h0.5	c0.276,0,0.5-0.224,0.5-0.5v-3C14,6.224,13.776,6,13.5,6h-0.64l-0.539-1.615l0.962-0.962C14.35,4.652,15,6.25,15,8	C15,11.859,11.859,15,8,15z"/>
    </symbol>
    <symbol viewBox="0 0 16 16" id="insurance">
        <path d="M8.5 1.031V.5a.5.5 0 00-1 0v.531C1.773 1.355.5 7.054.5 8.5a.5.5 0 00.854.354 1.963 1.963 0 012.793 0 .5.5 0 00.707 0A1.954 1.954 0 017.5 8.733V14.5c0 .393-.107.5-.5.5s-.5-.107-.5-.5a.5.5 0 00-1 0c0 .939.561 1.5 1.5 1.5s1.5-.561 1.5-1.5V8.733a1.955 1.955 0 012.646.12.5.5 0 00.707 0 1.963 1.963 0 012.793 0A.5.5 0 0015.5 8.5c0-1.446-1.274-7.146-7-7.469zm3 6.809a2.95 2.95 0 00-3.5 0c-.515-.383-1.122-.59-1.75-.59s-1.235.207-1.75.59a2.932 2.932 0 00-2.832-.378C2.085 5.627 3.483 2 8 2s5.915 3.627 6.332 5.462a2.934 2.934 0 00-2.832.378z"/>
    </symbol>
    <symbol viewBox="0 0 16 16" id="transfer">
        <path d="M14.5 0h-13C.673 0 0 .673 0 1.5v12a.5.5 0 00.5.5H1v1.5a.5.5 0 00.5.5h3a.5.5 0 00.5-.5V14h6v1.5a.5.5 0 00.5.5h3a.5.5 0 00.5-.5V14h.5a.5.5 0 00.5-.5v-5a.5.5 0 00-1 0V13H1v-3h12.5a.5.5 0 000-1H1V1.5a.5.5 0 01.5-.5h13a.5.5 0 01.5.5V2H2.5a.5.5 0 000 1H15v3.5a.5.5 0 001 0v-5c0-.827-.673-1.5-1.5-1.5zM4 15H2v-1h2v1zm10 0h-2v-1h2v1zm-9.5-4a.5.5 0 010 1h-2a.5.5 0 010-1h2zm9 0h-2a.5.5 0 000 1h2a.5.5 0 000-1z"/>
    </symbol>
    <symbol viewBox="0 0 16 16" id="rooms">
        <path d="M14.5 7H14v-.5c0-.8271-.6729-1.5-1.5-1.5h-3C8.6729 5 8 5.6729 8 6.5 8 5.6729 7.3271 5 6.5 5h-3C2.6729 5 2 5.6729 2 6.5v-3C2 2.771 2.771 2 3.5 2h9c.7285 0 1.5.771 1.5 1.5v2c0 .2764.2236.5.5.5s.5-.2236.5-.5v-2C15 2.2148 13.7852 1 12.5 1h-9C2.2148 1 1 2.2148 1 3.5v3.5921C.4193 7.2991 0 7.849 0 8.5v3c0 .2764.2236.5.5.5H1v.5c0 .8271.6729 1.5 1.5 1.5H3v.5c0 .2764.2236.5.5.5s.5-.2236.5-.5V14h8v.5c0 .2764.2236.5.5.5s.5-.2236.5-.5V14h.5c.8271 0 1.5-.6729 1.5-1.5V12h.5c.2764 0 .5-.2236.5-.5v-3c0-.8271-.6729-1.5-1.5-1.5zM9 6.5c0-.2759.2246-.5.5-.5h3c.2754 0 .5.2241.5.5V7H9v-.5zm-6 0c0-.2759.2241-.5.5-.5h3c.2759 0 .5.2241.5.5V7H3v-.5zM15 11H3.5c-.2764 0-.5.2236-.5.5s.2236.5.5.5H14v.5a.501.501 0 01-.5.5h-11a.5007.5007 0 01-.5-.5v-1c0-.2764-.2236-.5-.5-.5H1V8.5c0-.2759.2241-.5.5-.5h13c.2754 0 .5.2241.5.5V11z"/>
    </symbol>
    <symbol viewBox="0 0 16 16" id="food">
        <path d="M15.5 10h-11a.5.5 0 000 1h10.45a2.504 2.504 0 01-2.45 2h-9a2.504 2.504 0 01-2.45-2H2.5a.5.5 0 000-1h-.478A5.509 5.509 0 017.5 5h1a5.501 5.501 0 015.208 3.729.5.5 0 00.948-.322A6.49 6.49 0 0010 4.195V3.5C10 2.673 9.327 2 8.5 2h-1C6.673 2 6 2.673 6 3.5v.682C3.295 4.825 1.237 7.156 1.019 10H.5a.5.5 0 00-.5.5C0 12.43 1.57 14 3.5 14h9c1.93 0 3.5-1.57 3.5-3.5a.5.5 0 00-.5-.5zM7 4v-.5a.5.5 0 01.5-.5h1a.5.5 0 01.5.5V4H7z"/>
    </symbol>
    <symbol viewBox="0 0 16 16" id="arrow-close">
        <path d="M11 12a.997.997 0 01-.707-.293L8 9.414l-2.293 2.293a.999.999 0 11-1.414-1.414L6.586 8 4.293 5.707a.999.999 0 111.414-1.414L8 6.586l2.293-2.293a.999.999 0 111.414 1.414L9.414 8l2.293 2.293A.999.999 0 0111 12z"/>
    </symbol>
    <symbol viewBox="0 0 24 24" id="arrow-bottom">
        <path d="M17 10.005a.995.995 0 01-.294.709l-3.996 3.991a1.001 1.001 0 01-1.416.004l-.004-.004-3.996-3.991a1 1 0 01-.002-1.415l.003-.003a1.007 1.007 0 011.419 0L12 12.578l3.286-3.283a1 1 0 011.414-.004l.006.006c.19.187.296.442.294.708z"/>
    </symbol>
    <symbol viewBox="0 0 32 32" id="close">
        <path d="M22 23a.997.997 0 01-.707-.293L16 17.414l-5.293 5.293a.999.999 0 11-1.414-1.414L14.586 16l-5.293-5.293a.999.999 0 111.414-1.414L16 14.586l5.293-5.293a.999.999 0 111.414 1.414L17.414 16l5.293 5.293A.999.999 0 0122 23z"/>
    </symbol>
    <symbol viewBox="0 0 16 16" id="send">
        <path d="M1 23a1.001 1.001 0 01-.928-1.371l3.703-9.257a.997.997 0 000-.744L.072 2.372A.999.999 0 011.414 1.09l22 10A.999.999 0 0123 13H9a1 1 0 110-2h9.384L2.854 3.941l2.778 6.944c.288.718.288 1.51 0 2.229l-2.801 7.003 12.772-5.535a1 1 0 01.794 1.836l-15 6.5A1.001 1.001 0 011 23z"/>
    </symbol>  
    <symbol viewBox="0 0 24 24" id="filters">
        <path d="M12.5 17h-1a.5.5 0 010-1h1a.5.5 0 010 1zm2-3h-5a.5.5 0 010-1h5a.5.5 0 010 1zm2-3h-9a.5.5 0 010-1h9a.5.5 0 010 1zm2-3h-13a.5.5 0 010-1h13a.5.5 0 010 1z"/>
    </symbol>
    <symbol viewBox="0 0 24 24" id="kyivstar">
        <path fill="#4696D5" d="M12 9.326c-.865 0-1.567-.702-1.567-1.567V2.078c0-.865.702-1.567 1.567-1.567s1.567.702 1.567 1.567v5.681c0 .865-.702 1.567-1.567 1.567zm5.514 3.578l5.403-1.755c.823-.267 1.274-1.151 1.006-1.974-.267-.823-1.15-1.273-1.975-1.006l-5.403 1.755c-.823.267-1.274 1.151-1.006 1.974.215.662.829 1.083 1.49 1.083.161 0 .324-.025.485-.077zm1.855 10.286c.7-.509.855-1.489.347-2.189l-3.339-4.596c-.509-.7-1.489-.855-2.189-.347-.7.509-.855 1.489-.347 2.189l3.339 4.596c.307.422.785.646 1.269.646.319 0 .642-.097.92-.299zM6.82 22.843l3.339-4.596c.509-.7.354-1.68-.347-2.189-.7-.508-1.68-.353-2.189.347l-3.339 4.596c-.509.7-.354 1.68.347 2.189.278.202.6.299.92.299.484 0 .962-.224 1.269-.646zm1.64-10.946c.267-.823-.183-1.707-1.006-1.974L2.052 8.168C1.228 7.9.345 8.351.077 9.174s.183 1.707 1.006 1.974l5.402 1.755c.161.052.324.077.485.077.661.001 1.275-.42 1.49-1.083z"/>
    </symbol>
    <symbol viewBox="0 0 24 24" id="lifecell">
        <path fill="#F4C844" d="M4.024 20.86c-.792-.45-1.229-1.209-1.793-1.837-.185-.211-.109-.516-.085-.773.379-3.74 1.831-6.965 4.71-9.496.085-.08.18-.155.261-.234.455-.446.815-.695 1.498-.17.84.642 1.912.595 2.794-.005.854-.577 1.371-1.458 1.205-2.522-.171-1.078-.778-1.964-1.859-2.259-1.618-.44-3.221.586-3.359 2.166-.043.511-.275.726-.664.876-1.987.764-3.643 1.974-5.061 3.535-.564.619-1.01 1.317-1.575 2.133-.138-.867-.128-1.64.033-2.353.332-1.477.816-2.907 1.651-4.219 1.594-2.498 3.776-4.2 6.607-5.114 4.99-1.612 10.075.197 13.13 4.12 1.262 1.622 2.03 3.464 2.334 5.526.64 4.331-.797 7.902-3.965 10.813-1.698 1.556-3.757 2.451-6.1 2.822-1.746.277-3.373.089-5.037-.319-.489-.117-.517-.37-.432-.722.484-2.105 1.352-4.054 2.609-5.812s2.898-3.093 4.852-4.068c.365-.183.598-.183.915.056 1.414 1.073 3.04.741 3.923-.689.835-1.345.261-3.572-1.636-3.89-1.67-.281-2.884.497-3.173 2.123-.047.281-.194.427-.493.539-2.068.773-4.046 1.687-5.811 3.065-2.093 1.632-3.758 3.586-5.043 5.878-.152.258-.285.535-.436.83z"/>
    </symbol>
    <symbol viewBox="0 0 24 24" id="vodafone">
        <path fill="#D24A43" d="M15.601.687c-1.566.097-3.052.49-4.472 1.18-3.712 1.802-6.047 5.837-5.752 9.994.22 3.098 2.381 5.769 5.302 6.352 3.989.792 7.27-2.292 7.355-6.012.07-3.229-1.425-5.327-4.505-6.298-.502-.16-.586-.413-.52-.864.286-1.855 1.266-3.157 2.925-3.909.445-.199.858-.189 1.303.039 3.084 1.583 5.245 4.006 6.267 7.43 1.355 4.536-.127 9.46-3.708 12.514-4.509 3.846-11.077 3.851-15.591.015C-.548 17.088-1.42 9.959 2.349 4.913 5.349.897 9.39-.57 14.208.198c.473.078.938.209 1.406.311.006.056-.004.114-.013.178z"/>
    </symbol>
    <symbol viewBox="0 0 28 28" id="recomend">
        <path d="M14 0C6.2680054 0 0 6.2680054 0 14s6.2680054 14 14 14 14-6.2680054 14-14S21.7319946 0 14 0zm-4 20H7c-.552002 0-1-.4019775-1-.8980103v-7.1820068c0-.4959717.447998-.8980103 1-.8980103h3V20zm11.9530029-6.7230225l-1.0679932 4.8880005c-.3010254 1.0827026-1.2862549 1.8324585-2.4100342 1.8340454H13.5c-1.3783569 0-2.4967041-1.1156616-2.5-2.4940186v-5.2200317c0-.6169434.2280273-1.2099609.6409912-1.6699829l3.9869995-4.4190063c.1239624-.1373291.3135986-.1950073.492981-.1499634l-.0899658-.0140381.0899658.0140381.7340088.1829834c.4570313.1140137.8260498.4260254 1.0130005.8569946.1870117.4299927.1640015.9119873-.0650024 1.3220215l-1.0409546 1.8699951c-.0880127.1541748-.0857544.3439331.0059814.4959717.0887451.1537476.253479.2478027.4309692.2460327h2.9540405c1.0200806.0004883 1.8465576.8278198 1.8460693 1.8479004-.000061.1376343-.0155029.2748413-.0460815.4090576z"/>
    </symbol>
    <symbol viewBox="0 0 24 24" id="detail-office">
        <path d="M16.5 24h-2a.4997.4997 0 01-.5-.5V22h-4v1.5c0 .2764-.2236.5-.5.5h-2a.4997.4997 0 01-.5-.5v-1.5498C5.8604 21.7178 5 20.707 5 19.5v-12C5 6.1216 6.1216 5 7.5 5h9C17.879 5 19 6.1216 19 7.5v9c0 .2764-.2236.5-.5.5s-.5-.2236-.5-.5v-9c0-.8271-.6729-1.5-1.5-1.5h-9C6.6729 6 6 6.6729 6 7.5v12c0 .8271.6729 1.5 1.5 1.5h9c.8271 0 1.5-.6729 1.5-1.5v-1c0-.2764.2236-.5.5-.5s.5.2236.5.5v1c0 1.207-.8604 2.2178-2 2.4502V23.5c0 .2764-.2236.5-.5.5zM15 23h1v-1h-1v1zm-7 0h1v-1H8v1zm6.5-17a.4997.4997 0 01-.5-.5v-4c0-.2764.2236-.5.5-.5s.5.2236.5.5v4c0 .2764-.2236.5-.5.5zm-5-2a.4997.4997 0 01-.5-.5v-2c0-.2764.2236-.5.5-.5s.5.2236.5.5v2c0 .2764-.2236.5-.5.5zM15 2H9v-.5C9 .6729 9.6729 0 10.5 0h3c.8271 0 1.5.6729 1.5 1.5V2zm-4.5-1h3-3zm3 18a.4997.4997 0 01-.5-.5v-10c0-.2764.2236-.5.5-.5s.5.2236.5.5v10c0 .2764-.2236.5-.5.5zm-3 0a.4997.4997 0 01-.5-.5v-10c0-.2764.2236-.5.5-.5s.5.2236.5.5v10c0 .2764-.2236.5-.5.5zm5-1a.4997.4997 0 01-.5-.5v-8c0-.2764.2236-.5.5-.5s.5.2236.5.5v8c0 .2764-.2236.5-.5.5zm-7 0a.4997.4997 0 01-.5-.5v-8c0-.2764.2236-.5.5-.5s.5.2236.5.5v8c0 .2764-.2236.5-.5.5z"/>
    </symbol>
    <symbol viewBox="0 0 16 16" id="viber">
        <path fill="#7143b9" d="M4.85 13.333c.004-.381.011-.762.015-1.143 0-.089.011-.078-.075-.115-.479-.189-.924-.425-1.317-.758-.415-.351-.741-.765-.98-1.25-.229-.465-.356-.961-.427-1.471-.026-.2-.041-.399-.041-.599 0-.189-.03-.377-.034-.566-.004-.133-.007-.27-.004-.403.004-.274-.022-.547-.011-.821.022-.621.134-1.227.381-1.804.352-.821.928-1.442 1.714-1.878.591-.325 1.22-.532 1.886-.64.412-.067.823-.104 1.239-.115.494-.014.988-.011 1.486-.003.636.007 1.265.067 1.882.214.588.137 1.141.355 1.65.677.617.388 1.089.902 1.407 1.557.198.403.318.828.397 1.268.056.325.079.651.075.98-.003.347-.011.695-.033 1.039-.015.237-.015.473-.026.71-.041.654-.176 1.287-.468 1.878-.359.725-.902 1.272-1.613 1.668-.588.325-1.216.529-1.875.64-.516.085-1.04.126-1.564.126-.322 0-.644-.004-.966 0-.165 0-.329.004-.494-.015-.052-.004-.09.011-.123.052-.258.296-.516.592-.778.887-.322.366-.644.732-.962 1.094-.034.037-.071.074-.112.1-.101.067-.206.03-.232-.089-.007-.026-.004-.059-.004-.085-.004-.377.003-.758.007-1.135z"/>
        <path fill="#FFF" d="M4.337 5.146c.011-.451.221-.791.599-1.035.157-.104.329-.185.516-.222.195-.041.382-.015.546.107.109.078.198.174.288.27.299.325.554.677.76 1.069.034.067.064.137.087.211.064.211.015.396-.127.558-.053.059-.113.111-.176.159-.06.041-.12.085-.176.137-.131.122-.169.27-.128.44.015.07.041.137.067.2.153.333.359.632.625.891.158.151.326.284.513.399.18.111.359.214.561.285.188.066.33.026.454-.13.052-.067.097-.137.157-.2.112-.118.24-.207.4-.244.176-.04.345-.011.505.06.153.063.288.159.423.251.269.185.531.381.786.584.067.055.127.118.183.189.131.17.157.359.101.558-.052.192-.15.359-.277.51-.221.266-.49.466-.823.573-.09.03-.18.048-.273.055-.12.011-.232-.03-.344-.063-.109-.03-.21-.081-.311-.126-.505-.222-.992-.484-1.452-.788-.692-.455-1.31-.987-1.849-1.612-.4-.466-.748-.969-1.044-1.509a8.59 8.59 0 0 1-.501-1.063c-.056-.159-.09-.362-.09-.514zm7.208 1.505c-.004.122.011.211 0 .296-.026.211-.213.322-.412.24-.12-.048-.157-.152-.168-.266-.011-.14-.023-.281-.045-.421-.075-.433-.195-.85-.43-1.228-.176-.281-.404-.51-.689-.691-.329-.211-.696-.333-1.078-.418-.164-.037-.333-.067-.501-.081a.445.445 0 0 1-.116-.026c-.116-.041-.176-.126-.169-.248.015-.214.138-.299.307-.299.64-.011 1.224.155 1.759.499.314.203.595.444.827.736.449.565.711 1.208.715 1.907zm-.969-.066c-.004.063.007.144-.011.226-.026.137-.123.214-.269.218-.153.004-.251-.063-.284-.2-.016-.052-.016-.107-.024-.163a2.5838 2.5838 0 0 0-.183-.725c-.135-.332-.378-.558-.711-.698-.232-.097-.472-.167-.719-.204-.067-.011-.131-.026-.191-.055a.2097.2097 0 0 1-.075-.059c-.082-.1-.079-.207-.034-.318.038-.1.117-.156.225-.167.09-.011.18.004.27.019.251.037.494.1.726.207.296.141.55.336.767.581.183.211.322.444.412.706.063.203.097.406.101.632zm-.932-.071c0 .074 0 .148-.026.218-.038.108-.116.171-.229.185-.116.015-.209-.025-.273-.122-.034-.048-.049-.099-.056-.155-.015-.092-.026-.188-.064-.273-.078-.189-.228-.3-.423-.352-.037-.011-.078-.018-.116-.026l-.094-.022c-.138-.041-.21-.126-.21-.244 0-.141.079-.255.21-.292.127-.037.258-.03.385.004.304.085.529.273.705.525.116.163.191.347.191.554z"/>
    </symbol>
    <symbol viewBox="0 0 24 24 " id="sort-filter">
        <path d="M6.5203776,15.208333h0.9940929L6.2864733,19L5,15.208333h0.9940929V5h0.5262847V15.208333z M16.6367359,9.083333H8.9763727c-0.1169529,0-0.1754284,0.0583334-0.1754284,0.1750002v0.6416674	c0,0.1166658,0.0584755,0.1750002,0.1169519,0.1750002h7.6603642c0.0584755,0,0.116951-0.0583344,0.116951-0.1750002V9.2583332	C16.7536888,9.1416664,16.6952114,9.083333,16.6367359,9.083333z M18.9173012,5H8.9763718	C8.8594198,5,8.8009434,5.0583334,8.8009434,5.1750002v0.6416664c0,0.1166668,0.0584764,0.1750002,0.1169519,0.1750002h9.9409304	c0.0584755,0,0.1169529-0.0583334,0.1169529-0.1750002V5.1750002C19.0342541,5.0583334,18.9757786,5,18.9173012,5z M11.7832232,17.1916656H8.9763727c-0.0584764,0-0.1169529,0.0583344-0.1169529,0.1750011v0.6416664	c0,0.1166668,0.0584764,0.1749992,0.1169529,0.1749992h2.8068504c0.0584764,0,0.1169519-0.0583344,0.1169519-0.1749992v-0.6416664	C11.9001751,17.3083324,11.8416986,17.1916656,11.7832232,17.1916656z M14.0637894,13.166667H8.9178963	c-0.0584764,0-0.1169519,0.0583334-0.1169519,0.1750002v0.6416664c0,0.1166668,0.0584755,0.1750002,0.1169519,0.1750002h5.1458931	c0.0584764,0,0.1169519-0.0583334,0.1169519-0.1750002v-0.6416664C14.1807413,13.2250004,14.1222649,13.166667,14.0637894,13.166667	z"/>
    </symbol>
    <symbol viewBox="0 0 24 24 " id="star-stroke">
        <path d="M18.3560734,23.0358887c-0.2011719,0-0.4042969-0.0507813-0.5878906-0.1464844l-5.1992188-2.7333984	c-0.3500977-0.1826172-0.7856445-0.1835938-1.1386719,0.0009766l-5.1943364,2.7314453	C5.8077331,23.111084,5.2930846,23.072998,4.908319,22.7927246c-0.3896484-0.2832031-0.5820313-0.7548828-0.5014648-1.2314453	l0.9931641-5.7880859c0.0673828-0.3964844-0.0639648-0.8007813-0.3510742-1.0800781l-4.2055664-4.0996094	c-0.3466797-0.3378906-0.46875-0.8330078-0.3183594-1.2919922c0.1484375-0.4584961,0.5375976-0.7871094,1.015625-0.8574219	l5.8115234-0.8442383c0.3984375-0.0576172,0.742188-0.3071289,0.9194341-0.6679688l2.5986328-5.265625	c0.2133789-0.4331055,0.6464844-0.7021484,1.1298828-0.7021484c0.4819336,0,0.9145508,0.2685547,1.1293945,0.7006836	l2.5996094,5.2670898c0.1777344,0.3608398,0.5205078,0.6103516,0.9179688,0.6679688l5.8125,0.8442383	c0.4775391,0.0698242,0.8671875,0.3984375,1.0166016,0.8579102c0.1484375,0.4604492,0.0263672,0.9550781-0.3193359,1.2915039	l-4.2041016,4.0986328c-0.2880859,0.2802734-0.4189453,0.6845703-0.3505859,1.0820313l0.9921875,5.7861328	c0.0820313,0.4755859-0.109375,0.9482422-0.5009766,1.2324219C18.8736515,22.9519043,18.6187687,23.0358887,18.3560734,23.0358887z M12.0006046,19.0163574c0.3579102,0,0.7148438,0.0878906,1.0322266,0.2539063l5.1992188,2.7333984	c0.0927734,0.0458984,0.1884766,0.0439453,0.2744141-0.0205078c0.0849609-0.0615234,0.1201172-0.1484375,0.1025391-0.2519531	l-0.9931641-5.7880859c-0.1230469-0.7226563,0.1162109-1.4580078,0.6396484-1.9677734l4.2041016-4.0976563	c0.0751953-0.0737305,0.0976563-0.1660156,0.0654297-0.2670898c-0.0332031-0.1000977-0.1054688-0.1616211-0.2099609-0.1772461	l-5.8115234-0.8442383c-0.7236328-0.1044922-1.3486328-0.559082-1.6708984-1.215332l-2.5986328-5.2651367	c-0.09375-0.1884766-0.3735352-0.1894531-0.4672852,0l-2.5981445,5.265625	c-0.3232422,0.65625-0.9487305,1.1103516-1.6733403,1.2148438L1.6851746,9.4333496	C1.5811707,9.4489746,1.5084168,9.5100098,1.4757019,9.611084C1.4429871,9.7116699,1.465448,9.8034668,1.5416199,9.8776855	l4.2050781,4.0986328c0.5229492,0.5097656,0.7617188,1.2441406,0.6386719,1.9658203L5.392694,21.7302246	c-0.0175781,0.1035156,0.0180664,0.1914063,0.1035156,0.2539063s0.1831055,0.0664063,0.2758789,0.0185547l5.1943364-2.7314453	C11.2867374,19.104248,11.643671,19.0163574,12.0006046,19.0163574z"/>
    </symbol>
    <symbol viewBox="0 0 16 16" id="facebook">
        <path d="M13.5 0h-11C1.1 0 0 1.1 0 2.5v11C0 14.9 1.1 16 2.5 16h5c.3 0 .5-.2.5-.5v-6c0-.3-.2-.5-.5-.5H6V8h1.5c.3 0 .5-.2.5-.5v-2C8 4.7 8.7 4 9.5 4h2.4l-.3 1h-1.1C9.7 5 9 5.7 9 6.5v1c0 .3.2.5.5.5H11v1H9.5c-.3 0-.5.2-.5.5v6c0 .3.2.5.5.5h4c1.4 0 2.5-1.1 2.5-2.5v-11C16 1.1 14.9 0 13.5 0zM15 13.5c0 .8-.7 1.5-1.5 1.5H10v-5h1.5c.3 0 .5-.2.5-.5v-2c0-.3-.2-.5-.5-.5H10v-.5c0-.3.2-.5.5-.5H12c.2 0 .4-.2.5-.4l.5-2c0-.1 0-.3-.1-.4-.1-.1-.2-.2-.4-.2h-3C8.1 3 7 4.1 7 5.5V7H5.5c-.3 0-.5.2-.5.5v2c0 .3.2.5.5.5H7v5H2.5c-.8 0-1.5-.7-1.5-1.5v-11C1 1.7 1.7 1 2.5 1h11c.8 0 1.5.7 1.5 1.5v11z"/>
    </symbol>
    <symbol viewBox="0 0 16 16" id="instagram">
        <path d="M12.5 0h-9C1.6 0 0 1.6 0 3.5v9C0 14.4 1.6 16 3.5 16h9c1.9 0 3.5-1.6 3.5-3.5v-9C16 1.6 14.4 0 12.5 0zM15 12.5c0 1.4-1.1 2.5-2.5 2.5h-9C2.1 15 1 13.9 1 12.5v-9C1 2.1 2.1 1 3.5 1h9C13.9 1 15 2.1 15 3.5v9zM8 4C5.8 4 4 5.8 4 8s1.8 4 4 4 4-1.8 4-4-1.8-4-4-4zm0 7c-1.7 0-3-1.3-3-3s1.3-3 3-3 3 1.3 3 3-1.3 3-3 3zm4.5-9c-.8 0-1.5.7-1.5 1.5S11.7 5 12.5 5 14 4.3 14 3.5 13.3 2 12.5 2zm0 2c-.3 0-.5-.2-.5-.5s.2-.5.5-.5.5.2.5.5-.2.5-.5.5z"/>
    </symbol>
    <symbol viewBox="0 0 16 16" id="telegram">
        <path d="M15.8.1c-.1-.1-.3-.1-.5-.1L.3 5.7c-.2.1-.3.3-.3.5s.1.4.3.6L4.1 9l1 6c0 .1 0 .2.1.2h.1c.1.1.1.1.2.1s.2 0 .2-.1l2.8-2.7 3.5 3.3c.1.1.2.1.3.1h.2c.2-.1.3-.2.3-.4l3-14.9c.2-.1.2-.3 0-.5zm-9.2 10c-.1 0-.1 0 0 0l-.9 2.7-.6-3.9 4.6-2.8-3.1 3.8v.2zm0 2.9l.6-1.8.7.6L6.6 13zm5.6 1.4l-4.5-4.2 4.6-5.8c.2-.2.2-.5 0-.7-.2-.2-.4-.3-.6-.2L4.5 7.9 1.8 6.4l13-5-2.6 13z"/>
    </symbol>
    <symbol viewBox="0 0 24 24" id="google-gray">
        <path d="M11.5 9.2v5.6h6.3c-1.1 2.2-3.3 3.6-5.8 3.6-3.5 0-6.4-2.9-6.4-6.4 0-3.5 2.9-6.4 6.4-6.4 1.5 0 3 .5 4.1 1.5l.4.3 3.7-4.2-.4-.3C17.7 1 14.9 0 12 0 5.4 0 0 5.4 0 12s5.4 12 12 12 12-5.4 12-12V9.2H11.5zM23 12c0 6.1-4.9 11-11 11S1 18.1 1 12 5.9 1 12 1c2.5 0 4.9.8 6.8 2.4l-2.4 2.7A7.1 7.1 0 0012 4.6c-4.1 0-7.4 3.3-7.4 7.4 0 4.1 3.3 7.4 7.4 7.4 3.1 0 5.9-2 7-4.9l.2-.7h-6.7v-3.6H23V12z"/>
    </symbol>
    <symbol viewBox="0 0 24 24" id="facebook-gray">
        <path d="M15.6 6.7h4.9V1.5h-7.8c-2.4 0-4.8 1.8-4.8 3.6v3.7H3.5V14h4.4v8.4h6.8V14H19V8.9h-4.4V7.3c.1-.2.5-.6 1-.6zM18 9.9v3.2h-4.4v8.4H8.8v-8.4H4.5V9.9h4.4V5.1c0-1.2 1.9-2.6 3.8-2.6h6.8v3.2h-3.9c-1 0-2 .7-2 1.6v2.6H18z"/>
    </symbol>
    <symbol viewBox="0 0 24 24" id="twitter-gray">
        <path d="M23.2 4c-.2.1-.5.3-.8.4l.1-.1c.3-.4.7-.9.6-1.6v-.9l-.7.5c-.8.5-1.5.7-2.3.6-.9-.9-2-1.4-3.2-1.4-1.3 0-2.6.6-3.5 1.6-.9 1-1.4 2.4-1.4 3.8v.9c-3.3 0-6.2-2.6-7.7-4-.4-.2-.5-.3-.7-.4-.1-.2-.3-.3-.4-.4l-.5-.4-.2.6c-.7 1.6-.6 3-.5 4.2 0 .6.1 1.2 0 1.7 0 1.8.6 3.1 1.1 4.1.2.4.3.7.5 1.1.7 2.5 2.5 3.4 3.5 3.6h.1c-.1.1-.1.1-.2.1-2 1.7-4.9 1.3-5.3 1.2l-1.3-1 .6 1.6.1.2.1.1c2.4 2 5.2 2.4 7.1 2.4 1.5 0 2.6-.3 2.8-.3 3.3-.9 5.8-2.6 7.6-5.2 2.5-3.5 2.8-7.7 3-9.5v-.3c1.3-1.3 1.8-2 2-2.4 0-.1.1-.1.1-.1l-.6-.7zM21 6.6l-.1.1-.1.7c-.1 1.9-.5 5.7-2.8 9-1.7 2.4-4 4-7.1 4.8-.1 0-3.9 1-7.5-.9 1.3-.1 2.9-.4 4.3-1.6l.9-.9.6-.8h-1c-.3 0-.6 0-.9-.1-1-.3-2.2-1-2.8-3-.2-.4-.3-.8-.5-1.2-.5-1-1-2.1-1-3.6.1-.5 0-1.1 0-1.8-.1-.9-.2-1.9.2-3l.3.3C5.1 6 8.2 8.7 11.8 8.8H13l-.1-.6c0-.2-.1-.4-.1-.6V7c0-1.2.4-2.3 1.2-3.2.7-.8 1.7-1.3 2.7-1.3 1 0 1.9.4 2.6 1.2l.1.1h.2c.7.1 1.4 0 2-.2l-2.1 2.6 2.4-.7c-.2.3-.5.7-.9 1.1z"/>
    </symbol>
</svg>

