<svg xmlns="http://www.w3.org/2000/svg" xmlns:xlink="http://www.w3.org/1999/xlink" width="0" height="0" fill="#000">
    <symbol viewBox="0 0 24 24" id="catalogue">
        <path d="M6,19h13.5c0.827,0,1.5-0.673,1.5-1.5v-15C21,1.673,20.327,1,19.5,1h-14C4.122,1,3,2.122,3,3.5v17 C3,21.879,4.122,23,5.5,23h14c0.827,0,1.5-0.673,1.5-1.5v-1c0-0.276-0.224-0.5-0.5-0.5S20,20.224,20,20.5v1 c0,0.275-0.225,0.5-0.5,0.5h-14C4.673,22,4,21.327,4,20.5C4,19.802,4.228,19,6,19z M12,2h5v5.566l-2.223-1.482 c-0.168-0.112-0.387-0.112-0.555,0L12,7.566V2z M4,3.5C4,2.673,4.673,2,5.5,2H7v12.5C7,14.776,7.224,15,7.5,15S8,14.776,8,14.5V2h3 v6.5c0,0.185,0.102,0.354,0.264,0.441c0.162,0.087,0.36,0.077,0.513-0.025L14.5,7.101l2.723,1.815C17.307,8.972,17.403,9,17.5,9 c0.081,0,0.162-0.02,0.236-0.059C17.898,8.854,18,8.685,18,8.5V2h1.5C19.775,2,20,2.224,20,2.5v15c0,0.275-0.225,0.5-0.5,0.5H8 v-1.5C8,16.224,7.776,16,7.5,16S7,16.224,7,16.5V18H6c-0.912,0-1.552,0.191-2,0.479V3.5z"/>
    </symbol>
    <symbol viewBox="0 0 24 24" id="lock">
        <path d="M19,12.5v-1c0-0.276-0.225-0.5-0.5-0.5h-12C5.673,11,5,11.673,5,12.5V16c0,2.757,2.243,5,5,5h3.5c3.032,0,5.5-2.468,5.5-5.5	v-1c0-0.276,0.224-0.5,0.5-0.5s0.5,0.224,0.5,0.5v1c0,3.584-2.916,6.5-6.5,6.5H10c-3.309,0-6-2.691-6-6v-3.5	C4,11.122,5.122,10,6.5,10H17V6.5C17,4.57,15.43,3,13.5,3h-2C9.57,3,8,4.57,8,6.5v1C8,7.776,7.776,8,7.5,8S7,7.776,7,7.5v-1	C7,4.019,9.019,2,11.5,2h2C15.981,2,18,4.019,18,6.5V10h0.5c0.827,0,1.5,0.673,1.5,1.5v1c0,0.276-0.224,0.5-0.5,0.5	S19,12.776,19,12.5z M12.5,13c0.827,0,1.5,0.673,1.5,1.5v3c0,0.827-0.673,1.5-1.5,1.5h-1c-0.827,0-1.5-0.673-1.5-1.5v-3	c0-0.827,0.673-1.5,1.5-1.5H12.5z M12.5,14h-1c-0.276,0-0.5,0.225-0.5,0.5v3c0,0.275,0.224,0.5,0.5,0.5h1c0.275,0,0.5-0.225,0.5-0.5	v-3C13,14.225,12.775,14,12.5,14z"/>
    </symbol>
    <symbol viewBox="0 0 24 24" id="timer">
        <path d="M18.359,21.075c0.174,0.215,0.141,0.529-0.074,0.703c-0.306,0.248-0.631,0.479-0.965,0.69	c-0.083,0.053-0.175,0.077-0.267,0.077c-0.166,0-0.328-0.083-0.423-0.233c-0.147-0.233-0.077-0.542,0.156-0.689	c0.303-0.19,0.593-0.398,0.869-0.622C17.872,20.827,18.187,20.86,18.359,21.075z M22,14c0.004,2.293-0.793,4.535-2.243,6.313	c-0.176,0.215-0.491,0.244-0.704,0.071c-0.214-0.175-0.245-0.49-0.071-0.704c1.2-1.47,1.895-3.293,1.998-5.181H19.5	c-0.276,0-0.5-0.224-0.5-0.5s0.224-0.5,0.5-0.5h1.475c-0.253-4.563-3.912-8.222-8.475-8.475V6.5C12.5,6.776,12.276,7,12,7	s-0.5-0.224-0.5-0.5V5.025C6.937,5.278,3.278,8.937,3.025,13.5H4.5C4.776,13.5,5,13.724,5,14s-0.224,0.5-0.5,0.5H3.025	c0.253,4.563,3.912,8.222,8.475,8.475V21.5c0-0.276,0.224-0.5,0.5-0.5s0.5,0.224,0.5,0.5v1.48c0.801-0.044,1.589-0.187,2.345-0.439	c0.264-0.088,0.545,0.055,0.633,0.316c0.087,0.262-0.055,0.545-0.316,0.633C14.146,23.828,13.082,24,12,24C6.486,24,2,19.514,2,14	c0-2.067,0.63-3.989,1.708-5.585L3.354,8.061c-0.585-0.585-0.585-1.536,0-2.121l0.586-0.586c0.585-0.585,1.536-0.585,2.121,0	l0.355,0.355C7.482,4.988,8.695,4.467,10,4.202V3H9.5C8.673,3,8,2.327,8,1.5S8.673,0,9.5,0h5C15.327,0,16,0.673,16,1.5	S15.327,3,14.5,3H14v1.202c1.304,0.266,2.517,0.786,3.584,1.507l0.355-0.355c0.584-0.585,1.537-0.585,2.121,0l0.586,0.586	c0.585,0.585,0.585,1.536,0,2.121l-0.355,0.355C21.37,10.011,22,11.933,22,14z M11,2.5v1.551C11.329,4.018,11.662,4,12,4	s0.671,0.018,1,0.051V3h-0.5C12.224,3,12,2.776,12,2.5S12.224,2,12.5,2h2C14.775,2,15,1.776,15,1.5S14.775,1,14.5,1h-5	C9.224,1,9,1.224,9,1.5S9.224,2,9.5,2h1C10.776,2,11,2.224,11,2.5z M5.609,6.317L5.354,6.061c-0.189-0.188-0.518-0.188-0.707,0	L4.061,6.646c-0.195,0.195-0.195,0.512,0,0.707l0.256,0.256C4.707,7.14,5.14,6.707,5.609,6.317z M19.683,7.61l0.256-0.256	c0.195-0.195,0.195-0.512,0-0.707l-0.586-0.586c-0.189-0.188-0.518-0.188-0.707,0L18.39,6.317C18.86,6.707,19.292,7.14,19.683,7.61z M12.5,8.5v3.571c0.86,0.224,1.5,1,1.5,1.929c0,1.103-0.897,2-2,2c-0.929,0-1.705-0.64-1.929-1.5H7.5C7.224,14.5,7,14.276,7,14	s0.224-0.5,0.5-0.5h2.571c0.182-0.699,0.73-1.247,1.429-1.429V8.5C11.5,8.224,11.724,8,12,8S12.5,8.224,12.5,8.5z M12,13	c-0.551,0-1,0.448-1,1s0.449,1,1,1c0.552,0,1-0.448,1-1S12.552,13,12,13z"/>
    </symbol>
    <symbol viewBox="0 0 24 24" id="ways">
        <path d="M20.854,6.646l-2.5-2.5C18.26,4.053,18.133,4,18,4h-1.5C16.224,4,16,4.224,16,4.5S16.224,5,16.5,5h1.293l2,2l-2,2H6V5h8.5	C14.776,5,15,4.776,15,4.5S14.776,4,14.5,4H14V2.5C14,2.224,13.776,2,13.5,2h-3C10.224,2,10,2.224,10,2.5V4H5.5	C5.224,4,5,4.224,5,4.5v5C5,9.776,5.224,10,5.5,10H10v1H6c-0.133,0-0.26,0.053-0.354,0.146l-2.5,2.5	c-0.195,0.195-0.195,0.512,0,0.707l2.5,2.5C5.744,16.951,5.872,17,6,17s0.256-0.049,0.354-0.146c0.195-0.195,0.195-0.512,0-0.707	L4.207,14l2-2H18v4H8.5C8.224,16,8,16.224,8,16.5S8.224,17,8.5,17H10v4H4.5C4.224,21,4,21.224,4,21.5S4.224,22,4.5,22h11	c0.276,0,0.5-0.224,0.5-0.5S15.776,21,15.5,21H14v-4h4.5c0.276,0,0.5-0.224,0.5-0.5v-5c0-0.276-0.224-0.5-0.5-0.5H14v-1h4	c0.133,0,0.26-0.053,0.354-0.146l2.5-2.5C21.049,7.158,21.049,6.842,20.854,6.646z M11,3h2v1h-2V3z M13,21h-2v-4h2V21z M13,11h-2v-1	h2V11z M20,21.5c0,0.276-0.224,0.5-0.5,0.5h-2c-0.276,0-0.5-0.224-0.5-0.5s0.224-0.5,0.5-0.5h2C19.776,21,20,21.224,20,21.5z"/>
    </symbol>
    <symbol viewBox="0 0 24 24" id="hotels">
        <path d="M22.5,22H22V6.5C22,5.6728516,21.3271484,5,20.5,5H18V2.5C18,1.6728516,17.3271484,1,16.5,1h-9	C6.6728516,1,6,1.6728516,6,2.5V5H3.5C2.6728516,5,2,5.6728516,2,6.5V22c-0.5512695,0-1,0.4482422-1,1s0.4487305,1,1,1h16	c0.5517578,0,1-0.4482422,1-1s-0.4482422-1-1-1V6h2.5C20.7753906,6,21,6.2241211,21,6.5V22h-0.5c-0.276123,0-0.5,0.2238159-0.5,0.5	c0,0.276123,0.223877,0.5,0.5,0.5h2c0.276123,0,0.5-0.223877,0.5-0.5C23,22.2238159,22.776123,22,22.5,22z M3,6.5	C3,6.2241211,3.2241211,6,3.5,6H6v16H3V6.5z M14,22h-4v-4h4V22z M15,22v-4.5c0-0.2763672-0.2236328-0.5-0.5-0.5h-5	C9.2236328,17,9,17.2236328,9,17.5V22H7V2.5C7,2.2241211,7.2241211,2,7.5,2h9C16.7753906,2,17,2.2241211,17,2.5V22H15z M15.5,8h-7	C8.2236328,8,8,8.2236328,8,8.5v2C8,10.7763672,8.2236328,11,8.5,11h7c0.2763672,0,0.5-0.2236328,0.5-0.5v-2	C16,8.2236328,15.7763672,8,15.5,8z M15,10H9V9h6V10z M15.5,12h-7C8.2236328,12,8,12.2236328,8,12.5v2	C8,14.7763672,8.2236328,15,8.5,15h7c0.2763672,0,0.5-0.2236328,0.5-0.5v-2C16,12.2236328,15.7763672,12,15.5,12z M15,14H9v-1h6V14z M15.5,4h-7C8.2236328,4,8,4.2236328,8,4.5v2C8,6.7763672,8.2236328,7,8.5,7h7C15.7763672,7,16,6.7763672,16,6.5v-2	C16,4.2236328,15.7763672,4,15.5,4z M15,6H9V5h6V6z M19,12.5c0-0.2763672,0.2236328-0.5,0.5-0.5s0.5,0.2236328,0.5,0.5v3	c0,0.2763672-0.2236328,0.5-0.5,0.5S19,15.7763672,19,15.5V12.5z M19,10.5v-2C19,8.2236328,19.2236328,8,19.5,8S20,8.2236328,20,8.5	v2c0,0.2763672-0.2236328,0.5-0.5,0.5S19,10.7763672,19,10.5z M5,17.5v2C5,19.7763672,4.7763672,20,4.5,20S4,19.7763672,4,19.5v-2	C4,17.2236328,4.2236328,17,4.5,17S5,17.2236328,5,17.5z M5,12.5v3C5,15.7763672,4.7763672,16,4.5,16S4,15.7763672,4,15.5v-3	C4,12.2236328,4.2236328,12,4.5,12S5,12.2236328,5,12.5z M5,8.5v2C5,10.7763672,4.7763672,11,4.5,11S4,10.7763672,4,10.5v-2	C4,8.2236328,4.2236328,8,4.5,8S5,8.2236328,5,8.5z M20,19.5c0,0.2763672-0.2236328,0.5-0.5,0.5S19,19.7763672,19,19.5v-2	c0-0.2763672,0.2236328-0.5,0.5-0.5s0.5,0.2236328,0.5,0.5V19.5z"/>
    </symbol>
    <symbol viewBox="0 0 24 24" id="support">
        <path d="M20.5,9h-0.563C19.444,5.059,16.072,2,12,2C7.928,2,4.564,5.06,4.069,9H3.5C2.122,9,1,10.122,1,11.5v2 C1,14.879,2.122,16,3.5,16h0.517c0.177,3.66,2.286,6,5.483,6h1c0.276,0,0.5-0.224,0.5-0.5c0-0.275,0.224-0.5,0.5-0.5h2 c0.275,0,0.5,0.225,0.5,0.5S13.775,22,13.5,22h-2c-0.276,0-0.5,0.224-0.5,0.5s0.224,0.5,0.5,0.5h2c0.827,0,1.5-0.673,1.5-1.5 S14.327,20,13.5,20h-2c-0.652,0-1.208,0.418-1.415,1H9.5C6.182,21,5,18.159,5,15.5V10c0-3.86,3.14-7,7-7c3.859,0,7,3.14,7,7v5.5 c0,0.276,0.224,0.5,0.5,0.5h1c1.379,0,2.5-1.121,2.5-2.5v-2C23,10.122,21.879,9,20.5,9z M2,13.5v-2C2,10.673,2.673,10,3.5,10H4v5 H3.5C2.673,15,2,14.327,2,13.5z M22,13.5c0,0.827-0.673,1.5-1.5,1.5H20v-5h0.5c0.827,0,1.5,0.673,1.5,1.5V13.5z"/>
    </symbol>
</svg>
