<svg xmlns="http://www.w3.org/2000/svg" xmlns:xlink="http://www.w3.org/1999/xlink" width="0" height="0" fill="#000">
  <symbol viewBox="0 0 24 24" id="smartphone">
    <path xmlns="http://www.w3.org/2000/svg" d="M0 0h24v24H0z" fill="none"/>
    <path xmlns="http://www.w3.org/2000/svg" d="M17 1.01L7 1c-1.1 0-2 .9-2 2v18c0 1.1.9 2 2 2h10c1.1 0 2-.9 2-2V3c0-1.1-.9-1.99-2-1.99zM17 19H7V5h10v14z"/>
  </symbol>
  <symbol viewBox="0 0 24 24" id="place">
    <path xmlns="http://www.w3.org/2000/svg" d="M12 2C8.13 2 5 5.13 5 9c0 5.25 7 13 7 13s7-7.75 7-13c0-3.87-3.13-7-7-7zm0 9.5c-1.38 0-2.5-1.12-2.5-2.5s1.12-2.5 2.5-2.5 2.5 1.12 2.5 2.5-1.12 2.5-2.5 2.5z"/>
    <path xmlns="http://www.w3.org/2000/svg" d="M0 0h24v24H0z" fill="none" stroke="none"/>
  </symbol>
  <symbol viewBox="0 0 24 24" id="camera">
    <circle xmlns="http://www.w3.org/2000/svg" cx="12" cy="12" r="3.2"/>
    <path xmlns="http://www.w3.org/2000/svg" d="M9 2L7.17 4H4c-1.1 0-2 .9-2 2v12c0 1.1.9 2 2 2h16c1.1 0 2-.9 2-2V6c0-1.1-.9-2-2-2h-3.17L15 2H9zm3 15c-2.76 0-5-2.24-5-5s2.24-5 5-5 5 2.24 5 5-2.24 5-5 5z"/>
    <path xmlns="http://www.w3.org/2000/svg" d="M0 0h24v24H0z" fill="none"/>
  </symbol>
  <symbol viewBox="0 0 24 24" id="info">
    <path xmlns="http://www.w3.org/2000/svg" d="M0 0h24v24H0z" fill="none" stroke="none"></path>
    <path xmlns="http://www.w3.org/2000/svg" d="M12 2C6.48 2 2 6.48 2 12s4.48 10 10 10 10-4.48 10-10S17.52 2 12 2zm1 15h-2v-6h2v6zm0-8h-2V7h2v2z"></path>
  </symbol>
  <symbol viewBox="0 0 24 24" id="location">
    <path xmlns="http://www.w3.org/2000/svg" d="M0 0h24v24H0z" fill="none" stroke="none"/>
    <path xmlns="http://www.w3.org/2000/svg" d="M12 8c-2.21 0-4 1.79-4 4s1.79 4 4 4 4-1.79 4-4-1.79-4-4-4zm8.94 3c-.46-4.17-3.77-7.48-7.94-7.94V1h-2v2.06C6.83 3.52 3.52 6.83 3.06 11H1v2h2.06c.46 4.17 3.77 7.48 7.94 7.94V23h2v-2.06c4.17-.46 7.48-3.77 7.94-7.94H23v-2h-2.06zM12 19c-3.87 0-7-3.13-7-7s3.13-7 7-7 7 3.13 7 7-3.13 7-7 7z"/>
  </symbol>

  <symbol viewBox="0 0 79.531 79.531" id="children__blue">
    <path xmlns="http://www.w3.org/2000/svg" fill="#005cab" d="M51.333,50.373c0,0,7.602,7.611,7.622,7.622c2.424,2.443,1.797,6.736-0.502,9.072l-10.604,11.05   c-4.096,4.085-9.569-1.585-5.593-5.54l6.727-6.732l-6.586-6.534L51.333,50.373L51.333,50.373z M27.69,50.373L27.69,50.373   c0,0-7.591,7.611-7.591,7.622c-2.444,2.443-1.817,6.736,0.456,9.072l10.651,11.05c4.08,4.085,9.554-1.585,5.598-5.54l-6.716-6.732   l6.535-6.534L27.69,50.373 M39.776,22.059c6.089,0,11.029-4.927,11.029-11.045C50.805,4.932,45.866,0,39.776,0   c-6.095,0-11.045,4.932-11.045,11.014C28.731,17.127,33.676,22.059,39.776,22.059z M51.727,45.956l0.161-7.524l9.17,8.554   c0.746,0.71,1.704,1.046,2.662,1.046c1.035,0,2.087-0.414,2.853-1.232c1.471-1.584,1.388-4.049-0.187-5.52   c0,0-10.511-11.423-12.023-12.754c-2.796-2.48-6.897-3.886-13.551-3.886h-2.087c-6.659,0-10.755,1.406-13.562,3.881   C23.657,29.852,13.145,41.28,13.145,41.28c-1.569,1.47-1.662,3.936-0.187,5.52c0.767,0.818,1.812,1.232,2.854,1.232   c0.958,0,1.916-0.336,2.667-1.046l9.166-8.549l0.16,7.523h23.923V45.956z"/>
  </symbol>
  <symbol viewBox="0 0 179.308 179.308" id="swim-pool_blue">
    <path fill="#005cab" stroke="none" d="M176.504,55.017h-8.71l0.22-1.097c0-16.424-13.363-29.787-29.792-29.787c-5.087,0-9.812,1.401-14.009,3.664 c-4.188-2.263-8.919-3.664-14.008-3.664c-16.427,0-29.781,13.363-29.781,29.787v1.097H2.801C1.256,55.017,0,56.272,0,57.818    v94.556c0,1.543,1.256,2.801,2.801,2.801h173.703c1.543,0,2.804-1.258,2.804-2.801V57.818    C179.308,56.272,178.047,55.017,176.504,55.017z M138.222,32.543c11.787,0,21.384,9.592,21.384,21.381l0.22,1.097h-20.05    l0.22-1.097c0-7.868-3.13-14.977-8.121-20.312C133.901,32.979,136.002,32.543,138.222,32.543z M110.206,32.543    c2.222,0,4.334,0.435,6.354,1.07c-1.145,1.22-2.218,2.498-3.147,3.893H96.679C100.373,34.453,105.045,32.543,110.206,32.543z     M91.866,43.11h18.68c-0.989,2.517-1.555,5.218-1.815,8.008H89.114C89.497,48.221,90.441,45.525,91.866,43.11z M116.849,53.925    c0-6.411,2.895-12.103,7.364-16.02c4.482,3.921,7.377,9.615,7.377,16.02l0.219,1.097h-14.972v-1.097H116.849z M88.829,73.537    h19.615v11.207H88.829V73.537z M88.829,67.934v-7.308h19.615v7.308H88.829z M80.424,60.62v42.321    c2.78-0.461,5.57-0.931,8.404-1.401V90.344h19.615v8.032c2.802-0.427,5.614-0.87,8.405-1.226V60.625h56.854v42.993    c-48.657-12.476-131.839,22.797-168.1,2.441V60.625h74.821V60.62z"></path>
  </symbol>
  <symbol viewBox="0 0 256.489 256.489" id="beach_blue">
    <g fill="#005cab" stroke="none">
      <path d="M6.598,182.744c0.707,0.061,2.781,0.205,5.668,0.205c7.346,0,19.882-0.998,28.751-6.553    c7.031,4.406,16.298,5.946,23.541,6.376c0.063,0.005,0.121,0.027,0.187,0.032c0.707,0.057,2.782,0.201,5.673,0.201    c7.341,0,19.882-0.999,28.747-6.553c8.865,5.554,21.405,6.553,28.751,6.553c2.886,0,4.957-0.141,5.668-0.201    c0.142-0.009,0.272-0.061,0.417-0.079c7.216-0.438,16.354-1.998,23.317-6.356c7.033,4.41,16.311,5.945,23.555,6.375    c0.056,0,0.111,0.023,0.168,0.028c0.714,0.056,2.791,0.2,5.675,0.2c7.342,0,19.877-0.998,28.745-6.553    c8.857,5.555,21.394,6.553,28.739,6.553c2.889,0,4.966-0.14,5.68-0.2c3.939-0.313,6.884-3.767,6.576-7.715    c-0.312-3.953-3.715-6.912-7.715-6.576c-6.973,0.546-22.99-0.149-27.807-5.853c-0.135-0.158-0.294-0.28-0.443-0.43    c-0.14-0.13-0.247-0.284-0.396-0.41c-0.032-0.028-0.065-0.042-0.098-0.065c-0.21-0.173-0.438-0.308-0.658-0.448    c-0.182-0.111-0.351-0.252-0.541-0.35c-0.196-0.107-0.406-0.173-0.616-0.257c-0.229-0.094-0.458-0.201-0.695-0.271    c-0.183-0.057-0.369-0.08-0.556-0.117c-0.267-0.061-0.527-0.121-0.803-0.145c-0.187-0.019-0.378-0.005-0.569-0.005    c-0.266-0.005-0.527-0.014-0.798,0.01c-0.201,0.019-0.393,0.069-0.593,0.107c-0.252,0.047-0.509,0.079-0.756,0.158    c-0.188,0.057-0.364,0.141-0.547,0.215c-0.252,0.099-0.509,0.187-0.751,0.317c-0.163,0.084-0.312,0.201-0.467,0.299    c-0.252,0.158-0.495,0.308-0.728,0.494c-0.028,0.028-0.062,0.038-0.094,0.066c-0.145,0.121-0.257,0.266-0.388,0.4    c-0.153,0.146-0.317,0.275-0.462,0.439c-3.024,3.574-10.879,5.302-18.389,5.814c-0.331-0.019-0.653-0.046-0.989-0.019    c-1.689,0.131-3.915,0.187-6.361,0.122c-0.19-0.01-0.387-0.01-0.578-0.02c-7.631-0.266-17.306-1.735-20.881-5.955    c-0.131-0.158-0.289-0.275-0.434-0.42c-0.141-0.14-0.252-0.294-0.401-0.42c-0.028-0.023-0.065-0.042-0.094-0.065    c-0.224-0.182-0.457-0.326-0.69-0.476c-0.173-0.107-0.331-0.225-0.504-0.322c-0.21-0.107-0.435-0.187-0.653-0.275    c-0.22-0.089-0.435-0.196-0.658-0.262c-0.187-0.051-0.378-0.074-0.564-0.121c-0.262-0.047-0.523-0.116-0.799-0.14    c-0.177-0.015-0.359-0.005-0.536-0.005c-0.275-0.005-0.551-0.019-0.831,0.01c-0.187,0.019-0.369,0.064-0.551,0.098    c-0.271,0.047-0.537,0.089-0.803,0.168c-0.178,0.056-0.35,0.14-0.527,0.205c-0.257,0.103-0.518,0.191-0.761,0.322    c-0.163,0.089-0.317,0.201-0.472,0.304c-0.247,0.149-0.494,0.303-0.723,0.489c-0.028,0.023-0.061,0.038-0.089,0.061    c-0.145,0.122-0.252,0.262-0.378,0.393c-0.154,0.154-0.327,0.28-0.467,0.448c-4.373,5.181-18.911,6.543-27.813,5.848    c-0.441-0.042-0.866-0.023-1.291,0.023c-7.418-0.546-15.112-2.269-18.09-5.792c-0.138-0.163-0.306-0.294-0.453-0.443    c-0.135-0.131-0.245-0.28-0.392-0.401c-0.035-0.028-0.068-0.047-0.1-0.07c-0.206-0.163-0.422-0.294-0.637-0.438    c-0.191-0.126-0.371-0.257-0.572-0.364c-0.177-0.089-0.364-0.153-0.546-0.229c-0.252-0.103-0.506-0.224-0.77-0.299    c-0.143-0.046-0.292-0.061-0.439-0.093c-0.306-0.065-0.606-0.141-0.917-0.168c-0.145-0.015-0.292,0-0.437-0.005    c-0.31-0.01-0.621-0.019-0.926,0.009c-0.168,0.015-0.329,0.061-0.497,0.089c-0.287,0.052-0.574,0.094-0.852,0.178    c-0.166,0.056-0.329,0.131-0.497,0.196c-0.266,0.098-0.539,0.195-0.798,0.336c-0.156,0.084-0.301,0.195-0.453,0.289    c-0.25,0.158-0.497,0.308-0.73,0.499c-0.031,0.023-0.068,0.042-0.096,0.07c-0.149,0.126-0.264,0.275-0.401,0.411    c-0.145,0.148-0.306,0.271-0.441,0.429c-3.038,3.589-10.954,5.312-18.496,5.825c-0.296-0.02-0.585-0.047-0.894-0.028    c-2.107,0.168-4.539,0.205-7.068,0.112c-0.306-0.01-0.607-0.02-0.917-0.043c-7.918-0.377-16.617-2.123-19.828-5.922    c-0.138-0.168-0.306-0.289-0.46-0.443c-0.133-0.126-0.243-0.275-0.385-0.401c-0.031-0.023-0.068-0.042-0.096-0.065    c-0.217-0.178-0.446-0.312-0.674-0.462c-0.178-0.117-0.346-0.243-0.53-0.336c-0.201-0.103-0.418-0.183-0.628-0.271    c-0.224-0.089-0.448-0.196-0.679-0.262c-0.184-0.052-0.371-0.074-0.562-0.112c-0.264-0.056-0.527-0.121-0.793-0.145    c-0.187-0.019-0.374-0.005-0.56-0.005c-0.273-0.004-0.539-0.014-0.812,0.01c-0.191,0.019-0.378,0.065-0.565,0.103    c-0.261,0.047-0.525,0.084-0.784,0.159c-0.175,0.056-0.348,0.14-0.525,0.205c-0.261,0.103-0.521,0.195-0.774,0.331    c-0.157,0.079-0.297,0.191-0.448,0.285c-0.254,0.158-0.506,0.317-0.742,0.513c-0.028,0.023-0.061,0.037-0.089,0.065    c-0.14,0.117-0.245,0.252-0.373,0.383c-0.159,0.154-0.324,0.289-0.474,0.458c-4.378,5.171-18.92,6.543-27.813,5.843    c-3.899-0.299-7.4,2.642-7.701,6.59C-0.288,178.987,2.657,182.432,6.598,182.744z"></path>
      <path d="M5.882,50.052c8.918,2.686,25.066,9.327,30.457,15.688c0.101,0.119,0.224,0.201,0.329,0.311    c0.173,0.177,0.322,0.369,0.514,0.532c0.037,0.033,0.084,0.037,0.124,0.07c0.592,0.483,1.237,0.847,1.916,1.108    c0.138,0.054,0.287,0.098,0.43,0.14c0.702,0.219,1.421,0.373,2.142,0.373c0.004,0,0.009,0.005,0.014,0.005h0.004h0.005    c0.004,0,0.009-0.005,0.014-0.005c0.721,0,1.439-0.154,2.142-0.373c0.147-0.049,0.292-0.086,0.435-0.145    c0.674-0.262,1.323-0.625,1.916-1.108c0.04-0.028,0.086-0.038,0.126-0.07c0.185-0.159,0.329-0.341,0.493-0.511    c0.114-0.117,0.242-0.208,0.352-0.336c5.363-6.342,21.525-12.988,30.448-15.69c3.79-1.146,5.929-5.146,4.789-8.935    c-1.142-3.785-5.118-5.941-8.933-4.789c-2.345,0.707-20.33,6.331-31.78,15.096C30.37,42.647,12.38,37.024,10.035,36.317    c-3.79-1.148-7.789,0.999-8.938,4.793C-0.053,44.909,2.092,48.904,5.882,50.052z"></path>
      <path d="M92.703,79.338c-2.345,0.707-20.33,6.331-31.78,15.096c-11.446-8.765-29.436-14.389-31.78-15.096    c-3.794-1.144-7.79,0.999-8.938,4.793c-1.142,3.79,1.003,7.79,4.793,8.933c8.919,2.686,25.067,9.327,30.457,15.688    c0.101,0.119,0.224,0.201,0.329,0.31c0.173,0.178,0.322,0.369,0.514,0.532c0.037,0.033,0.084,0.037,0.124,0.07    c0.593,0.483,1.237,0.847,1.916,1.108c0.137,0.054,0.287,0.098,0.429,0.14c0.702,0.219,1.421,0.374,2.142,0.374    c0.005,0,0.009,0.004,0.014,0.004h0.005h0.004c0.004,0,0.009-0.004,0.014-0.004c0.721,0,1.439-0.154,2.142-0.374    c0.147-0.049,0.292-0.086,0.434-0.145c0.674-0.262,1.323-0.625,1.916-1.108c0.04-0.028,0.086-0.038,0.126-0.07    c0.184-0.159,0.329-0.341,0.492-0.511c0.114-0.117,0.243-0.208,0.353-0.336c5.362-6.343,21.524-12.989,30.448-15.691    c3.79-1.146,5.93-5.146,4.789-8.935C100.493,80.341,96.516,78.185,92.703,79.338z"></path>
      <path d="M248.733,201.936c-6.973,0.541-22.99-0.149-27.807-5.853c-0.136-0.159-0.299-0.285-0.448-0.43    c-0.136-0.136-0.247-0.285-0.396-0.411c-0.028-0.027-0.065-0.046-0.094-0.069c-0.219-0.178-0.448-0.313-0.672-0.458    c-0.177-0.116-0.35-0.247-0.527-0.34c-0.21-0.112-0.425-0.183-0.635-0.267c-0.224-0.093-0.443-0.196-0.672-0.266    c-0.187-0.057-0.378-0.075-0.569-0.117c-0.262-0.051-0.522-0.121-0.789-0.145c-0.187-0.019-0.373-0.005-0.564-0.005    c-0.266-0.004-0.532-0.014-0.803,0.01c-0.196,0.019-0.383,0.07-0.574,0.107c-0.262,0.047-0.518,0.084-0.779,0.158    c-0.178,0.057-0.346,0.141-0.522,0.205c-0.257,0.104-0.523,0.196-0.775,0.332c-0.158,0.089-0.303,0.195-0.452,0.294    c-0.252,0.158-0.504,0.308-0.737,0.499c-0.028,0.023-0.061,0.042-0.099,0.061c-0.14,0.126-0.252,0.271-0.383,0.401    c-0.153,0.149-0.316,0.28-0.462,0.439c-3.001,3.556-10.771,5.282-18.229,5.814c-0.378-0.027-0.761-0.046-1.148-0.014    c-1.661,0.126-3.85,0.182-6.263,0.126c-0.275-0.01-0.56-0.019-0.831-0.032c-7.607-0.271-17.175-1.751-20.727-5.941    c-0.13-0.159-0.294-0.285-0.438-0.43c-0.14-0.131-0.247-0.284-0.401-0.41c-0.027-0.023-0.061-0.038-0.093-0.065    c-0.229-0.188-0.467-0.336-0.71-0.485c-0.163-0.103-0.322-0.225-0.494-0.309c-0.22-0.112-0.453-0.196-0.682-0.289    c-0.205-0.084-0.411-0.187-0.621-0.247c-0.205-0.061-0.41-0.084-0.62-0.126c-0.248-0.047-0.495-0.112-0.742-0.136    c-0.201-0.019-0.401-0.005-0.607-0.01c-0.252-0.004-0.513-0.014-0.765,0.01c-0.206,0.019-0.411,0.07-0.611,0.107    c-0.248,0.047-0.495,0.084-0.742,0.154c-0.196,0.061-0.378,0.149-0.564,0.219c-0.248,0.099-0.495,0.183-0.729,0.309    c-0.173,0.093-0.327,0.21-0.495,0.317c-0.237,0.149-0.476,0.298-0.7,0.48c-0.027,0.023-0.064,0.037-0.098,0.065    c-0.14,0.121-0.252,0.266-0.378,0.396c-0.154,0.154-0.322,0.28-0.467,0.448c-4.373,5.171-18.911,6.538-27.813,5.843    c-0.422-0.037-0.833-0.009-1.239,0.028c-7.432-0.542-15.154-2.269-18.136-5.797c-0.138-0.168-0.306-0.289-0.46-0.438    c-0.133-0.131-0.243-0.28-0.387-0.401c-0.028-0.028-0.065-0.047-0.096-0.07c-0.21-0.173-0.434-0.312-0.658-0.452    c-0.182-0.121-0.359-0.252-0.546-0.351c-0.191-0.098-0.388-0.163-0.581-0.247c-0.241-0.103-0.479-0.21-0.728-0.28    c-0.156-0.046-0.32-0.069-0.479-0.103c-0.292-0.061-0.581-0.131-0.877-0.158c-0.149-0.015-0.296,0-0.446-0.005    c-0.306-0.01-0.616-0.019-0.922,0.009c-0.158,0.015-0.31,0.062-0.464,0.089c-0.296,0.047-0.592,0.094-0.884,0.178    c-0.156,0.052-0.306,0.121-0.462,0.187c-0.282,0.103-0.565,0.205-0.833,0.354c-0.147,0.075-0.282,0.178-0.425,0.271    c-0.259,0.159-0.516,0.318-0.756,0.514c-0.028,0.028-0.061,0.037-0.089,0.065c-0.149,0.121-0.264,0.275-0.396,0.411    c-0.149,0.148-0.309,0.266-0.446,0.429c-3.029,3.575-10.9,5.302-18.419,5.82c-0.32-0.019-0.639-0.052-0.966-0.023    c-2.112,0.168-4.553,0.205-7.087,0.112c-0.296-0.01-0.588-0.02-0.889-0.038c-7.922-0.382-16.626-2.118-19.837-5.917    c-0.138-0.164-0.301-0.29-0.448-0.439c-0.135-0.131-0.25-0.279-0.396-0.41c-0.035-0.028-0.068-0.042-0.101-0.07    c-0.201-0.168-0.422-0.294-0.632-0.434c-0.191-0.127-0.378-0.262-0.579-0.369c-0.175-0.098-0.367-0.158-0.553-0.233    c-0.25-0.107-0.497-0.22-0.761-0.299c-0.151-0.042-0.315-0.061-0.469-0.093c-0.29-0.07-0.586-0.136-0.882-0.159    c-0.159-0.014-0.317,0-0.474-0.005c-0.296-0.009-0.593-0.019-0.889,0.01c-0.177,0.019-0.35,0.065-0.521,0.094    c-0.277,0.051-0.555,0.093-0.828,0.177c-0.17,0.047-0.338,0.131-0.511,0.196c-0.261,0.103-0.53,0.195-0.784,0.336    c-0.157,0.084-0.301,0.191-0.448,0.289c-0.25,0.154-0.502,0.309-0.737,0.504c-0.028,0.023-0.061,0.038-0.089,0.065    c-0.145,0.117-0.25,0.262-0.378,0.393c-0.154,0.149-0.324,0.28-0.469,0.448c-4.377,5.18-18.92,6.552-27.813,5.848    c-3.899-0.322-7.399,2.642-7.701,6.59c-0.306,3.943,2.635,7.388,6.576,7.705c0.709,0.056,2.781,0.201,5.668,0.201    c7.346,0,19.882-1.004,28.751-6.553c7.031,4.405,16.297,5.941,23.543,6.375c0.061,0.005,0.119,0.028,0.184,0.032    c0.709,0.057,2.782,0.201,5.673,0.201c7.341,0,19.882-0.999,28.747-6.553c8.865,5.554,21.405,6.553,28.751,6.553    c2.887,0,4.956-0.136,5.668-0.201c0.143-0.009,0.273-0.056,0.418-0.074c7.215-0.448,16.354-1.997,23.316-6.366    c7.033,4.415,16.312,5.955,23.555,6.375c0.057,0.01,0.112,0.028,0.168,0.033c0.714,0.056,2.791,0.201,5.681,0.201    c7.336,0,19.872-0.999,28.739-6.553c8.858,5.554,21.394,6.553,28.74,6.553c2.889,0,4.966-0.141,5.68-0.201    c3.938-0.312,6.884-3.767,6.576-7.715C256.135,204.562,252.732,201.618,248.733,201.936z"></path>
      <path d="M248.733,235.389c-6.973,0.551-22.99-0.149-27.807-5.853c-0.136-0.158-0.299-0.284-0.448-0.429    c-0.136-0.136-0.247-0.285-0.392-0.411c-0.028-0.019-0.065-0.042-0.094-0.065c-0.22-0.178-0.448-0.317-0.677-0.462    c-0.177-0.117-0.346-0.247-0.527-0.341c-0.21-0.112-0.425-0.182-0.635-0.266c-0.224-0.094-0.443-0.196-0.672-0.267    c-0.191-0.056-0.388-0.079-0.579-0.116c-0.257-0.052-0.513-0.117-0.774-0.141c-0.201-0.019-0.396-0.004-0.598-0.004    c-0.257-0.005-0.509-0.015-0.77,0.009c-0.21,0.019-0.421,0.075-0.63,0.117c-0.238,0.042-0.481,0.074-0.715,0.145    c-0.2,0.061-0.387,0.149-0.578,0.224c-0.248,0.098-0.49,0.187-0.724,0.309c-0.168,0.084-0.322,0.205-0.48,0.308    c-0.243,0.149-0.485,0.299-0.714,0.485c-0.028,0.023-0.065,0.037-0.094,0.065c-0.149,0.126-0.262,0.275-0.393,0.411    c-0.148,0.145-0.316,0.271-0.457,0.438c-3.006,3.556-10.795,5.283-18.267,5.811c-0.369-0.023-0.737-0.052-1.116-0.015    c-1.68,0.131-3.887,0.188-6.318,0.122c-0.229-0.01-0.463-0.019-0.687-0.028c-7.626-0.266-17.249-1.736-20.815-5.946    c-0.13-0.168-0.294-0.289-0.443-0.434c-0.135-0.136-0.247-0.28-0.396-0.411c-0.027-0.023-0.061-0.037-0.089-0.061    c-0.237-0.191-0.485-0.346-0.732-0.504c-0.154-0.094-0.304-0.205-0.457-0.289c-0.243-0.126-0.49-0.215-0.733-0.309    c-0.191-0.079-0.378-0.168-0.574-0.229c-0.224-0.065-0.447-0.093-0.676-0.135c-0.233-0.047-0.458-0.104-0.687-0.127    c-0.215-0.019-0.43-0.004-0.644-0.009c-0.243,0-0.49-0.014-0.733,0.009c-0.21,0.02-0.415,0.075-0.625,0.117    c-0.243,0.037-0.485,0.079-0.729,0.149c-0.196,0.056-0.378,0.149-0.569,0.224c-0.247,0.099-0.494,0.183-0.728,0.309    c-0.168,0.093-0.327,0.205-0.49,0.308c-0.238,0.154-0.477,0.304-0.7,0.485c-0.028,0.023-0.065,0.037-0.098,0.065    c-0.141,0.126-0.252,0.271-0.383,0.396c-0.154,0.149-0.322,0.275-0.462,0.443c-4.373,5.181-18.911,6.544-27.814,5.849    c-0.446-0.043-0.884-0.023-1.316,0.023c-7.407-0.547-15.086-2.269-18.06-5.792c-0.138-0.169-0.306-0.294-0.459-0.443    c-0.133-0.126-0.243-0.275-0.385-0.401c-0.03-0.02-0.067-0.038-0.096-0.065c-0.212-0.168-0.436-0.304-0.655-0.448    c-0.182-0.121-0.359-0.247-0.551-0.35c-0.185-0.099-0.385-0.164-0.577-0.248c-0.245-0.103-0.483-0.21-0.732-0.28    c-0.157-0.046-0.325-0.069-0.488-0.103c-0.292-0.061-0.576-0.131-0.873-0.158c-0.158-0.014-0.317,0-0.469-0.005    c-0.301-0.009-0.598-0.019-0.898,0.014c-0.173,0.019-0.338,0.057-0.506,0.089c-0.282,0.047-0.565,0.089-0.838,0.173    c-0.17,0.052-0.333,0.131-0.506,0.196c-0.266,0.098-0.53,0.195-0.789,0.336c-0.157,0.084-0.306,0.191-0.458,0.289    c-0.25,0.159-0.497,0.309-0.726,0.495c-0.03,0.027-0.068,0.037-0.096,0.065c-0.154,0.13-0.269,0.284-0.408,0.42    c-0.143,0.149-0.301,0.266-0.434,0.425c-3.039,3.589-10.954,5.315-18.496,5.819c-0.296-0.014-0.588-0.047-0.894-0.027    c-2.103,0.168-4.534,0.205-7.059,0.111c-0.31-0.009-0.616-0.019-0.926-0.042c-7.917-0.378-16.617-2.123-19.828-5.923    c-0.138-0.158-0.301-0.284-0.455-0.429c-0.133-0.141-0.243-0.285-0.39-0.411c-0.035-0.023-0.068-0.042-0.103-0.065    c-0.21-0.173-0.434-0.308-0.653-0.448c-0.182-0.121-0.359-0.252-0.551-0.35c-0.196-0.107-0.401-0.173-0.602-0.257    c-0.233-0.098-0.462-0.205-0.702-0.271c-0.175-0.056-0.357-0.079-0.539-0.112c-0.273-0.056-0.542-0.121-0.817-0.149    c-0.177-0.014-0.355-0.004-0.532-0.004c-0.28-0.005-0.558-0.02-0.84,0.009c-0.182,0.019-0.359,0.07-0.542,0.099    c-0.271,0.046-0.544,0.088-0.812,0.168c-0.17,0.046-0.334,0.13-0.502,0.195c-0.266,0.099-0.534,0.196-0.793,0.332    c-0.151,0.079-0.292,0.187-0.438,0.284c-0.254,0.154-0.511,0.312-0.747,0.509c-0.028,0.023-0.061,0.037-0.091,0.061    c-0.138,0.121-0.247,0.262-0.375,0.388c-0.159,0.154-0.327,0.284-0.469,0.452c-4.378,5.181-18.92,6.553-27.813,5.849    c-3.901-0.304-7.399,2.642-7.701,6.59c-0.306,3.943,2.635,7.388,6.576,7.705c0.707,0.056,2.781,0.196,5.668,0.196    c7.346,0,19.882-0.999,28.751-6.548c7.031,4.405,16.298,5.94,23.541,6.375c0.063,0.005,0.121,0.028,0.187,0.032    c0.707,0.057,2.782,0.201,5.673,0.201c7.341,0,19.882-0.999,28.747-6.553c8.865,5.554,21.405,6.553,28.751,6.553    c2.886,0,4.957-0.141,5.668-0.201c0.142-0.009,0.272-0.056,0.417-0.074c7.216-0.448,16.354-1.998,23.317-6.366    c7.033,4.415,16.311,5.955,23.555,6.376c0.056,0.009,0.111,0.027,0.168,0.032c0.714,0.056,2.791,0.2,5.675,0.2    c7.342,0,19.877-0.998,28.745-6.552c8.857,5.554,21.394,6.552,28.739,6.552c2.889,0,4.966-0.14,5.68-0.2    c3.939-0.312,6.884-3.767,6.576-7.715C256.135,238.017,252.732,235.029,248.733,235.389z"></path>
      <path d="M231.451,41.339l7.299-7.297c2.801-2.795,2.801-7.341,0-10.137c-2.8-2.8-7.337-2.8-10.137,0l-7.3,7.297    c-5.04-3.568-10.883-6.051-17.212-7.133V13.749c0-3.962-3.211-7.168-7.169-7.168c-3.957,0-7.168,3.207-7.168,7.168v10.319    c-6.329,1.083-12.172,3.565-17.217,7.133l-7.295-7.297c-2.8-2.8-7.337-2.8-10.137,0c-2.801,2.795-2.801,7.341,0,10.137    l7.295,7.297c-3.57,5.042-6.049,10.886-7.137,17.214h-10.313c-3.958,0-7.169,3.206-7.169,7.168s3.211,7.169,7.169,7.169h10.318    c1.083,6.328,3.562,12.176,7.136,17.214l-7.294,7.297c-2.801,2.795-2.801,7.341,0,10.137c1.399,1.4,3.234,2.098,5.068,2.098    s3.673-0.698,5.073-2.098l7.294-7.297c5.046,3.568,10.889,6.051,17.217,7.134v10.319c0,3.962,3.211,7.169,7.169,7.169    s7.169-3.207,7.169-7.169v-10.319c6.328-1.083,12.172-3.566,17.212-7.134l7.299,7.297c1.4,1.4,3.234,2.098,5.069,2.098    c1.839,0,3.673-0.698,5.073-2.098c2.8-2.796,2.8-7.342,0-10.137l-7.3-7.297c3.57-5.043,6.054-10.886,7.141-17.214h10.3    c3.958,0,7.169-3.207,7.169-7.169s-3.211-7.168-7.169-7.168h-10.318C237.499,52.225,235.021,46.377,231.451,41.339z     M168.954,65.722c0-15.427,12.55-27.977,27.979-27.977c15.425,0,27.975,12.55,27.975,27.977c0,15.427-12.55,27.977-27.975,27.977    C181.504,93.699,168.954,81.149,168.954,65.722z"></path>
    </g>
  </symbol>
  <symbol viewBox="0 0 349.046 349.046" id="hotel_large_three-blue">
    <path fill="#005cab" stroke="none" d="M344.046,298.535c0,0-3.254,0-4.338,0c-2.375,0-2.375-2.811-2.375-2.811V99.094c0-4.95-4.051-9-9-9c0,0-52.219,0-69.625,0    c-2.5,0-2.367-2.37-2.367-2.37V49.818c0-0.375,0.211-0.796,1.455-0.796c2.75,0,5-2.25,5-5v-8.881c0-2.75-2.25-5-5-5H96.13    c-2.75,0-5,2.25-5,5v8.881c0,2.75,2.25,5,5,5c1.453,0,1.456,1.302,1.456,1.453V86.85c0,0,0.247,3.245-1.878,3.245    c-18.799,0-75.193,0-75.193,0c-4.95,0-9,4.05-9,9c0,0,0,147.941,0,197.255c0,1.875-1.016,2.186-3.068,2.186    c-2.654,0-3.447,0-3.447,0c-2.75,0-5,2.25-5,5v10.369c0,2.75,2.25,5,5,5h339.046c2.75,0,5-2.25,5-5v-10.369    C349.046,300.785,346.796,298.535,344.046,298.535z M196.075,133.209h29.924c2.201,0,4,1.8,4,4v29.925c0,2.2-1.799,4-4,4h-29.924    c-2.201,0-4-1.8-4-4v-29.925C192.075,135.009,193.874,133.209,196.075,133.209z M192.075,114.647V84.722c0-2.2,1.799-4,4-4h29.924    c2.201,0,4,1.8,4,4v29.925c0,2.2-1.799,4-4,4h-29.924C193.874,118.647,192.075,116.847,192.075,114.647z M196.075,183.846h29.924    c2.201,0,4,1.8,4,4v29.925c0,2.2-1.799,4-4,4h-29.924c-2.201,0-4-1.8-4-4v-29.925    C192.075,185.647,193.874,183.846,196.075,183.846z M200.516,244.008c2.199,0,4,1.8,4,4v46.335c0,2.2-1.801,4-4,4h-46.335    c-2.199,0-4-1.8-4-4v-46.335c0-2.2,1.801-4,4-4H200.516z M161.903,114.647c0,2.2-1.8,4-4,4h-29.925c-2.2,0-4-1.8-4-4V84.722    c0-2.2,1.8-4,4-4h29.925c2.2,0,4,1.8,4,4V114.647z M127.978,133.209h29.925c2.2,0,4,1.8,4,4v29.925c0,2.2-1.8,4-4,4h-29.925    c-2.2,0-4-1.8-4-4v-29.925C123.978,135.009,125.778,133.209,127.978,133.209z M127.978,183.846h29.925c2.2,0,4,1.8,4,4v29.925    c0,2.2-1.8,4-4,4h-29.925c-2.2,0-4-1.8-4-4v-29.925C123.978,185.647,125.778,183.846,127.978,183.846z M268.122,136.284    c0-2.2,1.801-4,4-4h29.926c2.199,0,4,1.8,4,4v29.925c0,2.2-1.801,4-4,4h-29.926c-2.199,0-4-1.8-4-4V136.284z M268.122,188.772    c0-2.2,1.801-4,4-4h29.926c2.199,0,4,1.8,4,4v29.925c0,2.2-1.801,4-4,4h-29.926c-2.199,0-4-1.8-4-4V188.772z M268.122,239.408    c0-2.2,1.801-4,4-4h29.926c2.199,0,4,1.8,4,4v29.925c0,2.2-1.801,4-4,4h-29.926c-2.199,0-4-1.8-4-4V239.408z M42.8,136.284    c0-2.2,1.8-4,4-4h29.925c2.2,0,4,1.8,4,4v29.925c0,2.2-1.8,4-4,4H46.8c-2.2,0-4-1.8-4-4V136.284z M42.8,188.772c0-2.2,1.8-4,4-4    h29.925c2.2,0,4,1.8,4,4v29.925c0,2.2-1.8,4-4,4H46.8c-2.2,0-4-1.8-4-4V188.772z M42.8,239.408c0-2.2,1.8-4,4-4h29.925    c2.2,0,4,1.8,4,4v29.925c0,2.2-1.8,4-4,4H46.8c-2.2,0-4-1.8-4-4V239.408z"></path>
  </symbol>
  <symbol viewBox="0 0 48 48" id="hotel_large">
    <g xmlns="http://www.w3.org/2000/svg" stroke-width="2" stroke-linecap="round" stroke-linejoin="round" stroke-miterlimit="10">
      <line xmlns="http://www.w3.org/2000/svg" x1="1" y1="47" x2="47" y2="47"></line>
      <rect xmlns="http://www.w3.org/2000/svg" x="9" y="9" width="30" height="38"></rect>
      <polygon xmlns="http://www.w3.org/2000/svg" points="41,7 24,1 7,7 7,9 41,9"></polygon>
      <rect xmlns="http://www.w3.org/2000/svg" x="21" y="37" width="6" height="10"></rect>
    </g>
    <g xmlns="http://www.w3.org/2000/svg" stroke-width="2" stroke-linecap="round" stroke-linejoin="round" stroke-miterlimit="10">
      <rect xmlns="http://www.w3.org/2000/svg" x="13" y="13" width="4" height="4"></rect>
      <rect xmlns="http://www.w3.org/2000/svg" x="21" y="13" width="6" height="4"></rect>
      <rect xmlns="http://www.w3.org/2000/svg" x="31" y="13" width="4" height="4"></rect>
      <rect xmlns="http://www.w3.org/2000/svg" x="13" y="21" width="4" height="4"></rect>
      <rect xmlns="http://www.w3.org/2000/svg" x="21" y="21" width="6" height="4"></rect>
      <rect xmlns="http://www.w3.org/2000/svg" x="31" y="21" width="4" height="4"></rect>
      <rect xmlns="http://www.w3.org/2000/svg" x="13" y="29" width="4" height="4"></rect>
      <rect xmlns="http://www.w3.org/2000/svg" x="21" y="29" width="6" height="4"></rect>
      <rect xmlns="http://www.w3.org/2000/svg" x="31" y="29" width="4" height="4"></rect>
      <rect xmlns="http://www.w3.org/2000/svg" x="13" y="37" width="4" height="4"></rect>
      <rect xmlns="http://www.w3.org/2000/svg" x="31" y="37" width="4" height="4"></rect>
    </g>
  </symbol>

  <symbol viewBox="0 0 48 48" id="room_large">
    <g xmlns="http://www.w3.org/2000/svg" stroke-width="2" stroke-linecap="round" stroke-linejoin="round" stroke-miterlimit="10">
      <path fill="none" d="M13,12c0-6.074,4.924-11,11-11c6.074,0,11,4.926,11,11c0,6.076-4.926,11-11,11c-6.076,0-11,5-11,13v11h22V12"/>
      <line x1="19" y1="41" x2="29" y2="41"/>
    </g>
  </symbol>

  <symbol viewBox="0 0 48 48" id="sport_large">
    <g xmlns="http://www.w3.org/2000/svg" fill="none" stroke-width="2" stroke-linecap="round" stroke-miterlimit="10" stroke-linejoin="round">
      <path xmlns="http://www.w3.org/2000/svg" d="M18.109,44.455C8.312,42.231,1,33.471,1,23C1,10.848,10.847,1,23,1c12.148,0,22,9.848,22,22H31c-4.418,0-8,3.582-8,8"/>
      <line xmlns="http://www.w3.org/2000/svg" x1="47" y1="41" x2="23" y2="41"/>
      <path xmlns="http://www.w3.org/2000/svg" d="M41,35v8c0,2.209-1.791,4-4,4h-2"/>
      <circle xmlns="http://www.w3.org/2000/svg" cx="17" cy="35" r="3"/>
      <path xmlns="http://www.w3.org/2000/svg" d="M17,32v-3c0-6.627,5.373-12,12-12h18"/>
      <path xmlns="http://www.w3.org/2000/svg" d="M20,35h27v6v2c0,2.209-1.791,4-4,4h-9.025c-3.186,0-6.241-1.266-8.493-3.518L19,37"/>
      <path xmlns="http://www.w3.org/2000/svg" d="M33,35v8c0,1.561-0.894,2.912-2.196,3.571"/>
    </g>
  </symbol>

  <symbol id="search_" viewBox="0 0 32 32">
    <g transform="matrix(-1,0,0,1,32,0)">
      <path xmlns="http://www.w3.org/2000/svg" d="M20,0.005c-6.627,0-12,5.373-12,12c0,2.026,0.507,3.933,1.395,5.608l-8.344,8.342l0.007,0.006   C0.406,26.602,0,27.49,0,28.477c0,1.949,1.58,3.529,3.529,3.529c0.985,0,1.874-0.406,2.515-1.059l-0.002-0.002l8.341-8.34   c1.676,0.891,3.586,1.4,5.617,1.4c6.627,0,12-5.373,12-12C32,5.378,26.627,0.005,20,0.005z M4.795,29.697   c-0.322,0.334-0.768,0.543-1.266,0.543c-0.975,0-1.765-0.789-1.765-1.764c0-0.498,0.21-0.943,0.543-1.266l-0.009-0.008l8.066-8.066   c0.705,0.951,1.545,1.791,2.494,2.498L4.795,29.697z M20,22.006c-5.522,0-10-4.479-10-10c0-5.522,4.478-10,10-10   c5.521,0,10,4.478,10,10C30,17.527,25.521,22.006,20,22.006z"/>
      <path xmlns="http://www.w3.org/2000/svg" d="M20,5.005c-3.867,0-7,3.134-7,7c0,0.276,0.224,0.5,0.5,0.5s0.5-0.224,0.5-0.5c0-3.313,2.686-6,6-6   c0.275,0,0.5-0.224,0.5-0.5S20.275,5.005,20,5.005z"/>
    </g>
  </symbol>

  <symbol id="message_" viewBox="0 0 32 32">
    <g transform="matrix(-1,0,0,1,32,0)">
      <path xmlns="http://www.w3.org/2000/svg" fill-rule="evenodd" clip-rule="evenodd" d="M 16,7 C 10.037,7 5,10.206 5,14 5,14.276 5.224,14.5 5.5,14.5 5.776,14.5 6,14.276 6,14 6,10.804 10.673,8 16,8 16.275,8 16.5,7.776 16.5,7.5 16.5,7.224 16.276,7 16,7 Z"/>
      <path xmlns="http://www.w3.org/2000/svg" fill-rule="evenodd" clip-rule="evenodd" d="M 16,2 C 7.163,2 0,7.373 0,14 0,18.127 2.779,21.766 7.008,23.926 7.008,23.953 7,23.971 7,24 c 0,1.793 -1.339,3.723 -1.928,4.736 0.001,0 0.002,0 0.002,0 C 5.027,28.846 5,28.967 5,29.094 5,29.594 5.405,30 5.906,30 6,30 6.165,29.975 6.161,29.986 9.286,29.474 12.23,26.603 12.914,25.771 13.913,25.918 14.943,26 16,26 24.835,26 32,20.627 32,14 32,7.373 24.836,2 16,2 Z m 0,22 c -0.917,0 -1.858,-0.07 -2.796,-0.207 -0.097,-0.016 -0.194,-0.021 -0.29,-0.021 -0.594,0 -1.163,0.264 -1.546,0.73 -0.428,0.521 -1.646,1.684 -3.085,2.539 0.39,-0.895 0.695,-1.898 0.716,-2.932 0.006,-0.064 0.009,-0.129 0.009,-0.184 0,-0.752 -0.421,-1.439 -1.09,-1.781 C 4.212,20.252 2,17.207 2,14 2,8.486 8.28,4 16,4 c 7.718,0 14,4.486 14,10 0,5.514 -6.281,10 -14,10 z"/>
    </g>
  </symbol>
  
  
  <symbol id="charge" viewBox="0 0 24 24">
    <path d="M11.8 10.9c-2.27-.59-3-1.2-3-2.15 0-1.09 1.01-1.85 2.7-1.85 1.78 0 2.44.85 2.5 2.1h2.21c-.07-1.72-1.12-3.3-3.21-3.81V3h-3v2.16c-1.94.42-3.5 1.68-3.5 3.61 0 2.31 1.91 3.46 4.7 4.13 2.5.6 3 1.48 3 2.41 0 .69-.49 1.79-2.7 1.79-2.06 0-2.87-.92-2.98-2.1h-2.2c.12 2.19 1.76 3.42 3.68 3.83V21h3v-2.15c1.95-.37 3.5-1.5 3.5-3.55 0-2.84-2.43-3.81-4.7-4.4z"/>
    <path d="M0 0h24v24H0z" fill="none"/>
  </symbol>

</svg>